<svg xmlns="http://www.w3.org/2000/svg" viewBox="0 0 315.33 243.34"><defs><style>.cls-1{fill:#ddd;}.cls-2{fill:#efb639;}.cls-3{fill:#3d3e3e;}.cls-4{fill:#eeb53c;}.cls-5{fill:#f3e2cc;}.cls-6{fill:#f4e3cc;}.cls-7{fill:#2599c4;}.cls-8{fill:#82cef0;}.cls-9{fill:#3c3d3d;}.cls-10{fill:#dfdfdf;}.cls-11{fill:#c3c3c3;}.cls-12{fill:#efefef;}.cls-13{fill:#eee;}.cls-14{fill:#edb43f;}.cls-15{fill:#82ccee;}.cls-16{fill:#82cdef;}.cls-17{fill:#dedede;}.cls-18{fill:#f5e4cc;}.cls-19{fill:#f0b735;}.cls-20{fill:#db9c17;}.cls-21{fill:#a2a2a2;}.cls-22{fill:#249ac5;}.cls-23{fill:#f2e1cc;}.cls-24{fill:#2797c2;}.cls-25{fill:#ecb342;}.cls-26{fill:#414242;}.cls-27{fill:#239bc6;}.cls-28{fill:#fff;}.cls-29{fill:#f1f1f1;}.cls-30{fill:#a3a3a3;}.cls-31{fill:#2698c3;}.cls-32{fill:#b7b7b7;}.cls-33{fill:#f0f0f0;}.cls-34{fill:#a1a1a1;}.cls-35{fill:#c4c4c4;}.cls-36{fill:#d7d7d7;}.cls-37{fill:#da9b1e;}</style></defs><g id="Layer_2" data-name="Layer 2"><g id="content"><g id="illustration"><path class="cls-1" d="M22.35,180.94,211,72a17.55,17.55,0,0,1,16.67-.54l84,48.61c4.34,3.16,5.18,9.48.39,12.28L124.14,241a17.27,17.27,0,0,1-16.39.54L23.75,193C17.73,189.43,18.07,183.81,22.35,180.94Z"/><path class="cls-2" d="M308.05,103l-.07,0-.26-.21-84-48.61a17.52,17.52,0,0,0-16.67.53l-188.65,109a9.62,9.62,0,0,0-.91.72c-6.44,5-5.53,15.59,1.82,19.84l.13.07c.08.05.15.11.24.16l84,48.52a17.26,17.26,0,0,0,16.4-.54L308,123.7a7,7,0,0,0,1-.69C316.11,118.23,315.64,107.35,308.05,103Z"/><path class="cls-3" d="M308.27,102.58l-.18.3h0l.16-.3-.1-.08a1.5,1.5,0,0,0-.21-.17l-84-48.62a17.94,17.94,0,0,0-17.09.54l-188.68,109a9.88,9.88,0,0,0-.93.73,12,12,0,0,0-4.45,10.31,12.8,12.8,0,0,0,6.34,10.27l.19.11.16.11,84,48.53a17.64,17.64,0,0,0,16.82-.55L308.22,124.08a6.47,6.47,0,0,0,1-.71,11.9,11.9,0,0,0,5.26-10.4A12.4,12.4,0,0,0,308.27,102.58ZM118.65,210.11s2.51,10.64.54,15.76a9.81,9.81,0,0,1-7.15,5.95,17.36,17.36,0,0,1-8.53-1.78l-84-48.53-.23-.15-.13-.07a12.12,12.12,0,0,1-5.51-6.95s0-.06,0-.1a11.09,11.09,0,0,1,4.14-9.58,9.5,9.5,0,0,1,.84-.66L207.26,55a16.8,16.8,0,0,1,3.32-1.45,17.3,17.3,0,0,1,14.73,3.08l1.6,1.18a1,1,0,0,1-.28.42Z"/><path class="cls-4" d="M141.43,217.72l-2.83,1.63c-.82.47-1.49,0-1.49-1.12h0a3.54,3.54,0,0,1,1.48-2.84l2.84-1.63c.82-.47,1.48,0,1.48,1.12h0A3.54,3.54,0,0,1,141.43,217.72Z"/><path class="cls-5" d="M138.59,215.41a3.6,3.6,0,0,0-1.48,2.84,1.84,1.84,0,0,0,.14.66,1,1,0,0,0,.35-.14l2.84-1.62a3.57,3.57,0,0,0,1.48-2.84,1.92,1.92,0,0,0-.11-.67,1.3,1.3,0,0,0-.38.15Z"/><path class="cls-3" d="M137.11,219.17l-.06-.18a2,2,0,0,1-.15-.74,3.73,3.73,0,0,1,1.58-3h0l2.83-1.62a1.39,1.39,0,0,1,.44-.17l.19-.05.06.18a2.27,2.27,0,0,1,.13.75,3.77,3.77,0,0,1-1.59,3L137.71,219a1.32,1.32,0,0,1-.41.17Zm1.59-3.57a3.35,3.35,0,0,0-1.37,2.65,1.59,1.59,0,0,0,.06.39l.11-.06,2.83-1.62a3.35,3.35,0,0,0,1.37-2.65,1.75,1.75,0,0,0,0-.4l-.12.07Z"/><path class="cls-4" d="M142.7,218.75h0c-.82.47-1.48,0-1.48-1.12h0a3.57,3.57,0,0,1,1.48-2.84h0c.82-.47,1.48,0,1.48,1.12h0A3.54,3.54,0,0,1,142.7,218.75Z"/><path class="cls-3" d="M142.11,219.19a1,1,0,0,1-.51-.13,1.58,1.58,0,0,1-.64-1.43,3.75,3.75,0,0,1,1.61-3.06,1.17,1.17,0,0,1,1.23-.08,1.57,1.57,0,0,1,.65,1.42,3.8,3.8,0,0,1-1.62,3.07h0A1.51,1.51,0,0,1,142.11,219.19Zm1.18-4.31a1,1,0,0,0-.46.14,3.33,3.33,0,0,0-1.35,2.61,1.08,1.08,0,0,0,.38,1,.72.72,0,0,0,.71-.08h0a3.33,3.33,0,0,0,1.35-2.61,1.09,1.09,0,0,0-.38-1A.57.57,0,0,0,143.29,214.88Z"/><path class="cls-5" d="M141.25,217.65a3.57,3.57,0,0,1,1.48-2.84.94.94,0,0,1,.92-.09h0l-1-.75-.12-.08-.09-.06-.07,0a.85.85,0,0,0-.89.11,3.55,3.55,0,0,0-1.48,2.84,1.4,1.4,0,0,0,.41,1.12l0,0,.06,0,.09.07,1.16.83A1.43,1.43,0,0,1,141.25,217.65Z"/><path class="cls-3" d="M141.5,219l-1.16-.84-.11-.07,0,0a1.73,1.73,0,0,1-.49-1.31,3.78,3.78,0,0,1,1.61-3.06,1.11,1.11,0,0,1,1.16-.11l.17.1.15.11,1.17.86-.18.45-.25-.12a.74.74,0,0,0-.67.09,3.3,3.3,0,0,0-1.35,2.61,1.24,1.24,0,0,0,.3.91Zm-.94-1.32.08,0,.37.27c0-.1,0-.21,0-.32a3.82,3.82,0,0,1,1.61-3.07,1.59,1.59,0,0,1,.27-.12l-.4-.29-.09-.07-.17-.1c-.11-.06-.25-.11-.62.11a3.3,3.3,0,0,0-1.35,2.61,1.26,1.26,0,0,0,.28.89l0,0Z"/><path class="cls-5" d="M147,214.58a3.55,3.55,0,0,1,1.48-2.84l8.48-4.91a.91.91,0,0,1,1,0l-1.4-1-.14-.09a.92.92,0,0,0-1.1,0l-8.48,4.91a3.57,3.57,0,0,0-1.48,2.84c0,.53.08.86.34,1.06l.07.07h0l0,0,1.6,1.11A1.38,1.38,0,0,1,147,214.58Z"/><path class="cls-3" d="M147.3,215.94l-1.74-1.22a1.58,1.58,0,0,1-.44-1.27,3.78,3.78,0,0,1,1.62-3.06l8.48-4.91a1.16,1.16,0,0,1,1.39,0l1.53,1h0l-.3.43h0a.69.69,0,0,0-.73.06L148.63,212a3.3,3.3,0,0,0-1.35,2.61,1.15,1.15,0,0,0,.33.93Zm8.61-10.14a.83.83,0,0,0-.43.13L147,210.84a3.34,3.34,0,0,0-1.35,2.61c0,.47.07.72.24.86l.08.06.81.57a2.19,2.19,0,0,1,0-.36,3.78,3.78,0,0,1,1.61-3.06l8.48-4.91.25-.12-.79-.55A.63.63,0,0,0,155.91,205.8Z"/><path class="cls-4" d="M157,210.79l-8.48,4.91c-.82.47-1.48,0-1.48-1.12h0a3.55,3.55,0,0,1,1.48-2.84l8.48-4.91c.81-.47,1.48,0,1.48,1.12h0A3.57,3.57,0,0,1,157,210.79Z"/><path class="cls-3" d="M147.91,216.14a1,1,0,0,1-.51-.13,1.58,1.58,0,0,1-.65-1.43,3.78,3.78,0,0,1,1.61-3.06l8.48-4.91a1.19,1.19,0,0,1,1.24-.08,1.55,1.55,0,0,1,.64,1.42,3.79,3.79,0,0,1-1.61,3.07l-8.48,4.91A1.45,1.45,0,0,1,147.91,216.14Zm9.65-9.22a1,1,0,0,0-.45.14L148.63,212a3.3,3.3,0,0,0-1.35,2.61,1.09,1.09,0,0,0,.38,1,.72.72,0,0,0,.71-.08l8.48-4.91A3.33,3.33,0,0,0,158.2,208a1.06,1.06,0,0,0-.39-1A.44.44,0,0,0,157.56,206.92Z"/><path class="cls-5" d="M160.79,206.53a3.57,3.57,0,0,1,1.48-2.84l8.48-4.9a.91.91,0,0,1,1,0l-1.4-1-.14-.09a.91.91,0,0,0-1.1,0l-8.48,4.91a3.54,3.54,0,0,0-1.48,2.83,1.26,1.26,0,0,0,.34,1.07l.07.06h0s0,0,0,0l1.6,1.12A1.4,1.4,0,0,1,160.79,206.53Z"/><path class="cls-3" d="M161.07,207.89l-1.74-1.22a1.52,1.52,0,0,1-.43-1.27,3.75,3.75,0,0,1,1.61-3.06l8.48-4.91a1.16,1.16,0,0,1,1.39,0l1.53,1.05h0l-.29.44h0a.69.69,0,0,0-.73,0l-8.48,4.91a3.34,3.34,0,0,0-1.35,2.61,1.17,1.17,0,0,0,.33.94Zm8.61-10.14a.83.83,0,0,0-.43.13l-8.48,4.91a3.34,3.34,0,0,0-1.35,2.61c0,.47.07.72.24.86l.08.07.81.56a2,2,0,0,1,0-.36,3.8,3.8,0,0,1,1.61-3.06l8.48-4.91.25-.12-.78-.54A.63.63,0,0,0,169.68,197.75Z"/><path class="cls-4" d="M170.75,202.74l-8.48,4.91c-.82.47-1.48,0-1.48-1.12h0a3.57,3.57,0,0,1,1.48-2.84l8.48-4.9c.82-.48,1.48,0,1.48,1.11h0A3.54,3.54,0,0,1,170.75,202.74Z"/><path class="cls-3" d="M161.68,208.09a1,1,0,0,1-.51-.13,1.6,1.6,0,0,1-.65-1.43,3.8,3.8,0,0,1,1.61-3.06l8.48-4.91a1.19,1.19,0,0,1,1.24-.08,1.55,1.55,0,0,1,.64,1.42,3.79,3.79,0,0,1-1.61,3.07l-8.48,4.91A1.45,1.45,0,0,1,161.68,208.09Zm9.66-9.22a1,1,0,0,0-.46.14l-8.48,4.91a3.34,3.34,0,0,0-1.35,2.61,1.08,1.08,0,0,0,.38,1,.72.72,0,0,0,.71-.08l8.48-4.91A3.31,3.31,0,0,0,172,199.9a1.09,1.09,0,0,0-.38-1A.57.57,0,0,0,171.34,198.87Z"/><path class="cls-6" d="M18.26,165.16l188.66-109a17.52,17.52,0,0,1,16.67-.53l84,48.61c4.34,3.16,5.19,9.48.4,12.27L120.05,225.21a17.23,17.23,0,0,1-16.4.54l-84-48.52C13.64,173.65,14,168,18.26,165.16Z"/><path class="cls-3" d="M120.45,224.15l188-108.69a6.77,6.77,0,0,0,3.5-5.64,8.29,8.29,0,0,0-1.16-4.56,9.61,9.61,0,0,0-2.72-3L224,53.62a18,18,0,0,0-17.21.54l-188.66,109a7.1,7.1,0,0,0-3.44,6.07c.07,2.67,1.79,5.13,4.84,6.95l84,48.53a17.71,17.71,0,0,0,16.93-.55ZM310.8,109.77a5.71,5.71,0,0,1-3,4.74L119.9,223.2a16.63,16.63,0,0,1-15.86.53l-84-48.51a9.61,9.61,0,0,1-3.51-3.34,5.51,5.51,0,0,1-.79-2.69,6,6,0,0,1,2.92-5.1l188.63-109a16.91,16.91,0,0,1,16.14-.52l84,48.58A7.91,7.91,0,0,1,310.8,109.77Z"/><path class="cls-7" d="M301.33,104.86,220,58.16a12.29,12.29,0,0,0-11.68.38L32.14,160.29c-3,2-3.24,5.94,1,8.45l81.34,46.63A12.1,12.1,0,0,0,126,215L301.61,113.46A4.89,4.89,0,0,0,301.33,104.86Z"/><path class="cls-8" d="M301.56,109,220.21,62.27a12.26,12.26,0,0,0-11.68.37L32.37,164.39a5.16,5.16,0,0,0-1.67,1.76,6.94,6.94,0,0,0,2.65,2.59l81.34,46.63a12.1,12.1,0,0,0,11.49-.37L301.83,113.46a4.81,4.81,0,0,0,2-2.18A4.81,4.81,0,0,0,301.56,109Z"/><path class="cls-4" d="M54,189.22l-.1-.06c-.54-.3-.47-.85.15-1.21h0a2.35,2.35,0,0,1,2.09-.1l.11.06c.54.31.47.85-.15,1.22h0A2.33,2.33,0,0,1,54,189.22Z"/><path class="cls-4" d="M75.78,201.63,57.09,191c-.54-.3-.47-.85.15-1.21h0a2.37,2.37,0,0,1,2.1-.1L78,200.32c.54.31.47.85-.15,1.22h0A2.31,2.31,0,0,1,75.78,201.63Z"/><path class="cls-3" d="M55,188.93a2.87,2.87,0,0,0,1.39-.35,1.27,1.27,0,0,0,.72-1.05.89.89,0,0,0-.12-.45,1.22,1.22,0,0,0-.45-.42l-.11-.06a2.74,2.74,0,0,0-2.5.1,1.25,1.25,0,0,0-.71,1,1,1,0,0,0,.57.87l.1.06A2.28,2.28,0,0,0,55,188.93Zm-.71-1-.1-.06a.5.5,0,0,1-.15-.13s0,0,0-.05.1-.2.31-.33a2.1,2.1,0,0,1,1-.25,1.42,1.42,0,0,1,.7.16l.1.05c.1.06.17.13.16.18s-.09.21-.3.33A2,2,0,0,1,54.24,188Z"/><path class="cls-3" d="M78.08,201a1.25,1.25,0,0,0,.71-1,.83.83,0,0,0-.12-.44,1.17,1.17,0,0,0-.45-.43L59.54,188.4a2.76,2.76,0,0,0-2.51.1,1.25,1.25,0,0,0-.71,1,1,1,0,0,0,.57.88l18.68,10.66a2.25,2.25,0,0,0,1.11.26A2.75,2.75,0,0,0,78.08,201Zm-2.1-.6L57.29,189.71a.36.36,0,0,1-.14-.13.08.08,0,0,1,0,0c0-.08.1-.21.31-.34a2,2,0,0,1,1-.25,1.42,1.42,0,0,1,.7.16l18.69,10.67c.09.05.16.12.16.17s-.1.21-.31.33A2,2,0,0,1,76,200.38Z"/><path class="cls-9" d="M119.86,217a12.54,12.54,0,0,1-5.56-1.31L33,169c-2.13-1.26-3.33-3-3.38-4.83A4.93,4.93,0,0,1,32,160L208.13,58.23a12.61,12.61,0,0,1,12-.38l81.36,46.7a5.25,5.25,0,0,1,.29,9.21L126.12,215.3A12.4,12.4,0,0,1,119.86,217ZM214.49,57.21a11.86,11.86,0,0,0-6,1.63L32.32,160.59a4.22,4.22,0,0,0-2.05,3.6c0,1.6,1.12,3.11,3,4.25l81.34,46.63a11.67,11.67,0,0,0,11.13-.38L301.43,113.15a4.54,4.54,0,0,0-.26-8h0L219.81,58.47A11.88,11.88,0,0,0,214.49,57.21Z"/><path class="cls-3" d="M106.9,230.42c.39.22.7,0,.7-.41a1.56,1.56,0,0,0-.7-1.22c-.39-.22-.71,0-.71.41A1.57,1.57,0,0,0,106.9,230.42Z"/><path class="cls-3" d="M103.21,228.29c.39.22.71,0,.71-.41a1.57,1.57,0,0,0-.71-1.22c-.39-.22-.7,0-.7.41A1.54,1.54,0,0,0,103.21,228.29Z"/><path class="cls-3" d="M99.53,226.16c.39.23.7,0,.7-.41a1.57,1.57,0,0,0-.7-1.22c-.39-.22-.71,0-.71.41A1.55,1.55,0,0,0,99.53,226.16Z"/><path class="cls-3" d="M95.84,222.41c-.39-.23-.7,0-.7.4a1.54,1.54,0,0,0,.7,1.22c.39.23.71.05.71-.4a1.55,1.55,0,0,0-.71-1.22Z"/><path class="cls-3" d="M92.12,221.89c.39.22.71,0,.71-.41a1.57,1.57,0,0,0-.71-1.22c-.39-.22-.7,0-.7.41A1.56,1.56,0,0,0,92.12,221.89Z"/><path class="cls-3" d="M88.44,219.76c.38.23.7,0,.7-.41a1.58,1.58,0,0,0-.7-1.22c-.39-.22-.71,0-.71.41A1.55,1.55,0,0,0,88.44,219.76Z"/><path class="cls-3" d="M84.75,217.63c.39.23.71.05.71-.4a1.59,1.59,0,0,0-.71-1.23c-.39-.22-.7,0-.7.41A1.54,1.54,0,0,0,84.75,217.63Z"/><path class="cls-3" d="M81.07,215.5c.38.23.7.05.7-.4a1.57,1.57,0,0,0-.7-1.22c-.39-.23-.71,0-.71.4A1.55,1.55,0,0,0,81.07,215.5Z"/><path class="cls-3" d="M26,183.81c.39.22.71,0,.71-.41a1.55,1.55,0,0,0-.71-1.22c-.38-.23-.7,0-.7.4A1.6,1.6,0,0,0,26,183.81Z"/><path class="cls-3" d="M22.28,181.68c.39.22.7,0,.7-.41a1.54,1.54,0,0,0-.7-1.22c-.39-.22-.7,0-.7.41A1.56,1.56,0,0,0,22.28,181.68Z"/><path class="cls-3" d="M18.59,179.55c.39.22.71,0,.71-.41a1.57,1.57,0,0,0-.71-1.22c-.38-.22-.7,0-.7.41A1.58,1.58,0,0,0,18.59,179.55Z"/><path class="cls-10" d="M241.1,208.6c4.8-2.77,4.8-7.26,0-10-.27-.16-.56-.31-.86-.45l-2.56,5.45,0,.07-.16.33h0a4.14,4.14,0,0,1-2.66,1.7,8.34,8.34,0,0,1-4.83-.18c-2-.73-2.67-2-2.19-3.15l2.7-5.71s0,0,0,0a16.7,16.7,0,0,0-6.74,2c-2.49,1.43-3.68,3.33-3.59,5.21.13,2.45-1.47,4.83-4.47,6.56l-38.32,22.12c-1.73,1-1.73,2.64,0,3.64h0a7,7,0,0,0,6.3,0l39.65-22.89a22.71,22.71,0,0,1,10.1-2.56A17.28,17.28,0,0,0,241.1,208.6Z"/><path class="cls-11" d="M240.56,202.05c0,.09,0-4.69,0-4.69l-2.24.26,0,0a8.93,8.93,0,0,0-1.13-.77c-.26-.15-.54-.29-.82-.43l-2.24,4.77-2.84,2.39h0a7.94,7.94,0,0,1-4.66-.16c-1.86-.69-2.53-1.91-2.08-3h0l2.6-5.47v-4.23a0,0,0,0,0,0,0l-3.18,1.8-1.67,3.59a12.63,12.63,0,0,0-1.57.75c-2.29,1.32-3.41,3.05-3.41,4.78l-22,16.68-14.61,8.43-5.3-.2v4.27h0a2.12,2.12,0,0,0,1.24,1.73h0a6.59,6.59,0,0,0,6,0l37.71-21.77a21.63,21.63,0,0,1,9.6-2.44,16.41,16.41,0,0,0,7.33-2c2.06-1.19,3.18-2.72,3.38-4.28h0Z"/><path class="cls-3" d="M179.54,233.68a6.51,6.51,0,0,1-3.18-.77,2.48,2.48,0,0,1-1.43-2.06v-4.66l5.58.21L195,218l21.85-16.54c.07-1.88,1.34-3.62,3.59-4.92a12,12,0,0,1,1.48-.71l1.66-3.57,3.47-2,.4.21v4.56l-2.61,5.53a1.28,1.28,0,0,0,0,1,3.15,3.15,0,0,0,1.87,1.45,7.55,7.55,0,0,0,4.35.16l2.72-2.28,2.36-5,.34.16c.29.14.58.29.85.44s.66.42,1,.68l2.6-.3v.43c0,1.45,0,3.5,0,4.32h0l0,.69a6.63,6.63,0,0,1-3.53,4.37,16.9,16.9,0,0,1-7.5,2,21.1,21.1,0,0,0-9.43,2.39l-37.71,21.77A6.53,6.53,0,0,1,179.54,233.68ZM175.68,227v3.88a1.76,1.76,0,0,0,1,1.41,6.25,6.25,0,0,0,5.62,0l37.7-21.77a21.58,21.58,0,0,1,9.77-2.49,16,16,0,0,0,7.16-1.9c1.87-1.08,3-2.5,3.2-4l0-.2c0-.56,0-1.72,0-4.12l-1.71.2-.14.12-.29-.15a10.53,10.53,0,0,0-1.09-.74l-.45-.24-2.18,4.55-2.83,2.39-.16.08a8.37,8.37,0,0,1-4.89-.16,3.8,3.8,0,0,1-2.29-1.87,2,2,0,0,1-.14-1.19H224l.2-.45,2.56-5.39v-3.55l-2.55,1.44-1.68,3.62-.14.06a12.07,12.07,0,0,0-1.52.72c-2.09,1.21-3.23,2.79-3.22,4.46v.19l-.15.11-22,16.68-14.73,8.51Z"/><path class="cls-12" d="M237.17,202.15c4.56-2.63,4.56-6.9,0-9.54-.26-.15-.54-.29-.82-.42l-2.44,5.18s0,0,0,.07l-.15.31h0a4,4,0,0,1-2.54,1.62,8,8,0,0,1-4.59-.17c-1.86-.7-2.53-1.91-2.08-3l2.57-5.43s0,0,0,0a16,16,0,0,0-6.41,1.88c-2.36,1.37-3.5,3.18-3.41,5,.11,2.32-1.4,4.58-4.25,6.23l-36.45,21c-1.64,1-1.64,2.51,0,3.46h0a6.65,6.65,0,0,0,6,0l37.71-21.77a21.5,21.5,0,0,1,9.6-2.44A16.41,16.41,0,0,0,237.17,202.15Z"/><path class="cls-3" d="M179.54,229.39a6.45,6.45,0,0,1-3.18-.76,2.19,2.19,0,0,1,0-4.11l36.44-21c2.69-1.55,4.17-3.7,4.06-5.89-.1-2,1.21-3.92,3.6-5.3a16.25,16.25,0,0,1,6.56-1.93l.22,0,.28.37-.1.23-2.56,5.42a1.27,1.27,0,0,0,0,1,3.16,3.16,0,0,0,1.87,1.46,7.55,7.55,0,0,0,4.35.16,3.65,3.65,0,0,0,2.31-1.45l.15-.29,2.62-5.58.34.16c.29.14.58.28.85.44,2.32,1.34,3.6,3.15,3.6,5.09s-1.28,3.75-3.6,5.1h0a16.77,16.77,0,0,1-7.5,2,21.37,21.37,0,0,0-9.43,2.39l-37.71,21.77A6.45,6.45,0,0,1,179.54,229.39Zm46.94-38.22a15,15,0,0,0-5.64,1.77c-2.17,1.25-3.31,2.89-3.23,4.62.13,2.48-1.49,4.87-4.44,6.57l-36.44,21a1.75,1.75,0,0,0-1,1.41,1.73,1.73,0,0,0,1,1.4,6.31,6.31,0,0,0,5.62,0l37.7-21.77a21.84,21.84,0,0,1,9.77-2.49,16,16,0,0,0,7.16-1.89h0c2.09-1.21,3.23-2.79,3.23-4.45s-1.14-3.24-3.23-4.44l-.45-.25L234,198.17h-.06a4.58,4.58,0,0,1-2.61,1.58,8.38,8.38,0,0,1-4.82-.19,3.79,3.79,0,0,1-2.29-1.86,2.05,2.05,0,0,1,0-1.63Z"/><path class="cls-4" d="M218.11,205.64a2.54,2.54,0,0,1-2.34,0c-.65-.37-.65-1,0-1.35a2.61,2.61,0,0,1,2.34,0A.71.71,0,0,1,218.11,205.64Z"/><path class="cls-3" d="M216.94,206.3a2.77,2.77,0,0,1-1.36-.33,1.08,1.08,0,0,1,0-2,3,3,0,0,1,2.71,0,1.08,1.08,0,0,1,0,2A2.73,2.73,0,0,1,216.94,206.3Zm0-1.91a2.1,2.1,0,0,0-1,.23c-.18.11-.29.24-.29.35s.11.24.29.35a2.2,2.2,0,0,0,2,0c.18-.11.3-.24.3-.35s-.12-.24-.3-.35A2.08,2.08,0,0,0,216.94,204.39Z"/><path class="cls-8" d="M213.78,206.85l-.16-.09a2.55,2.55,0,0,0-2.29.09l-28.77,16.61c-.67.39-.75,1-.16,1.33l.16.09a2.55,2.55,0,0,0,2.29-.1l28.77-16.61C214.3,207.78,214.37,207.19,213.78,206.85Z"/><path class="cls-3" d="M183.56,225.48a2.38,2.38,0,0,1-1.19-.28l-.16-.09a1.06,1.06,0,0,1-.58-.9,1.28,1.28,0,0,1,.75-1.07l28.76-16.61a2.94,2.94,0,0,1,2.67-.1l.16.1a1,1,0,0,1,.58.9,1.32,1.32,0,0,1-.74,1.07L185,225.11A3.12,3.12,0,0,1,183.56,225.48Zm29.07-18.58a2.31,2.31,0,0,0-1.11.28l-28.77,16.61c-.27.16-.37.33-.37.42s.13.21.21.25l.16.09a2.16,2.16,0,0,0,1.91-.09l28.77-16.61c.28-.16.37-.33.37-.43s-.13-.2-.21-.24l-.15-.1A1.67,1.67,0,0,0,212.63,206.9Z"/><rect class="cls-3" x="180.14" y="228.95" width="0.75" height="4.34"/><rect class="cls-3" x="223.7" y="204.97" width="0.75" height="4.34"/><rect class="cls-3" x="238.63" y="200.62" width="0.75" height="4.34"/><path class="cls-1" d="M1.47,202.39,62.89,238a.84.84,0,0,0,.74,0l7.57-4.37c.22-.13.24-.32,0-.43L9.83,197.56a.84.84,0,0,0-.74,0L1.52,202C1.3,202.09,1.28,202.28,1.47,202.39Z"/><path class="cls-13" d="M.49,198.44,59.82,232.7a.75.75,0,0,0,.68,0l7-4c.2-.12.23-.29,0-.39L8.24,194a.75.75,0,0,0-.68,0l-7,4.05C.34,198.17.32,198.34.49,198.44Z"/><path class="cls-11" d="M59.82,232.55,1.7,199l5.86-3.38a.75.75,0,0,1,.68,0l58.12,33.56-5.86,3.38A.78.78,0,0,1,59.82,232.55Z"/><path class="cls-14" d="M9.8,203.65l-7.94-4.58,5.86-3.38a.75.75,0,0,1,.68,0L16,200Z"/><path class="cls-15" d="M6.17,201.57,1.7,199l5.86-3.38a.75.75,0,0,1,.68,0L12.36,198Z"/><path class="cls-14" d="M50.62,221.92l1.59-.92,12.67,7.32L59,231.7a.75.75,0,0,1-.68,0l-12.4-7.16Z"/><path class="cls-3" d="M59.64,233,.31,198.77h0a.56.56,0,0,1-.31-.5.65.65,0,0,1,.35-.54l7-4.06a1.14,1.14,0,0,1,1.06,0L67.76,227.9a.58.58,0,0,1,.31.5.66.66,0,0,1-.36.54l-7,4.06a1.23,1.23,0,0,1-.57.14A.92.92,0,0,1,59.64,233ZM8.05,194.3a.4.4,0,0,0-.3,0L.93,198.26,60,232.37a.43.43,0,0,0,.31,0l6.82-3.94Z"/><path class="cls-16" d="M51.92,222.62l1.59-.92L66.18,229l-5.86,3.39a.74.74,0,0,1-.68,0l-12.4-7.15Z"/><rect class="cls-3" x="57.4" y="229.74" width="6.04" height="0.56" transform="translate(-106.92 61.03) rotate(-30)"/><rect class="cls-3" x="50.55" y="226.12" width="4.47" height="0.56" transform="translate(-106.14 56.73) rotate(-30)"/><rect class="cls-3" x="52.4" y="227.18" width="4.47" height="0.56" transform="translate(-106.41 57.78) rotate(-30)"/><rect class="cls-3" x="55.84" y="229.17" width="4.47" height="0.56" transform="translate(-106.96 59.79) rotate(-30)"/><rect class="cls-3" x="54.12" y="228.18" width="4.47" height="0.56" transform="translate(-106.68 58.78) rotate(-30)"/><rect class="cls-3" x="45.26" y="223.06" width="4.47" height="0.56" transform="translate(-105.31 53.67) rotate(-30)"/><rect class="cls-3" x="47.11" y="224.13" width="4.47" height="0.56" transform="matrix(0.87, -0.5, 0.5, 0.87, -105.61, 54.75)"/><rect class="cls-3" x="48.83" y="225.12" width="4.47" height="0.56" transform="matrix(0.87, -0.5, 0.5, 0.87, -105.87, 55.74)"/><rect class="cls-3" x="36.78" y="218.17" width="4.47" height="0.56" transform="matrix(0.87, -0.5, 0.5, 0.87, -104.01, 48.78)"/><rect class="cls-3" x="38.62" y="219.23" width="4.47" height="0.56" transform="translate(-104.28 49.84) rotate(-30)"/><rect class="cls-3" x="42.06" y="221.22" width="4.47" height="0.56" transform="translate(-104.81 51.82) rotate(-30)"/><rect class="cls-3" x="40.34" y="220.22" width="4.47" height="0.56" transform="translate(-104.55 50.83) rotate(-30)"/><rect class="cls-3" x="31.49" y="215.11" width="4.47" height="0.56" transform="translate(-103.15 45.7) rotate(-29.99)"/><rect class="cls-3" x="33.33" y="216.18" width="4.47" height="0.56" transform="translate(-103.46 46.78) rotate(-30)"/><rect class="cls-3" x="35.05" y="217.17" width="4.47" height="0.56" transform="matrix(0.87, -0.5, 0.5, 0.87, -103.74, 47.79)"/><rect class="cls-3" x="23.04" y="210.24" width="4.47" height="0.56" transform="matrix(0.87, -0.5, 0.5, 0.87, -101.88, 40.85)"/><rect class="cls-3" x="24.89" y="211.3" width="4.47" height="0.56" transform="translate(-102.15 41.91) rotate(-30)"/><rect class="cls-3" x="28.33" y="213.29" width="4.47" height="0.56" transform="translate(-102.69 43.89) rotate(-30)"/><rect class="cls-3" x="26.61" y="212.29" width="4.47" height="0.56" transform="translate(-102.42 42.9) rotate(-30)"/><rect class="cls-3" x="17.75" y="207.18" width="4.47" height="0.56" transform="translate(-101.04 37.78) rotate(-30)"/><rect class="cls-3" x="19.6" y="208.25" width="4.47" height="0.56" transform="translate(-101.34 38.85) rotate(-30)"/><rect class="cls-3" x="21.32" y="209.24" width="4.47" height="0.56" transform="translate(-101.6 39.84) rotate(-30)"/><rect class="cls-3" x="9.14" y="202.21" width="4.47" height="0.56" transform="translate(-99.72 32.82) rotate(-30)"/><rect class="cls-3" x="10.99" y="203.28" width="4.47" height="0.56" transform="matrix(0.87, -0.5, 0.5, 0.87, -100.02, 33.89)"/><rect class="cls-3" x="14.43" y="205.26" width="4.47" height="0.56" transform="translate(-100.55 35.88) rotate(-30)"/><rect class="cls-3" x="12.71" y="204.27" width="4.47" height="0.56" transform="matrix(0.87, -0.5, 0.5, 0.87, -100.29, 34.89)"/><rect class="cls-3" x="3.85" y="199.16" width="4.47" height="0.56" transform="translate(-98.9 29.76) rotate(-30)"/><rect class="cls-3" x="5.7" y="200.22" width="4.47" height="0.56" transform="matrix(0.87, -0.5, 0.5, 0.87, -99.2, 30.84)"/><rect class="cls-3" x="7.42" y="201.22" width="4.47" height="0.56" transform="translate(-99.45 31.82) rotate(-30)"/><rect class="cls-3" x="29.75" y="213.78" width="6.04" height="0.56" transform="translate(-102.64 45.07) rotate(-30)"/><rect class="cls-3" x="43.5" y="221.72" width="6.04" height="0.56" transform="translate(-104.76 52.99) rotate(-30)"/><rect class="cls-3" x="15.86" y="205.76" width="6.04" height="0.56" transform="translate(-100.5 37.05) rotate(-30)"/><rect class="cls-3" x="2.11" y="197.82" width="6.04" height="0.56" transform="translate(-98.36 29.1) rotate(-30)"/><path class="cls-17" d="M304.81,211.73l-5.63-3.25a4.5,4.5,0,0,0,.2-1.29c0-.08,0-.15,0-.22a9.74,9.74,0,0,0,.48-2.91,4.36,4.36,0,0,0-1.52-3.68v0l-.16-.1-.1-.07-.1-.05-25.81-14.95h0L264.89,181h0l0,0-3-1.71c-1.64-.78-3.87,0-6,2a12.24,12.24,0,0,0-3.41,5.89c-.7,2.81-.24,5.11,1.27,6.17l36.1,20.94,0,0,.05,0h0l.35.18h0a3.25,3.25,0,0,0,1.21.22,5.37,5.37,0,0,0,2.63-.8,9.63,9.63,0,0,0,2.34-1.94l.18-.09a5.11,5.11,0,0,0,1-.81l5.62,3.25a.83.83,0,0,1,.43.74.85.85,0,0,1-.41.74l-.49.28a26.78,26.78,0,0,1-27.06,0l-8.7-5.11a7.46,7.46,0,0,0-7.53,0l-13.68,7.93c-1-1-2.14-1.33-3-.92l-21.39,12.67h0l-.1.05v0a2.25,2.25,0,0,0-.82,1.9,6.13,6.13,0,0,0,2.81,4.86,2.76,2.76,0,0,0,1.35.41,1.71,1.71,0,0,0,.64-.14h.05l.14-.08,0,0,0,0L246.94,225c.83-.57,1.07-1.82.64-3.36a2.67,2.67,0,0,1-.09-.26l13.57-7.87a4.47,4.47,0,0,1,4.54,0l8.71,5.11a29.73,29.73,0,0,0,30,0l.49-.28a3.82,3.82,0,0,0,0-6.59Z"/><path class="cls-18" d="M289.12,211.88l7.81-13.35s0,0,0,0l-36.25-21c-1.39-.67-3.42-.15-5.56,1.9a12,12,0,0,0-3.3,5.72c-.72,2.86-.16,4.88,1.09,5.76h0l36.19,21Z"/><path class="cls-19" d="M254.62,183a12,12,0,0,0-3.12,5.06,3.86,3.86,0,0,0,1.4,3.14l36.19,21h0l6.26-10.7-35.19-20.38C258.79,180.44,256.76,181,254.62,183Z"/><path class="cls-3" d="M289.27,212.38l-.35-.18-36.19-21c-1.51-1.06-2-3.36-1.27-6.17a12.24,12.24,0,0,1,3.41-5.89c2.1-2,4.33-2.76,6-2l36.41,21.1.08.32-.09.14ZM259.42,177.6a6.31,6.31,0,0,0-4,2.08,11.61,11.61,0,0,0-3.21,5.54c-.62,2.5-.26,4.51,1,5.37L289,211.39l7.46-12.74L260.5,177.83A2.44,2.44,0,0,0,259.42,177.6Z"/><path class="cls-3" d="M255.69,192.91c-1.47-1-1.94-3.34-1.24-6.14a12.28,12.28,0,0,1,3.41-5.9c2.1-2,4.33-2.76,6-2l-.32.66c-1.35-.65-3.27,0-5.14,1.84a11.51,11.51,0,0,0-3.2,5.54c-.63,2.5-.27,4.51,1,5.37Z"/><path class="cls-3" d="M262.94,197.12c-1.48-1.05-1.94-3.35-1.24-6.15a12.22,12.22,0,0,1,3.4-5.9c2.1-2,4.34-2.75,6-2l-.32.67c-1.35-.65-3.28,0-5.15,1.83a11.59,11.59,0,0,0-3.2,5.54c-.62,2.51-.27,4.51.95,5.37Z"/><path class="cls-20" d="M298.41,202a12.11,12.11,0,0,1-5.48,9.5c-3,1.75-5.48.33-5.48-3.16a12.11,12.11,0,0,1,5.48-9.5C296,197.06,298.41,198.48,298.41,202Z"/><path class="cls-3" d="M290.48,212.59a3.24,3.24,0,0,1-1.61-.41,4.2,4.2,0,0,1-1.79-3.87,12.55,12.55,0,0,1,5.66-9.82,3.7,3.7,0,0,1,6,3.48,12.53,12.53,0,0,1-5.67,9.82A5.34,5.34,0,0,1,290.48,212.59Zm4.9-14.16a4.6,4.6,0,0,0-2.27.7,11.72,11.72,0,0,0-5.3,9.18,3,3,0,0,0,4.93,2.84A11.69,11.69,0,0,0,298,202a3.51,3.51,0,0,0-1.42-3.23A2.46,2.46,0,0,0,295.38,198.43Z"/><path class="cls-6" d="M293.7,209.63l3.58-6.11h0l-1.83-1.12c-.63-.3-1.56-.07-2.54.88a5.48,5.48,0,0,0-1.51,2.61c-.33,1.31-.07,2.23.5,2.63h0l1.8,1.12Z"/><path class="cls-2" d="M293.89,207.51l-1.83-1.12a1.41,1.41,0,0,0-.77-.11,2.12,2.12,0,0,0,.6,2.15l1.07.67.93-1.58Z"/><path class="cls-3" d="M293.65,210l-.15-.08-1.8-1.12c-.78-.55-1-1.65-.67-3a5.81,5.81,0,0,1,1.62-2.79c1-1,2.12-1.33,3-.94l2,1.25v.43l-3.61,6.2Zm1.22-7.4a2.7,2.7,0,0,0-1.71.9,5.11,5.11,0,0,0-1.41,2.44c-.27,1.06-.13,1.9.35,2.24l1.47.91,3.21-5.48-1.53-.93A.79.79,0,0,0,294.87,202.63Z"/><path class="cls-20" d="M298,205.1a5.52,5.52,0,0,1-2.51,4.34c-1.38.8-2.5.16-2.5-1.44a5.56,5.56,0,0,1,2.5-4.35C296.83,202.85,298,203.5,298,205.1Z"/><path class="cls-3" d="M294.32,210.16a1.69,1.69,0,0,1-.83-.22,2.09,2.09,0,0,1-.92-1.94,5.87,5.87,0,0,1,2.69-4.67,1.89,1.89,0,0,1,3.06,1.77,5.86,5.86,0,0,1-2.69,4.66A2.6,2.6,0,0,1,294.32,210.16Zm2.24-6.48a2,2,0,0,0-.93.29,5.16,5.16,0,0,0-2.33,4,1.17,1.17,0,0,0,2,1.12,5.13,5.13,0,0,0,2.32-4,1.42,1.42,0,0,0-.55-1.31A1,1,0,0,0,296.56,203.68Z"/><path class="cls-3" d="M241,222.42l-1.48-2.55,19-11a7.46,7.46,0,0,1,7.53,0l8.7,5.11a26.78,26.78,0,0,0,27.06,0l.49-.28a.85.85,0,0,0,.41-.74.83.83,0,0,0-.43-.74l-7-4a1.49,1.49,0,0,1-.54-2h0a1.49,1.49,0,0,1,2-.54l6.82,3.93a4,4,0,0,1,2,3.2,3.77,3.77,0,0,1-1.88,3.47l-.49.28a29.73,29.73,0,0,1-30,0l-8.71-5.11a4.47,4.47,0,0,0-4.54,0Z"/><path class="cls-21" d="M220.56,228.89l3.66,6.42h0l21.45-12.71c.63-.44.9-1.47.48-3a5.65,5.65,0,0,0-1.38-2.39c-1.06-1.09-2.09-1.38-2.79-1.06h0l-21.42,12.69Z"/><path class="cls-10" d="M246,219.77v0a5.59,5.59,0,0,0-1.38-2.39c-1.07-1.1-2.09-1.39-2.79-1.07l-20.34,12.06,2.63,4.62h0l21.45-12.72A1.44,1.44,0,0,0,246,219.77Z"/><path class="cls-3" d="M224.3,235.7l-.31-.06-.09-.15-3.75-6.57.13-.3.1-.05,21.43-12.7c.94-.43,2.14,0,3.24,1.13a6,6,0,0,1,1.47,2.54c.43,1.54.19,2.79-.63,3.36ZM221.06,229l3.3,5.79,21.13-12.53c.53-.36.66-1.34.32-2.54a5.28,5.28,0,0,0-1.29-2.23c-.86-.88-1.77-1.26-2.37-1Z"/><ellipse class="cls-10" cx="222.44" cy="232.07" rx="2.14" ry="3.7" transform="translate(-86.26 142.4) rotate(-30.02)"/><path class="cls-3" d="M223.61,235.83a2.76,2.76,0,0,1-1.35-.41h0a6.13,6.13,0,0,1-2.81-4.86,2,2,0,0,1,3.18-1.83,6.12,6.12,0,0,1,2.8,4.86,2.19,2.19,0,0,1-1,2A1.71,1.71,0,0,1,223.61,235.83Zm-1-1.05a1.5,1.5,0,0,0,1.48.18,1.47,1.47,0,0,0,.58-1.37,5.39,5.39,0,0,0-2.43-4.22,1.51,1.51,0,0,0-1.49-.18,1.49,1.49,0,0,0-.58,1.37,5.39,5.39,0,0,0,2.44,4.22Z"/><rect class="cls-3" x="223.23" y="225.99" width="24.75" height="0.74" transform="translate(-82.31 151.01) rotate(-30.52)"/><path class="cls-22" d="M121.07,204.28v0l-.1-.05h0L99.54,191.49c-1-.43-2.14,0-3.25,1.13-.07.07-.13.16-.2.24L75.66,181l-2.32-2.47a1.47,1.47,0,0,0-1.85-.24l-2,1.26a.82.82,0,0,0,.14,1.46l4.43,1.67L95,194.8l-.13.36c-.43,1.54-.19,2.79.64,3.36l20.89,12.36a1.89,1.89,0,0,0,1.06.26,2.65,2.65,0,0,0,1.35-.41c1.58-.9,3.13-2.73,3.13-4.55A2.25,2.25,0,0,0,121.07,204.28Z"/><path class="cls-23" d="M68.09,177.12l4.74,1.8,1-1.06-2.45-2.6a1.08,1.08,0,0,0-1.38-.18l-2,1.26A.44.44,0,0,0,68.09,177.12Z"/><path class="cls-14" d="M71.31,176.1l-2,1.26a.42.42,0,0,0-.17.5l3.68,1.39,1-1.05L71.71,176A1.14,1.14,0,0,0,71.31,176.1Z"/><path class="cls-3" d="M72.93,179.36l-5-1.88a.82.82,0,0,1-.52-.69.8.8,0,0,1,.38-.77l2-1.26a1.47,1.47,0,0,1,1.85.24l2.7,2.87Zm-4.71-2.59,4.51,1.71.58-.62-2.2-2.35a.73.73,0,0,0-.91-.11l-2,1.26Z"/><path class="cls-3" d="M105.5,198.36,72.33,179.12a1.13,1.13,0,0,1-.41-1.54h0a1.13,1.13,0,0,1,1.54-.41l33.17,19.25A1.11,1.11,0,0,1,107,198h0A1.12,1.12,0,0,1,105.5,198.36Z"/><path class="cls-8" d="M119.09,201l-3.66,6.42h0L94,194.68c-.64-.44-.91-1.48-.49-3a5.65,5.65,0,0,1,1.38-2.39c1.07-1.09,2.09-1.38,2.79-1.06h0L119.09,201Z"/><path class="cls-5" d="M93.66,191.85h0a4.42,4.42,0,0,1,.79-1.72c1.27-1.66,2.56-2.14,3.38-1.76l20.25,12a.11.11,0,0,1,0,.15L115.6,205l-.17.05L94.09,192.34A1.36,1.36,0,0,1,93.66,191.85Z"/><path class="cls-4" d="M98.08,190.46c-.82-.38-2.11.1-3.38,1.76a3.24,3.24,0,0,0-.33.52l21,12.48.17,0,1.85-3.25Z"/><path class="cls-3" d="M93.77,195c-.83-.57-1.07-1.83-.64-3.36a6.13,6.13,0,0,1,1.47-2.54c1.11-1.14,2.3-1.57,3.25-1.13l21.42,12.7.1,0,.13.3-3.75,6.57-.09.15-.31.06Zm3.73-6.38c-.6-.27-1.51.1-2.37,1a5.39,5.39,0,0,0-1.29,2.23c-.33,1.2-.2,2.18.32,2.54l21.13,12.53,3.3-5.79Z"/><path class="cls-10" d="M117.21,207.18a5.8,5.8,0,0,0,2.62-4.54c0-1.67-1.17-2.35-2.62-1.51a5.76,5.76,0,0,0-2.62,4.54C114.59,207.34,115.76,208,117.21,207.18Z"/><path class="cls-3" d="M115.17,207.68a2.19,2.19,0,0,1-1-2,6.1,6.1,0,0,1,2.81-4.86,2,2,0,0,1,3.17,1.83,6.1,6.1,0,0,1-2.81,4.86h0a2.76,2.76,0,0,1-1.35.41A1.74,1.74,0,0,1,115.17,207.68Zm1.86-.82a5.4,5.4,0,0,0,2.43-4.22,1.49,1.49,0,0,0-.58-1.37,1.47,1.47,0,0,0-1.48.18,5.37,5.37,0,0,0-2.44,4.22,1.24,1.24,0,0,0,2.07,1.19Z"/><rect class="cls-3" x="103.68" y="186.06" width="0.74" height="24.75" transform="matrix(0.51, -0.86, 0.86, 0.51, -119.74, 187.27)"/><path class="cls-24" d="M49,167.28l4.07-3.91.05,0a2.73,2.73,0,0,1,1.29-1.66L108,131.17a2.75,2.75,0,0,1,2.72,4.78l-53.6,30.52a2.72,2.72,0,0,1-1.86.3l-.19.16-5.29,1.68a.8.8,0,0,1-.8-1.33Z"/><path class="cls-8" d="M55.06,158.26l53.6-30.52a2.75,2.75,0,0,1,3.75,1h0a2.76,2.76,0,0,1-1,3.76L57.78,163A2.75,2.75,0,0,1,54,162h0A2.75,2.75,0,0,1,55.06,158.26Z"/><path class="cls-13" d="M54.48,160l53.6-30.52a2.76,2.76,0,0,1,3.76,1h0c.75,1.32-.52,2.17-1.84,2.92L57.2,163.23c-1.32.75-2.93,1.09-3.68-.23h0C52.76,161.68,53.16,160.78,54.48,160Z"/><path class="cls-3" d="M56.42,163.81a3.46,3.46,0,0,1-.84-.11,3.16,3.16,0,0,1-2.21-3.88,3.11,3.11,0,0,1,1.49-1.91l53.6-30.52a3.14,3.14,0,0,1,2.4-.3,3.1,3.1,0,0,1,1.9,1.48,3.15,3.15,0,0,1-1.18,4.31L58,163.4A3.19,3.19,0,0,1,56.42,163.81Zm53.6-36a2.27,2.27,0,0,0-1.16.31l-53.6,30.51a2.35,2.35,0,0,0-.88,3.2,2.28,2.28,0,0,0,1.42,1.1,2.31,2.31,0,0,0,1.78-.22l53.6-30.52a2.36,2.36,0,0,0,1.1-1.41,2.34,2.34,0,0,0-1.64-2.88A2.27,2.27,0,0,0,110,127.79Z"/><rect class="cls-23" x="83.46" y="133.77" width="24.72" height="2.44" rx="1.11" transform="translate(245.88 204.89) rotate(150.35)"/><rect class="cls-25" x="83.63" y="134.78" width="24.72" height="2.44" rx="1.11" transform="matrix(-0.87, 0.49, -0.49, -0.87, 246.7, 206.69)"/><path class="cls-3" d="M86.1,142.17a1.39,1.39,0,0,1-.4-.06,1.49,1.49,0,0,1-.92-.71l-.11-.19a1.49,1.49,0,0,1-.14-1.15,1.53,1.53,0,0,1,.71-.92L104.79,128a1.52,1.52,0,0,1,1.16-.14,1.47,1.47,0,0,1,.91.71l.11.19a1.52,1.52,0,0,1-.57,2.07L86.85,142A1.53,1.53,0,0,1,86.1,142.17Zm19.44-13.54a.67.67,0,0,0-.34.09L85.65,139.85a.66.66,0,0,0-.33.43.7.7,0,0,0,.06.53l.11.19a.7.7,0,0,0,.42.33.72.72,0,0,0,.54-.07L106,130.13a.7.7,0,0,0,.26-1l-.1-.19a.75.75,0,0,0-.43-.33Z"/><path class="cls-21" d="M55.73,163.5l.45-.37a2,2,0,0,0,.35-2.65h0a2,2,0,0,0-2.19-.74l-.63.2-4.06,3.91a.79.79,0,0,0-.14,1h0a.77.77,0,0,0,.93.36Z"/><path class="cls-17" d="M54.37,161a2,2,0,0,1,2.2.74,1.46,1.46,0,0,1,.17.3,2,2,0,0,1-.64,1l-.44.36-5.29,1.69a.85.85,0,0,1-.59-.05l4-3.82Z"/><path class="cls-3" d="M50.2,165.63a1.23,1.23,0,0,1-1.05-.61,1.21,1.21,0,0,1,.21-1.46l4.13-4,.72-.22a2.37,2.37,0,0,1,2.66.88,2.39,2.39,0,0,1-.43,3.21l-.58.44-5.3,1.68A1.09,1.09,0,0,1,50.2,165.63Zm3.72-5.33-4,3.84a.39.39,0,0,0-.07.48.4.4,0,0,0,.46.18l5.21-1.66.39-.32a1.56,1.56,0,0,0-1.46-2.69Z"/><polygon class="cls-3" points="56.77 162.08 112.97 130.05 112.57 129.35 56.74 161.16 56.77 162.08"/><path class="cls-24" d="M150.71,190.2l-11.35,6.55a5.52,5.52,0,0,1-5-.2l-10.63-6.14c-1.47-.85-1.63-2.13-.36-2.87l4.86-2.8c4.85-2.8,13.33-2.45,18.93.78l3.15,1.82C151.82,188.19,152,189.47,150.71,190.2Z"/><path class="cls-17" d="M150.16,185.48v-5.32a.08.08,0,0,0-.07-.07l-9.85-.15h0a22.53,22.53,0,0,0-9.38-.14h0l-5-.07h-4.63a.07.07,0,0,0-.07.07v5.38c-.07.6.34,1.25,1.2,1.75L133,193.07a5.49,5.49,0,0,0,4.95.2l11.35-6.55A1.47,1.47,0,0,0,150.16,185.48Z"/><path class="cls-12" d="M136.93,187.89l-5.76-8.32-.33.06h0l-5-.08h-4.63a.08.08,0,0,0-.07.07V185c-.07.6.34,1.25,1.2,1.74L133,192.89a5.84,5.84,0,0,0,4,.56,1,1,0,0,0,0-.17V188A.1.1,0,0,0,136.93,187.89Z"/><path class="cls-3" d="M135.8,194.14a6.23,6.23,0,0,1-3-.75l-10.63-6.14a2.3,2.3,0,0,1-1.39-2.11V179.8a.44.44,0,0,1,.44-.44h4.63l5,.07a22.81,22.81,0,0,1,9.47.15l9.78.14a.44.44,0,0,1,.43.44v5.32a1.83,1.83,0,0,1-1,1.56l-11.34,6.55A4.73,4.73,0,0,1,135.8,194.14Zm-14.27-14v5.09c-.06.51.33,1,1,1.43l10.63,6.14a5.18,5.18,0,0,0,4.59.2l11.35-6.55a1.15,1.15,0,0,0,.67-.92v-5l-9.64-.15a22.27,22.27,0,0,0-9.22-.14h-.1l-5-.08Z"/><path class="cls-19" d="M149.3,181.27,138,187.82a5.53,5.53,0,0,1-4.95-.2l-10.64-6.14c-1.46-.85-1.62-2.13-.35-2.87l4.86-2.8c4.85-2.8,13.33-2.45,18.93.78l3.15,1.82C150.41,179.26,150.57,180.54,149.3,181.27Z"/><path class="cls-3" d="M135.8,188.69a6.23,6.23,0,0,1-3-.75l-10.63-6.15a2.38,2.38,0,0,1-1.4-1.93,1.85,1.85,0,0,1,1-1.57l4.86-2.8c4.95-2.86,13.61-2.51,19.3.78l3.15,1.82a2.39,2.39,0,0,1,1.4,1.94,1.82,1.82,0,0,1-1.05,1.56l-11.34,6.55A4.73,4.73,0,0,1,135.8,188.69Zm-.71-14.41a16.39,16.39,0,0,0-8,1.85l-4.86,2.8a1.15,1.15,0,0,0-.67.93c0,.44.37.92,1,1.3l10.63,6.14a5.21,5.21,0,0,0,4.59.2L149.12,181a1.17,1.17,0,0,0,.67-.92c0-.45-.38-.92-1-1.3l-3.15-1.82A21.61,21.61,0,0,0,135.09,174.28Z"/><path class="cls-2" d="M140.88,177.24c2.89,1.67,2.89,4.37,0,6a11.55,11.55,0,0,1-10.46,0c-2.89-1.67-2.89-4.37,0-6A11.61,11.61,0,0,1,140.88,177.24Z"/><path class="cls-3" d="M135.65,184.89a11.07,11.07,0,0,1-5.41-1.29,3.55,3.55,0,0,1,0-6.68,12,12,0,0,1,10.83,0h0a3.55,3.55,0,0,1,0,6.68A11.11,11.11,0,0,1,135.65,184.89Zm0-8.53a10.35,10.35,0,0,0-5,1.2,2.83,2.83,0,0,0,0,5.4,11.14,11.14,0,0,0,10.09,0,2.83,2.83,0,0,0,0-5.4h0A10.36,10.36,0,0,0,135.65,176.36Z"/><path class="cls-6" d="M132.53,178.05a11.31,11.31,0,0,1,6.24,0c2.26.65,3.62,1.74,4.09,2.93,0,0,.08,0,.09,0,.51-1.76-.89-3.66-4.2-4.6a11.23,11.23,0,0,0-6.19,0c-3.31.94-4.71,2.84-4.2,4.6,0,0,.07,0,.09,0C128.92,179.78,130.28,178.69,132.53,178.05Z"/><path class="cls-3" d="M142.9,181.37a.41.41,0,0,1-.38-.26c-.46-1.16-1.86-2.14-3.85-2.71a11,11,0,0,0-6,0c-2,.57-3.38,1.55-3.84,2.71l-.1.24-.31,0a.42.42,0,0,1-.37-.3,2.93,2.93,0,0,1,.28-2.29,6.72,6.72,0,0,1,4.17-2.77,11.76,11.76,0,0,1,6.39,0,6.72,6.72,0,0,1,4.17,2.77,2.89,2.89,0,0,1,.28,2.29l-.07.25-.3.05Zm-7.25-4.13a11.7,11.7,0,0,1,3.22.45,7.34,7.34,0,0,1,3.78,2.21,2.37,2.37,0,0,0-.27-.77,6.05,6.05,0,0,0-3.73-2.41,11.08,11.08,0,0,0-6,0,6,6,0,0,0-3.72,2.41,2.4,2.4,0,0,0-.28.77,7.35,7.35,0,0,1,3.77-2.21h0A11.81,11.81,0,0,1,135.65,177.24Z"/><path class="cls-5" d="M134.53,188.59l-.38-.21a.55.55,0,0,0-.32,0l-2.52,0a.08.08,0,0,0-.08.11l2.25,5.88a.09.09,0,0,0,.13,0l1.22-.68a.55.55,0,0,0,.21-.45v-3.65A1.26,1.26,0,0,0,134.53,188.59Z"/><path class="cls-3" d="M133.64,194.77l-.23-.05a.51.51,0,0,1-.27-.27l-2.25-5.88a.48.48,0,0,1,.05-.42.52.52,0,0,1,.38-.19l2.48,0a.83.83,0,0,1,.53.08l.38.22a1.57,1.57,0,0,1,.7,1.3v3.65a.93.93,0,0,1-.34.73h0c-.16.12-.49.3-1.19.69Zm-1.91-6.07,2,5.18.9-.5a.2.2,0,0,0,.06-.15v-3.65a.9.9,0,0,0-.33-.67l-.37-.21h-.15Z"/><path class="cls-2" d="M133.05,194.48l-1.63-1a1.21,1.21,0,0,1-.52-1v-3.69c0-.38.23-.55.52-.39l1.63,1a1.26,1.26,0,0,1,.51,1v3.68C133.56,194.47,133.33,194.64,133.05,194.48Z"/><path class="cls-3" d="M133.25,194.91a.82.82,0,0,1-.39-.11h0l-1.63-1a1.57,1.57,0,0,1-.69-1.29v-3.69a.81.81,0,0,1,.37-.73.7.7,0,0,1,.7,0l1.65,1.05a1.59,1.59,0,0,1,.68,1.3v3.68a.82.82,0,0,1-.36.74A.72.72,0,0,1,133.25,194.91Zm-2-6.18v3.73a.88.88,0,0,0,.33.66l1.59,1v-3.73a.87.87,0,0,0-.33-.67Z"/><path class="cls-10" d="M149.17,184.61a1.68,1.68,0,0,1-.77,1.33c-.42.25-.77.05-.77-.44a1.7,1.7,0,0,1,.77-1.33C148.83,183.92,149.17,184.12,149.17,184.61Z"/><path class="cls-3" d="M148.06,186.42a.8.8,0,0,1-.38-.1.91.91,0,0,1-.41-.82,2.06,2.06,0,0,1,.95-1.65.89.89,0,0,1,.91-.06.91.91,0,0,1,.41.82,2.07,2.07,0,0,1-.95,1.65A1,1,0,0,1,148.06,186.42Zm.69-2a.31.31,0,0,0-.16.06,1.34,1.34,0,0,0-.59,1,.26.26,0,0,0,.05.18.41.41,0,0,0,.17-.06,1.33,1.33,0,0,0,.58-1,.28.28,0,0,0,0-.18Z"/><path class="cls-3" d="M154.27,190.74a7.05,7.05,0,0,1-3.36-.81A5.09,5.09,0,0,1,148,185l.73.09a4.31,4.31,0,0,0,2.49,4.18c2.16,1.17,4.92.69,5.7,0,.21-.17.67-.61.53-1.06-.08-.25-.57-1.08-3.52-1.32a5.15,5.15,0,0,1-3.68-1.46,2.06,2.06,0,0,1-.5-1.46l.73.09a1.34,1.34,0,0,0,.36.92c.37.45,1.22,1,3.14,1.17,3,.25,3.95,1.14,4.17,1.84a1.74,1.74,0,0,1-.76,1.85A5.33,5.33,0,0,1,154.27,190.74Z"/><rect class="cls-3" x="139.94" y="176.94" width="0.74" height="1.67"/><rect class="cls-3" x="129.04" y="177.97" width="0.74" height="1.67"/><ellipse class="cls-10" cx="116.47" cy="72.27" rx="32.66" ry="18.85"/><path class="cls-10" d="M143.05,17.55H84.59V68.13h0c0,4.32,2.86,8.64,8.57,11.94,11.41,6.59,29.92,6.59,41.33,0,5.71-3.3,8.57-7.62,8.56-11.94h0Z"/><path class="cls-26" d="M113.82,85.45c-7.56,0-15.13-1.66-20.89-5s-8.79-7.65-8.79-12.33v-51h59.37v51c0,4.68-3.12,9.06-8.79,12.33S121.39,85.45,113.82,85.45ZM85.05,18V68.13c0,4.34,3,8.44,8.34,11.54,11.27,6.5,29.6,6.5,40.87,0,5.38-3.1,8.34-7.2,8.34-11.54V18Z"/><rect class="cls-26" x="87.88" y="25.84" width="0.92" height="50.53"/><rect class="cls-26" x="136.58" y="27.8" width="0.92" height="50.59"/><rect class="cls-26" x="133.68" y="29.66" width="0.92" height="50.59"/><rect class="cls-26" x="126.88" y="32.61" width="0.92" height="50.59"/><path class="cls-27" d="M94.63,28.68a14.71,14.71,0,0,0,3.73,5.56,23.35,23.35,0,0,0,3.81,2.89C104,38.19,105.71,39.85,105,42c-1.34,4,3.9,4.45,2.91,0-.89-4,.84-5.31,3.25-5.12s3.28,4.49,2.1,9.29-.16,7.08,2.32,7,2.8-4.71,1.7-7.71-.45-9.58,3.54-8.46c2.14.6,5.52,3.24,7.64-1.61a15,15,0,0,1,5-5.86L94.24,27.67Z"/><path class="cls-16" d="M106.94,41.15c.72-2.16-1-3.82-2.81-4.88a23.85,23.85,0,0,1-3.82-2.89,14.71,14.71,0,0,1-3.73-5.56v0l-2.33-.11.39,1a14.71,14.71,0,0,0,3.73,5.56,23.35,23.35,0,0,0,3.81,2.89C104,38.21,105.71,39.87,105,42c-1.06,3.16,2,4.09,2.81,2.18C107,43.89,106.38,42.84,106.94,41.15Z"/><path class="cls-16" d="M122.76,36.15a2.44,2.44,0,0,0-2.71.76,3.07,3.07,0,0,1,.76.12c1.74.49,4.31,2.33,6.35.36C125.6,37.49,124,36.49,122.76,36.15Z"/><path class="cls-16" d="M115.21,45.32c1.18-4.8.3-9.1-2.11-9.29a3.2,3.2,0,0,0-2.76.88,5.47,5.47,0,0,1,.81,0c2.41.19,3.28,4.49,2.1,9.29s-.16,7.08,2.32,7a1.86,1.86,0,0,0,1.51-.89C114.93,52.11,114.1,49.83,115.21,45.32Z"/><path class="cls-26" d="M115.45,53.64a2.88,2.88,0,0,1-2.32-1c-1-1.22-1.09-3.43-.32-6.56s.63-6.46-.43-7.93a1.75,1.75,0,0,0-1.27-.79,2.84,2.84,0,0,0-2.39.73c-.64.73-.76,2.06-.37,3.83.5,2.26-.49,3.16-.93,3.44a2,2,0,0,1-2.24-.13,2.92,2.92,0,0,1-.63-3.36c.51-1.53-.37-3-2.61-4.34A24,24,0,0,1,98,34.58a15.4,15.4,0,0,1-3.84-5.74l-.64-1.66,41.28,2-1.18.77a14.65,14.65,0,0,0-4.79,5.66c-1.92,4.39-5,3.15-7,2.32a11.76,11.76,0,0,0-1.21-.45,2,2,0,0,0-2.2.55c-1.38,1.5-1.56,5.23-.79,7.32s1,5.48-.22,7.21a2.34,2.34,0,0,1-1.89,1.11Zm-4.74-17.22a3.7,3.7,0,0,1,.47,0,2.6,2.6,0,0,1,1.94,1.16c1.23,1.7,1.46,5.11.58,8.69s-.4,5.08.15,5.76a1.9,1.9,0,0,0,1.71.67,1.39,1.39,0,0,0,1.16-.7c.88-1.31.93-4.17.12-6.39s-.8-6.32,1-8.25a2.91,2.91,0,0,1,3.12-.81,11.78,11.78,0,0,1,1.3.48c2.08.85,4.23,1.73,5.79-1.84a15,15,0,0,1,4.09-5.27l-37.2-1.78.14.36a14.31,14.31,0,0,0,3.61,5.39,23.15,23.15,0,0,0,3.74,2.83c2.63,1.57,3.67,3.45,3,5.42a2.09,2.09,0,0,0,.32,2.34,1,1,0,0,0,1.19.07c.59-.37.78-1.29.52-2.46-.46-2.1-.27-3.66.58-4.63A3.39,3.39,0,0,1,110.71,36.42Z"/><ellipse class="cls-28" cx="113.82" cy="17.55" rx="29.23" ry="16.88"/><path class="cls-26" d="M113.82,35.09c-7.61,0-15.22-1.67-21-5s-8.9-7.77-8.9-12.53S87.07,8.33,92.81,5c11.59-6.69,30.44-6.69,42,0h0c5.74,3.31,8.9,7.76,8.9,12.53s-3.16,9.21-8.9,12.53S121.43,35.09,113.82,35.09Zm0-33.73C106.46,1.36,99.1,3,93.5,6.21c-5.3,3.06-8.22,7.09-8.22,11.34s2.92,8.27,8.22,11.33c11.21,6.47,29.44,6.47,40.65,0,5.3-3.06,8.22-7.08,8.22-11.33s-2.92-8.28-8.22-11.34C128.55,3,121.18,1.36,113.82,1.36Z"/><ellipse class="cls-21" cx="113.82" cy="17.55" rx="24.31" ry="14.03"/><path class="cls-10" d="M102,15.17c-5.49,3.16-7.79,7.46-6.95,11.59.5.35,1,.68,1.6,1,9.49,5.48,24.88,5.48,34.37,0,5.48-3.16,7.79-7.46,7-11.59-.5-.35-1-.69-1.6-1C126.84,9.69,111.45,9.69,102,15.17Z"/><path class="cls-26" d="M113.82,32c-6.3,0-12.61-1.39-17.41-4.16s-7.35-6.4-7.35-10.32S91.67,10,96.41,7.23c9.6-5.55,25.23-5.55,34.83,0,4.74,2.73,7.35,6.4,7.35,10.32s-2.61,7.58-7.35,10.32S120.13,32,113.82,32Zm0-28.06c-6.14,0-12.28,1.35-16.95,4C92.42,10.59,90,14,90,17.55s2.44,7,6.89,9.52c9.35,5.4,24.56,5.4,33.91,0,4.45-2.56,6.89-5.95,6.89-9.52s-2.44-7-6.89-9.53C126.11,5.32,120,4,113.82,4Z"/><path class="cls-8" d="M131,18.46c-9.49-5.48-24.88-5.48-34.37,0A16.73,16.73,0,0,0,91.4,23a16.71,16.71,0,0,0,5.24,4.5c9.49,5.48,24.88,5.48,34.37,0a16.71,16.71,0,0,0,5.24-4.5A16.73,16.73,0,0,0,131,18.46Z"/><path class="cls-27" d="M99.25,21.76a16.86,16.86,0,0,0-5,4.21,19.55,19.55,0,0,0,2.37,1.59C106.1,33,121.49,33,131,27.56a16.8,16.8,0,0,0,5-4.22,20.76,20.76,0,0,0-2.37-1.58C124.14,16.28,108.75,16.28,99.25,21.76Z"/><path class="cls-26" d="M113.82,32c-6.3,0-12.61-1.39-17.41-4.16A17,17,0,0,1,91,23.24l-.2-.27.2-.27a17.15,17.15,0,0,1,5.38-4.64c9.6-5.54,25.23-5.54,34.83,0a17.15,17.15,0,0,1,5.38,4.64l.2.27-.2.27a17,17,0,0,1-5.38,4.63C126.44,30.64,120.13,32,113.82,32ZM92,23a16.34,16.34,0,0,0,4.9,4.1c9.35,5.4,24.56,5.4,33.91,0a16.34,16.34,0,0,0,4.9-4.1,16.51,16.51,0,0,0-4.9-4.11c-9.35-5.4-24.56-5.4-33.91,0A16.51,16.51,0,0,0,92,23Z"/><path class="cls-21" d="M96.64,10.61c9.49-5.48,24.88-5.48,34.37,0,4,2.32,6.34,5.26,7,8.29a0,0,0,0,0,.06,0c.67-4-1.66-8.19-7-11.28-9.49-5.48-24.88-5.48-34.37,0-5.35,3.09-7.68,7.25-7,11.28,0,0,.05,0,.05,0C90.3,15.87,92.61,12.93,96.64,10.61Z"/><path class="cls-26" d="M137.61,19.39l-.1-.4c-.61-3-2.93-5.8-6.73-8-9.35-5.4-24.56-5.4-33.91,0-3.8,2.18-6.12,5-6.74,8l-.07.38h-.79l-.09-.4c-.73-4.39,1.9-8.67,7.23-11.74,9.6-5.55,25.23-5.55,34.83,0,5.33,3.07,8,7.35,7.23,11.75l-.06.37ZM113.82,4c-6.14,0-12.28,1.35-16.95,4-4,2.29-6.35,5.26-6.81,8.4a15.44,15.44,0,0,1,6.35-6.21h0c9.6-5.54,25.23-5.54,34.83,0a15.48,15.48,0,0,1,6.35,6.2c-.46-3.13-2.84-6.1-6.81-8.39C126.11,5.32,120,4,113.82,4Z"/><ellipse class="cls-17" cx="86.13" cy="100.78" rx="22.3" ry="12.88"/><path class="cls-17" d="M102.46,81.41H65.18V97.89h0c0,2.76,1.82,5.51,5.46,7.61,7.28,4.2,19.08,4.2,26.36,0,3.64-2.1,5.46-4.85,5.46-7.61h0Z"/><path class="cls-3" d="M83.82,109a27.27,27.27,0,0,1-13.36-3.19c-3.64-2.1-5.65-4.92-5.65-7.93V81h38V97.89c0,3-2,5.83-5.65,7.93A27.27,27.27,0,0,1,83.82,109ZM65.55,81.78V97.89c0,2.74,1.87,5.33,5.27,7.29,7.17,4.14,18.83,4.14,26,0,3.4-2,5.27-4.55,5.27-7.29V81.78Z"/><rect class="cls-3" x="67.2" y="86.69" width="0.74" height="16.45"/><rect class="cls-3" x="98.25" y="87.94" width="0.74" height="16.49"/><rect class="cls-3" x="96.41" y="89.13" width="0.74" height="16.49"/><rect class="cls-3" x="92.07" y="91.01" width="0.74" height="16.49"/><path class="cls-27" d="M96.06,88.51a9.39,9.39,0,0,1-2.38,3.54,14.61,14.61,0,0,1-2.43,1.85c-1.13.67-2.25,1.73-1.79,3.11.85,2.56-2.49,2.84-1.86,0,.56-2.55-.54-3.39-2.07-3.27s-2.1,2.87-1.35,5.93.11,4.51-1.47,4.46-1.79-3-1.09-4.91.29-6.12-2.26-5.4c-1.36.38-3.51,2.06-4.87-1a9.58,9.58,0,0,0-3.16-3.74l25-1.19Z"/><path class="cls-8" d="M75.82,92.66A9.55,9.55,0,0,0,73,89.13l-1.63.08A9.58,9.58,0,0,1,74.49,93c1,2.21,2.34,2,3.55,1.53C77.23,94.48,76.44,94.08,75.82,92.66Z"/><path class="cls-8" d="M83,99.08c.7-1.91.29-6.11-2.26-5.4l-.63.23c1.92.18,2.2,3.75,1.56,5.46-.7,1.91-.5,4.87,1.09,4.92A1.69,1.69,0,0,0,83.8,104C82.44,103.63,82.29,100.89,83,99.08Z"/><path class="cls-8" d="M88.93,96.87c.56-2.54-.54-3.38-2.08-3.26a1.29,1.29,0,0,0-.72.3c1.2.14,2,1.06,1.47,3.25s1.17,2.48,1.77,1.57C89,98.47,88.71,97.86,88.93,96.87Z"/><path class="cls-3" d="M82.78,104.5h-.09a1.58,1.58,0,0,1-1.27-.74c-.75-1.12-.66-3.26-.14-4.67s.37-3.65-.49-4.59a1.23,1.23,0,0,0-1.33-.33c-.22.07-.48.17-.76.29-1.31.53-3.29,1.34-4.54-1.52a9.38,9.38,0,0,0-3-3.58l-.95-.62,26.67-1.27-.44,1.17a9.9,9.9,0,0,1-2.48,3.69,15.5,15.5,0,0,1-2.49,1.88c-1.4.84-2,1.74-1.63,2.68a2,2,0,0,1-.43,2.23,1.31,1.31,0,0,1-1.51.08,2,2,0,0,1-.63-2.27A2.81,2.81,0,0,0,87,94.55a1.68,1.68,0,0,0-1.46-.44,1.06,1.06,0,0,0-.76.47c-.66.92-.77,2.93-.26,5s.42,3.45-.22,4.24A1.88,1.88,0,0,1,82.78,104.5ZM79.92,93.37a1.87,1.87,0,0,1,1.41.63c1.15,1.25,1.15,4,.64,5.34a5.23,5.23,0,0,0,.07,4,.81.81,0,0,0,.68.42,1.18,1.18,0,0,0,1-.4c.47-.59.5-1.87.08-3.6-.57-2.31-.42-4.51.37-5.61a1.78,1.78,0,0,1,1.3-.77,2.32,2.32,0,0,1,2.07.69,3.38,3.38,0,0,1,.39,3c-.16.71,0,1.27.3,1.49a.59.59,0,0,0,.67,0c.32-.26.39-.78.18-1.42-.31-.9-.21-2.25,2-3.54a14.68,14.68,0,0,0,2.37-1.8,9.08,9.08,0,0,0,2.29-3.41l.34.14-.34-.14,0-.11L72.35,89.37a9.58,9.58,0,0,1,2.48,3.27c1,2.21,2.24,1.69,3.59,1.13.3-.12.58-.23.84-.31A2.61,2.61,0,0,1,79.92,93.37Z"/><path class="cls-29" d="M97,73.8c7.28,4.2,7.28,11,0,15.22s-19.08,4.2-26.36,0-7.28-11,0-15.22S89.72,69.6,97,73.8Z"/><path class="cls-3" d="M83.82,92.71A27.56,27.56,0,0,1,70.36,89.5c-3.7-2.14-5.73-5-5.73-8.09s2-6,5.73-8.09c7.42-4.29,19.5-4.28,26.92,0,3.7,2.13,5.73,5,5.73,8.09s-2,6-5.73,8.09A27.56,27.56,0,0,1,83.82,92.71Zm0-21.51a26.29,26.29,0,0,0-12.9,3.08c-3.35,1.93-5.19,4.46-5.19,7.13s1.84,5.2,5.19,7.13c7.11,4.11,18.69,4.11,25.8,0,3.35-1.93,5.19-4.46,5.19-7.13s-1.84-5.2-5.19-7.13A26.29,26.29,0,0,0,83.82,71.2Z"/><ellipse class="cls-10" cx="83.82" cy="81.41" rx="15.5" ry="8.95"/><path class="cls-3" d="M83.82,90.72a22.8,22.8,0,0,1-11.14-2.66C69.63,86.3,68,83.94,68,81.41s1.68-4.89,4.73-6.65c6.14-3.55,16.14-3.55,22.28,0,3.05,1.76,4.73,4.12,4.73,6.65S98,86.3,95,88.06A22.8,22.8,0,0,1,83.82,90.72Zm0-17.89A22,22,0,0,0,73,75.4c-2.8,1.62-4.35,3.75-4.35,6s1.55,4.39,4.35,6c5.94,3.43,15.61,3.43,21.56,0,2.8-1.63,4.35-3.76,4.35-6S97.4,77,94.6,75.4A22,22,0,0,0,83.82,72.83Z"/><path class="cls-27" d="M85.74,81.78a1.17,1.17,0,0,1,0,2.22,4.26,4.26,0,0,1-3.84,0,1.17,1.17,0,0,1,0-2.22A4.26,4.26,0,0,1,85.74,81.78Z"/><path class="cls-3" d="M83.82,83.35a4.31,4.31,0,0,1-2.11-.51,1.72,1.72,0,0,1-1-1.43,1.69,1.69,0,0,1,1-1.43,4.62,4.62,0,0,1,4.22,0,1.69,1.69,0,0,1,1,1.43,1.72,1.72,0,0,1-1,1.43A4.33,4.33,0,0,1,83.82,83.35Zm0-3.14a3.61,3.61,0,0,0-1.74.41,1,1,0,0,0-.61.79c0,.28.22.56.61.79a3.94,3.94,0,0,0,3.48,0c.38-.23.61-.51.61-.79a1,1,0,0,0-.61-.79A3.61,3.61,0,0,0,83.82,80.21Z"/><path class="cls-30" d="M72.86,77c6-3.49,15.87-3.49,21.92,0,2.57,1.49,4,3.36,4.43,5.29a0,0,0,0,0,0,0c.42-2.57-1.06-5.22-4.47-7.19-6-3.5-15.87-3.5-21.92,0-3.41,2-4.89,4.62-4.47,7.19a0,0,0,0,0,0,0C68.82,80.34,70.29,78.47,72.86,77Z"/><path class="cls-3" d="M68.4,82.65h-.3L68,82.33c-.47-2.83,1.22-5.59,4.65-7.57,6.14-3.55,16.14-3.55,22.28,0,3.43,2,5.12,4.74,4.65,7.57l0,.31h-.63l-.08-.31c-.38-1.91-1.86-3.65-4.25-5C88.65,73.87,79,73.87,73,77.3h0c-2.39,1.39-3.87,3.13-4.25,5l-.06.31ZM83.82,74A22.8,22.8,0,0,1,95,76.66a10.26,10.26,0,0,1,3.84,3.56c-.44-1.8-1.9-3.49-4.2-4.82C88.65,72,79,72,73,75.4c-2.3,1.33-3.75,3-4.2,4.81a10.4,10.4,0,0,1,3.84-3.55h0A22.8,22.8,0,0,1,83.82,74Z"/><path class="cls-31" d="M174.23,91.26l42.33-24.68a3.4,3.4,0,0,1,3.43,0l76.59,44.71a1.15,1.15,0,0,1,0,2L254.24,138a3.4,3.4,0,0,1-3.43,0L174.22,93.25A1.15,1.15,0,0,1,174.23,91.26Z"/><path class="cls-10" d="M206.9,19,197.34,9.3l.87-1.51a.18.18,0,0,0-.07-.25l-6-3.47A1,1,0,0,0,192,4h0c-1.32-.68-3.5.74-4.62,3.17L172.86,38.68A18.1,18.1,0,0,0,171.09,46V85.47a1.77,1.77,0,0,0,.5,1.36l0,0a.92.92,0,0,0,.29.17l6.37,3.65a.23.23,0,0,0,.34-.14l2-7.93,25.7-14.84a5.11,5.11,0,0,0,2.31-4V24.33A7.4,7.4,0,0,0,206.9,19Z"/><path class="cls-28" d="M208.26,21.9l-9.56-9.73.87-1.51a.18.18,0,0,0-.07-.25l-6-3.47a1,1,0,0,0-.17-.1h0c-1.32-.68-3.5.74-4.62,3.17L174.22,41.56A20,20,0,0,0,172.76,46l1.33.78,18.47,11-9.86.36a7.46,7.46,0,0,1,1.77,5.3V84.07l23.26-13.43a5.11,5.11,0,0,0,2.31-4V27.2A7.4,7.4,0,0,0,208.26,21.9Z"/><path class="cls-26" d="M178.42,91.18a.73.73,0,0,1-.35-.09l-6.38-3.66a1.19,1.19,0,0,1-.35-.2,2.19,2.19,0,0,1-.72-1.76V46a18.35,18.35,0,0,1,1.82-7.54L187,6.94a6.42,6.42,0,0,1,3.38-3.44,2.36,2.36,0,0,1,1.87,0l.23.14,5.94,3.45a.66.66,0,0,1,.24.88l-.69,1.2,9.31,9.48a7.84,7.84,0,0,1,1.91,5.63V63.77a5.56,5.56,0,0,1-2.55,4.41L181.08,82.92l-2,7.74a.7.7,0,0,1-.4.47A.86.86,0,0,1,178.42,91.18ZM191.26,4.27a1.89,1.89,0,0,0-.61.11,5.58,5.58,0,0,0-2.84,3L173.29,38.88A17.31,17.31,0,0,0,171.56,46V85.47a1.35,1.35,0,0,0,.34,1,.65.65,0,0,0,.19.11l6.18,3.53,2-7.82,25.86-14.93a4.66,4.66,0,0,0,2.08-3.6V24.33a7,7,0,0,0-1.64-5l-9.81-10,.9-1.57-5.72-3.32-.16-.1A1.16,1.16,0,0,0,191.26,4.27Z"/><path class="cls-32" d="M193.85,10.88,179.33,42.43a18,18,0,0,0-1.77,7.34V89.21c0,1.48,1,2.07,2.31,1.34l33-19a5.1,5.1,0,0,0,2.32-4V28.07a7.4,7.4,0,0,0-1.78-5.3L198.85,8C197.62,6.73,195.08,8.2,193.85,10.88Z"/><path class="cls-26" d="M178.83,91.33a1.59,1.59,0,0,1-.83-.22,2.05,2.05,0,0,1-.91-1.9V49.77a18.35,18.35,0,0,1,1.82-7.54l14.52-31.55a6,6,0,0,1,3.87-3.57,2.07,2.07,0,0,1,1.89.55l14.52,14.78a7.88,7.88,0,0,1,1.9,5.63V67.51a5.55,5.55,0,0,1-2.54,4.41l-33,19A2.6,2.6,0,0,1,178.83,91.33ZM197.74,8a1.33,1.33,0,0,0-.28,0,5.23,5.23,0,0,0-3.19,3L179.75,42.62A17.47,17.47,0,0,0,178,49.77V89.21a1.19,1.19,0,0,0,.45,1.09,1.17,1.17,0,0,0,1.16-.16l33-19a4.66,4.66,0,0,0,2.08-3.6V28.07a7,7,0,0,0-1.64-5L198.52,8.32A1.06,1.06,0,0,0,197.74,8Z"/><path class="cls-28" d="M177.57,55.38l37.57-21.81h0L282,72.48v0L244.39,94.31h0L177.57,55.39S177.56,55.38,177.57,55.38Z"/><path class="cls-26" d="M244.37,94.86l-.25-.16-67-39v-.55l.24-.14L215.16,33l.25.16,67,39v.56l-.25.14ZM178.49,55.38l65.89,38.39L281,72.49,215.15,34.1Z"/><polygon class="cls-10" points="184.39 55.53 215.62 37.4 275.61 72.59 244.38 90.72 184.39 55.53"/><path class="cls-26" d="M244.38,91.26,183.47,55.53l32.15-18.67,60.91,35.73ZM185.32,55.53l59.06,34.64,30.3-17.58L215.62,38Z"/><path class="cls-32" d="M215.62,37.42V73.83a0,0,0,0,1,0,0l-31.2-18.3s0,0,0,0l31.2-18.11A0,0,0,0,1,215.62,37.42Z"/><path class="cls-26" d="M215.6,74.38l-.25-.15L183.94,55.81v-.55l.24-.14,31.43-18.25.47.27v37ZM185.32,55.53,215.15,73V38.22Z"/><ellipse class="cls-21" cx="217.54" cy="84.64" rx="16.83" ry="30.53" transform="translate(110.19 291.92) rotate(-83.88)"/><ellipse class="cls-10" cx="213.77" cy="80.72" rx="15.45" ry="28.04" transform="translate(110.71 284.66) rotate(-83.88)"/><path class="cls-3" d="M217.45,96.72a48.34,48.34,0,0,1-19.58-4c-7.31-3.32-11.81-8.1-12.34-13.1-.38-3.62,1.33-6.94,5-9.62,8.78-6.49,26.35-7,39.17-1.21C237,72.07,241.47,76.85,242,81.85c.38,3.62-1.33,6.94-5,9.62C232.34,95,225.12,96.72,217.45,96.72Zm-7.39-31.29c-7.5,0-14.56,1.72-19.14,5.11-3.42,2.52-5,5.63-4.68,9,.5,4.75,4.85,9.31,11.92,12.52,12.62,5.73,29.87,5.22,38.46-1.13,3.41-2.52,5-5.63,4.67-9-.5-4.75-4.84-9.31-11.92-12.52h0A47.63,47.63,0,0,0,210.06,65.43Z"/><path class="cls-30" d="M230.33,69.25l6.29,10.26s4.18,2.67,3.76,7.56C243.83,81.17,240.06,74,230.33,69.25Z"/><path class="cls-3" d="M239.89,88.62,240,87c.39-4.6-3.57-7.21-3.61-7.23l-.11-.12L229.38,68.4l1.1.53c5.89,2.86,9.83,6.71,11.09,10.86a9.14,9.14,0,0,1-.88,7.46Zm-3-9.37a9.22,9.22,0,0,1,3.85,6.28,8.47,8.47,0,0,0,.16-5.54c-1.12-3.68-4.51-7.15-9.6-9.85Z"/><path class="cls-30" d="M189.84,86.88a10.87,10.87,0,0,1,0-12c1.29-2,1.24-3.52.57-4.65C184.21,75,184.34,81.47,189.84,86.88Z"/><path class="cls-3" d="M189.59,87.13c-3-2.89-4.4-6.09-4.19-9.24.18-3,1.85-5.7,4.8-7.94l.32-.25.2.35c.85,1.42.66,3.11-.56,5a10.4,10.4,0,0,0,0,11.6Zm.7-16.35a9.31,9.31,0,0,0-2,13.79,11,11,0,0,1,1.26-9.88C190.51,73.19,190.76,71.88,190.29,70.78Z"/><path class="cls-10" d="M236.21,76.54h0S230.58,53.89,211,52.83c-18.82-1-23.6,21.89-23.6,21.89h0c-1.25,4.86,2.44,10.17,10.36,13.62,11.21,4.89,26.64,4.16,34.45-1.61C236.22,83.79,237.45,80.1,236.21,76.54Z"/><path class="cls-13" d="M212.88,81.86c4-3,5.22-6.64,4-10.2h0S214,60.08,205.18,53.09c-14,3.33-17.81,21.4-17.81,21.4h0c-1.09,4.24,1.58,8.83,7.54,12.22C201.89,86.7,208.55,85.06,212.88,81.86Z"/><path class="cls-3" d="M214.2,91.94a42.26,42.26,0,0,1-16.57-3.26C189.86,85.3,185.82,80,187,74.82l0-.17c0-.23,5.06-23.22,24-22.18,19.6,1.07,25.47,23.75,25.53,24v0c1.3,3.81-.2,7.65-4.13,10.55C228.06,90.27,221.29,91.94,214.2,91.94ZM187.87,74.37h0l-.11.45c-1.26,4.87,2.63,9.93,10.15,13.2,11.09,4.83,26.39,4.13,34.1-1.57,3.72-2.75,5.09-6.23,3.85-9.79l-.16-.48h0c-.92-3.15-7.18-22-24.74-23C194.09,52.28,188.65,71.25,187.87,74.37Z"/><path class="cls-33" d="M230.71,65.73c-5.38-12-12.46-17.44-19.81-16.55A10.06,10.06,0,0,0,208,50l-6.77,3.39-.13,1,6.59-.69,7.84,4.47,3.1,5.55,5.25,7.14,2.8,13.7,1.16,6.29.07,0,6.47-4.45a1.36,1.36,0,0,0,.59-1C235.14,83.2,235.19,75.72,230.71,65.73Z"/><path class="cls-3" d="M228,91.33l-.36-.15-.1-.22-1.16-6.3-2.79-13.61L218.37,64l-3.08-5.49-7.65-4.37-6.93.72.22-1.68,6.94-3.47a10.27,10.27,0,0,1,3-.86c7.73-.94,14.91,5,20.18,16.77h0c4.54,10.12,4.45,17.75,4.32,19.85a1.73,1.73,0,0,1-.75,1.32Zm-20.18-38,8,4.58L219,63.59l5.29,7.24,2.8,13.7,1.07,5.83,6.08-4.19a1,1,0,0,0,.44-.77c.13-2.06.21-9.55-4.27-19.52-5.13-11.44-12-17.24-19.44-16.35a9.34,9.34,0,0,0-2.76.8l-6.59,3.29-.05.4Z"/><path class="cls-10" d="M226.76,77.94l-1.15,1.24,1.11,5.42,1.15,6.29.07,0,6.47-4.45a1.4,1.4,0,0,0,.6-1,38,38,0,0,0-1.55-12.1Z"/><path class="cls-3" d="M228,91.33l-.35-.15-.11-.22-1.16-6.3-1.14-5.59,1.33-1.43,7.12-4.9.14.49a37.87,37.87,0,0,1,1.55,12.21,1.7,1.7,0,0,1-.74,1.32Zm-2-12,1.08,5.24,1.07,5.83,6.07-4.19a1,1,0,0,0,.44-.77,36.86,36.86,0,0,0-1.4-11.5L227,78.21Z"/><path class="cls-30" d="M195.82,58.75s10.37-10.91,20.73,3.2,9.07,28,9.07,28l2.2,1a0,0,0,0,0,.07,0c.09-.83,1-10.25-4.12-21.7-5.38-12-12.46-17.44-19.81-16.55-8.43,1-13.32,13.39-13.32,13.39A33.93,33.93,0,0,1,195.82,58.75Z"/><path class="cls-3" d="M227.84,91.3a.53.53,0,0,1-.17,0l-2.43-1.08,0-.25c0-.14,1.15-14-9-27.77-3.26-4.44-6.84-6.82-10.65-7.06-5.43-.33-9.49,3.85-9.53,3.89h0A34,34,0,0,0,191,66.2l-.65-.29c.2-.52,5.06-12.59,13.61-13.62,7.74-.94,14.91,5,20.18,16.76,5.14,11.46,4.26,20.86,4.14,21.89l0,.18-.18.12A.36.36,0,0,1,227.84,91.3ZM226,89.74l1.58.69a44.64,44.64,0,0,0-4.12-21.08C218.32,57.91,211.41,52.11,204,53c-3.54.43-6.46,3-8.63,5.68l.18-.18c.19-.2,4.34-4.47,10.1-4.11,4,.25,7.78,2.72,11.17,7.34A45.73,45.73,0,0,1,226,89.74Z"/><rect class="cls-3" x="225.27" y="72.42" width="8.03" height="0.72" transform="translate(-1.09 142.04) rotate(-34.34)"/><rect class="cls-3" x="205.7" y="50.48" width="7.92" height="0.71" transform="translate(-1.18 96.56) rotate(-25.87)"/><path class="cls-2" d="M248.89,21.5l-4.27-3.17a.2.2,0,0,0-.2,0l-16.73,9.53h0l-3.59,1.55a3,3,0,0,0-1.29,1.21.1.1,0,0,1-.06.05L218.66,33l-.06,0-.84,1.13a.18.18,0,0,0,0,.25l4.37,3.25.06,0a1,1,0,0,0,.89-.05l20-8.64a6.86,6.86,0,0,0,2.29-1.7l3-3.19c.81-.87,1-2,.63-2.5Z"/><path class="cls-3" d="M248.92,24.05l-.28.33-3,3.19a7.37,7.37,0,0,1-2.42,1.79l-20,8.64a1.34,1.34,0,0,1-1.21,0L222,38l-4.37-3.25a.54.54,0,0,1-.11-.77l.84-1.13a.44.44,0,0,1,.17-.16l4-2.29a3.38,3.38,0,0,1,1.42-1.31l3.6-1.55L244.24,18a.55.55,0,0,1,.6,0l4.3,3.19.14.15A2.31,2.31,0,0,1,248.92,24.05ZM222.35,37.36h0c.13.06.25.1.6,0l20-8.64a6.51,6.51,0,0,0,2.17-1.61l3-3.19c.75-.8.86-1.72.62-2l-.08-.08L244.5,18.7l-16.62,9.47-3.66,1.58a2.65,2.65,0,0,0-1.11,1.06.61.61,0,0,1-.2.19l-4,2.3-.7,1Z"/><path class="cls-20" d="M244.35,18.27l-8.1,4.62,7.59,5.65a8,8,0,0,0,1.51-1.26l3-3.2c.8-.87,1-2,.63-2.5l-.12-.13-4.27-3.16A.18.18,0,0,0,244.35,18.27Z"/><path class="cls-3" d="M248.85,24a2.78,2.78,0,0,1-.27.33l-3,3.2A8.59,8.59,0,0,1,244,28.85l-.21.13-8.25-6.13,8.59-4.9a.55.55,0,0,1,.6,0L249,21.16l.17.17A2.28,2.28,0,0,1,248.85,24Zm-5,4.08A7.54,7.54,0,0,0,245.08,27l3-3.19c.74-.8.85-1.71.61-2l-.1-.11-4.12-3.05-7.5,4.28Z"/><path class="cls-20" d="M218.85,32.89l-.2.11-.05,0-.84,1.13a.18.18,0,0,0,0,.26l4.37,3.25.07,0a.93.93,0,0,0,.88-.06l1.37-.59Z"/><path class="cls-3" d="M225.21,37.16l-2,.84a1.32,1.32,0,0,1-1.21,0l-.11,0-4.37-3.25a.57.57,0,0,1-.11-.78l.84-1.13a.61.61,0,0,1,.17-.15l.41-.23Zm-2.87.2h0c.13.07.25.11.6,0l.78-.34-4.9-3.65-.68.92Z"/><path class="cls-6" d="M239.61,17.45l-20,8.64a3.22,3.22,0,0,0-1.72,2.31l-.57,4.94c-.11.92.49,1.36,1.33,1l20-8.64A7,7,0,0,0,241,24l3-3.19c1-1,1.12-2.46.32-2.73l-2.5-.84A3,3,0,0,0,239.61,17.45Z"/><path class="cls-2" d="M244.76,18.23l-.19-.06a3,3,0,0,0-2.12.21l-20,8.64a3.17,3.17,0,0,0-1.72,2.31l-.49,4.19,18.55-8a7,7,0,0,0,2.3-1.7l3-3.19A2.35,2.35,0,0,0,244.76,18.23Z"/><path class="cls-3" d="M244.45,20.73c-.09.12-.18.22-.27.33l-3,3.19A7.48,7.48,0,0,1,238.8,26l-20,8.63a1.36,1.36,0,0,1-1.39-.06A1.33,1.33,0,0,1,217,33.3l.57-4.94a3.6,3.6,0,0,1,1.94-2.61l20-8.63a3.36,3.36,0,0,1,2.39-.23l2.49.84a1.08,1.08,0,0,1,.72.81A2.78,2.78,0,0,1,244.45,20.73Zm-25.68,6.53a2.58,2.58,0,0,0-.51,1.19l-.58,4.94a.68.68,0,0,0,.17.63.65.65,0,0,0,.65,0l20-8.64a6.72,6.72,0,0,0,2.17-1.61l3-3.19a2.33,2.33,0,0,0,.71-1.84.37.37,0,0,0-.24-.29l-2.49-.84a2.67,2.67,0,0,0-1.86.2l-20,8.64A2.58,2.58,0,0,0,218.77,27.26Z"/><path class="cls-31" d="M235,30.48a3,3,0,0,0-2.66-.42L229,31.5a.78.78,0,0,0-.53.61l0,.23L222.49,83s0,.07.06.06l7-.89s0,0,.05,0l5.84-49.89.09-.76A1,1,0,0,0,235,30.48Z"/><path class="cls-16" d="M233.82,32.87l.09-.76c0-.33.29-1.75-.15-2.07s-1.76.46-2.44.52l-2.32,1a.78.78,0,0,0-.53.6l0,.23-5.92,50.67a.06.06,0,0,0,.06.06l5.44-.69Z"/><path class="cls-3" d="M229.92,82.45l-.34.09-7.16.91-.17-.14a.43.43,0,0,1-.13-.34l6-50.92a1.16,1.16,0,0,1,.75-.88l3.34-1.45a3.34,3.34,0,0,1,3,.47,1.41,1.41,0,0,1,.69,1.32l-.09.77Zm-7,.2,6.35-.81,5.91-50.42c0-.09,0-.32-.4-.64a2.64,2.64,0,0,0-2.29-.38l-3.34,1.44c-.13.06-.29.16-.32.32l0,.23Z"/><path class="cls-8" d="M229,82.89l-3.34,1.44a3,3,0,0,1-2.66-.42h0c-.74-.55-.75-1.25,0-1.56l3.35-1.45a3,3,0,0,1,2.66.43h0C229.76,81.87,229.77,82.58,229,82.89Z"/><path class="cls-3" d="M229.75,82.8a1.35,1.35,0,0,1-.57.43l-3.34,1.44a3.32,3.32,0,0,1-3-.46,1.46,1.46,0,0,1-.7-1.29,1.12,1.12,0,0,1,.76-.91l3.34-1.44a3.35,3.35,0,0,1,3,.46,1.49,1.49,0,0,1,.7,1.29A1,1,0,0,1,229.75,82.8Zm-.86-.25c.11,0,.3-.15.32-.32a.8.8,0,0,0-.4-.61,2.66,2.66,0,0,0-2.3-.38l-3.34,1.45c-.11,0-.3.15-.32.32s.14.4.41.61a2.64,2.64,0,0,0,2.29.38Z"/><rect class="cls-3" x="205.42" y="55.11" width="51.18" height="0.74" transform="translate(149.65 278.69) rotate(-83.48)"/><path class="cls-13" d="M260.9,40.12,219.79,94.93a.77.77,0,0,1-.64.24l-8.05-1c-.23,0-.32-.18-.2-.34L252,39.05a.76.76,0,0,1,.64-.24l8,1C260.93,39.81,261,40,260.9,40.12Z"/><path class="cls-31" d="M219.73,94.79,260,41.1l-6.72-.81a.76.76,0,0,0-.64.24L212.37,94.22l6.72.81A.77.77,0,0,0,219.73,94.79Z"/><path class="cls-14" d="M254.38,48.57l5.5-7.33-6.71-.81a.76.76,0,0,0-.64.24l-5.23,7Z"/><path class="cls-15" d="M256.9,45.23,260,41.1l-6.72-.81a.76.76,0,0,0-.64.24l-2.85,3.8Z"/><path class="cls-14" d="M224,81.4l-1.83-.22-8.77,11.7,6.71.81a.76.76,0,0,0,.64-.24L229.36,82Z"/><path class="cls-3" d="M219.69,95.45a1.1,1.1,0,0,1-.59.09l-8-1a.63.63,0,0,1-.54-.36.58.58,0,0,1,.08-.58l41.11-54.8a1.11,1.11,0,0,1,1-.39l8.05,1a.63.63,0,0,1,.54.36.58.58,0,0,1-.08.58h0l-41.11,54.8A1,1,0,0,1,219.69,95.45Zm-8.32-1.6,7.82,1a.44.44,0,0,0,.3-.1l40.93-54.57-7.82-1a.43.43,0,0,0-.29.1Z"/><path class="cls-16" d="M223.09,82.55l-1.82-.21L212.49,94l6.72.8a.76.76,0,0,0,.64-.24l8.59-11.45Z"/><rect class="cls-3" x="217.91" y="89.68" width="0.56" height="6.04" transform="translate(100.04 298.22) rotate(-83.12)"/><rect class="cls-3" x="223.5" y="84.14" width="0.56" height="4.47" transform="translate(111.23 298.2) rotate(-83.12)"/><rect class="cls-3" x="222.22" y="85.84" width="0.56" height="4.47" transform="translate(108.43 298.44) rotate(-83.13)"/><rect class="cls-3" x="219.84" y="89.02" width="0.56" height="4.47" transform="translate(103.15 298.86) rotate(-83.12)"/><rect class="cls-3" x="221.03" y="87.43" width="0.56" height="4.47" transform="translate(105.8 298.65) rotate(-83.13)"/><rect class="cls-3" x="227.16" y="79.25" width="0.56" height="4.47" transform="translate(119.32 297.54) rotate(-83.13)"/><rect class="cls-3" x="225.89" y="80.95" width="0.56" height="4.47" transform="translate(116.49 297.77) rotate(-83.12)"/><rect class="cls-3" x="224.69" y="82.54" width="0.56" height="4.47" transform="translate(113.86 297.98) rotate(-83.12)"/><rect class="cls-3" x="233.05" y="71.41" width="0.56" height="4.47" transform="translate(132.27 296.48) rotate(-83.12)"/><rect class="cls-3" x="231.77" y="73.11" width="0.56" height="4.47" transform="translate(129.46 296.71) rotate(-83.13)"/><rect class="cls-3" x="229.38" y="76.3" width="0.56" height="4.47" transform="translate(124.21 297.15) rotate(-83.13)"/><rect class="cls-3" x="230.57" y="74.71" width="0.56" height="4.47" transform="translate(126.84 296.93) rotate(-83.13)"/><rect class="cls-3" x="236.71" y="66.53" width="0.56" height="4.47" transform="translate(140.4 295.84) rotate(-83.14)"/><rect class="cls-3" x="235.43" y="68.23" width="0.56" height="4.47" transform="translate(137.54 296.05) rotate(-83.13)"/><rect class="cls-3" x="234.24" y="69.82" width="0.56" height="4.47" transform="translate(134.9 296.26) rotate(-83.12)"/><rect class="cls-3" x="242.56" y="58.72" width="0.56" height="4.47" transform="translate(153.24 294.76) rotate(-83.12)"/><rect class="cls-3" x="241.28" y="60.43" width="0.56" height="4.47" transform="translate(150.44 295) rotate(-83.13)"/><rect class="cls-3" x="238.9" y="63.61" width="0.56" height="4.47" transform="translate(145.18 295.43) rotate(-83.13)"/><rect class="cls-3" x="240.09" y="62.02" width="0.56" height="4.47" transform="translate(147.81 295.21) rotate(-83.13)"/><rect class="cls-3" x="246.23" y="53.84" width="0.56" height="4.47" transform="translate(161.34 294.11) rotate(-83.13)"/><rect class="cls-3" x="244.95" y="55.54" width="0.56" height="4.47" transform="translate(158.52 294.33) rotate(-83.13)"/><rect class="cls-3" x="243.75" y="57.13" width="0.56" height="4.47" transform="translate(155.89 294.55) rotate(-83.13)"/><rect class="cls-3" x="252.19" y="45.89" width="0.56" height="4.47" transform="translate(174.48 293.02) rotate(-83.13)"/><rect class="cls-3" x="250.91" y="47.59" width="0.56" height="4.47" transform="translate(171.64 293.25) rotate(-83.12)"/><rect class="cls-3" x="248.53" y="50.77" width="0.56" height="4.47" transform="translate(166.38 293.68) rotate(-83.12)"/><rect class="cls-3" x="249.72" y="49.18" width="0.56" height="4.47" transform="translate(169.01 293.46) rotate(-83.12)"/><rect class="cls-3" x="255.86" y="41" width="0.56" height="4.47" transform="translate(182.56 292.36) rotate(-83.13)"/><rect class="cls-3" x="254.58" y="42.71" width="0.56" height="4.47" transform="translate(179.72 292.59) rotate(-83.12)"/><rect class="cls-3" x="253.38" y="44.3" width="0.56" height="4.47" transform="translate(177.11 292.81) rotate(-83.13)"/><rect class="cls-3" x="237.06" y="64.15" width="0.56" height="6.04" transform="translate(142.25 294.76) rotate(-83.12)"/><rect class="cls-3" x="227.54" y="76.84" width="0.56" height="6.04" transform="translate(121.27 296.49) rotate(-83.13)"/><rect class="cls-3" x="246.69" y="51.31" width="0.56" height="6.04" transform="translate(163.47 293.02) rotate(-83.12)"/><rect class="cls-3" x="256.21" y="38.62" width="0.56" height="6.04" transform="translate(184.47 291.31) rotate(-83.13)"/><path class="cls-10" d="M268.25,70.39,273,61.76,200,19.24h0a2.45,2.45,0,0,0-2.48.23,7.72,7.72,0,0,0-3.48,6,2.48,2.48,0,0,0,.9,2.15l.2.14Z"/><path class="cls-28" d="M200.68,21.29h0a2.42,2.42,0,0,0-2.48.23,6.63,6.63,0,0,0-1.81,1.64l70.39,41-2,3.64,3.63,2.11,3.82-7Z"/><path class="cls-26" d="M268.43,71l-.42-.24L194.92,28.21l-.23-.15a3,3,0,0,1-1.11-2.55,8.09,8.09,0,0,1,3.72-6.44,3.1,3.1,0,0,1,2.54-.42l0,0,.39.22,73.36,42.75ZM199.08,19.47a2.67,2.67,0,0,0-1.32.41,7.19,7.19,0,0,0-3.25,5.63,2.07,2.07,0,0,0,.71,1.77l.19.13,72.66,42.33,4.29-7.8-72.2-42.07h0l-.38-.23A1.31,1.31,0,0,0,199.08,19.47Z"/><path class="cls-10" d="M177.56,90.26l67.31,39.22s0,0,0,0l-.5-35.15h0L177.57,55.39h0V90.25Z"/><path class="cls-26" d="M244.88,130l-.24-.13L177.3,90.65l-.21-.14V55.13l.47-.28.24.14,67,39.05v.28l.5,35.42ZM178,90l66.38,38.68-.48-34.09L178,56.2Z"/><path class="cls-28" d="M177.82,55.4l6.59.12,60,35.2v3.59l-66.6-38.79A.07.07,0,0,1,177.82,55.4Z"/><path class="cls-26" d="M244.84,95.12l-67.6-39.38.06-.42a.55.55,0,0,1,.52-.39h0l6.71.13.1.06,60.21,35.33ZM179.36,55.89l64.55,37.6V91L184.28,56Z"/><path class="cls-10" d="M280.1,61.82l-9.56-9.73.87-1.51a.18.18,0,0,0-.07-.25l-6-3.47a1,1,0,0,0-.17-.1h0c-1.32-.68-3.5.74-4.62,3.17L246.06,81.48a18,18,0,0,0-1.77,7.34v39.44a1.76,1.76,0,0,0,.5,1.36l.05,0a.92.92,0,0,0,.29.17l6.37,3.66a.24.24,0,0,0,.34-.14l2-7.94,25.69-14.83a5.13,5.13,0,0,0,2.32-4V67.12A7.42,7.42,0,0,0,280.1,61.82Z"/><path class="cls-28" d="M281.46,64.69,271.9,55l.87-1.51a.18.18,0,0,0-.07-.25l-6-3.47a1,1,0,0,0-.17-.1h0c-1.32-.68-3.5.74-4.62,3.17L247.42,84.35A19.9,19.9,0,0,0,246,88.77l1.33.77,18.47,11-9.86.37a7.42,7.42,0,0,1,1.77,5.29v20.63l23.25-13.42a5.13,5.13,0,0,0,2.32-4V70A7.42,7.42,0,0,0,281.46,64.69Z"/><path class="cls-26" d="M251.62,134a.73.73,0,0,1-.35-.09l-6.38-3.65a1.59,1.59,0,0,1-.35-.21,2.19,2.19,0,0,1-.72-1.76V88.82a18.35,18.35,0,0,1,1.82-7.54l14.52-31.55a6.38,6.38,0,0,1,3.38-3.44,2.31,2.31,0,0,1,1.87.06,1.71,1.71,0,0,1,.23.13l5.94,3.45a.65.65,0,0,1,.23.88l-.68,1.2,9.31,9.48a7.84,7.84,0,0,1,1.91,5.63v39.44A5.54,5.54,0,0,1,279.8,111l-25.53,14.74-2,7.74a.7.7,0,0,1-.4.47A.65.65,0,0,1,251.62,134Zm12.84-86.91a1.89,1.89,0,0,0-.61.11A5.58,5.58,0,0,0,261,50.12L246.49,81.67a17.33,17.33,0,0,0-1.74,7.15v39.44a1.3,1.3,0,0,0,.35,1,.65.65,0,0,0,.19.11l6.18,3.54,2-7.83,25.86-14.93a4.66,4.66,0,0,0,2.08-3.6V67.12a7,7,0,0,0-1.64-5l-9.81-10,.9-1.57-5.72-3.32-.16-.09A1.07,1.07,0,0,0,264.46,47.06Z"/><path class="cls-32" d="M267.05,53.67,252.53,85.22a18,18,0,0,0-1.77,7.34V132c0,1.48,1,2.08,2.31,1.34l33-19a5.13,5.13,0,0,0,2.32-4V70.86a7.42,7.42,0,0,0-1.78-5.3L272.05,50.78C270.82,49.53,268.28,51,267.05,53.67Z"/><path class="cls-26" d="M252,134.12a1.59,1.59,0,0,1-.83-.22,2,2,0,0,1-.91-1.9V92.56A18.49,18.49,0,0,1,252.1,85l14.52-31.55a6.07,6.07,0,0,1,3.88-3.57,2.06,2.06,0,0,1,1.88.55l14.53,14.78a7.9,7.9,0,0,1,1.9,5.63V110.3a5.53,5.53,0,0,1-2.54,4.41l-33,19A2.5,2.5,0,0,1,252,134.12Zm18.91-83.33a1.33,1.33,0,0,0-.28,0,5.23,5.23,0,0,0-3.19,3L253,85.41a17.5,17.5,0,0,0-1.73,7.15V132a1.22,1.22,0,0,0,.45,1.1,1.2,1.2,0,0,0,1.16-.17l33-19a4.66,4.66,0,0,0,2.08-3.6V70.86a7,7,0,0,0-1.64-5L271.72,51.11A1.06,1.06,0,0,0,270.94,50.79Z"/><path class="cls-34" d="M274.19,64.11a7.7,7.7,0,0,1-3.48,6c-1.93,1.11-3.49.21-3.49-2a7.68,7.68,0,0,1,3.49-6C272.63,61,274.19,61.89,274.19,64.11Z"/><path class="cls-17" d="M272.24,63.06a7.68,7.68,0,0,1-3.49,6c-1.92,1.11-3.48.21-3.48-2a7.72,7.72,0,0,1,3.48-6C270.68,59.93,272.24,60.83,272.24,63.06Z"/><path class="cls-26" d="M269.15,71.09a2.23,2.23,0,0,1-1.14-.3,2.89,2.89,0,0,1-1.26-2.66,8.11,8.11,0,0,1,3.72-6.44,2.59,2.59,0,0,1,4.19,2.42,8.14,8.14,0,0,1-3.72,6.44A3.61,3.61,0,0,1,269.15,71.09Zm3.11-9a2.67,2.67,0,0,0-1.32.41,7.19,7.19,0,0,0-3.25,5.63,1.67,1.67,0,0,0,2.78,1.61,7.21,7.21,0,0,0,3.25-5.63,2,2,0,0,0-.79-1.85A1.24,1.24,0,0,0,272.26,62.09Z"/><ellipse class="cls-24" cx="212.37" cy="141.22" rx="22.3" ry="12.88"/><path class="cls-17" d="M228.7,104.08H191.42v34.25h0c0,2.75,1.82,5.51,5.46,7.61,7.28,4.2,19.08,4.2,26.36,0,3.64-2.1,5.46-4.86,5.46-7.61h0Z"/><path class="cls-3" d="M210.06,149.45a27.38,27.38,0,0,1-13.36-3.19c-3.64-2.1-5.65-4.92-5.65-7.93V103.71h38v34.62c0,3-2,5.83-5.65,7.93A27.38,27.38,0,0,1,210.06,149.45Zm-18.27-45v33.89c0,2.74,1.87,5.33,5.27,7.29,7.17,4.14,18.83,4.14,26,0,3.41-2,5.28-4.55,5.28-7.29V104.44Z"/><rect class="cls-3" x="193.44" y="109.36" width="0.74" height="34.22"/><rect class="cls-3" x="224.49" y="110.61" width="0.74" height="34.26"/><rect class="cls-3" x="222.65" y="111.8" width="0.74" height="34.26"/><rect class="cls-3" x="218.31" y="113.68" width="0.74" height="34.26"/><path class="cls-29" d="M223.24,96.47c7.28,4.2,7.28,11,0,15.22s-19.08,4.2-26.36,0-7.28-11,0-15.22S216,92.26,223.24,96.47Z"/><path class="cls-3" d="M210.06,115.38a27.46,27.46,0,0,1-13.46-3.22c-3.7-2.13-5.73-5-5.73-8.08s2-6,5.73-8.09c7.42-4.29,19.5-4.29,26.92,0,3.69,2.13,5.73,5,5.73,8.09s-2,6-5.73,8.08A27.46,27.46,0,0,1,210.06,115.38Zm0-21.52A26.3,26.3,0,0,0,197.16,97c-3.35,1.93-5.19,4.46-5.19,7.13s1.84,5.2,5.19,7.13c7.11,4.1,18.69,4.1,25.8,0,3.34-1.93,5.19-4.47,5.19-7.13S226.3,98.87,223,97A26.3,26.3,0,0,0,210.06,93.86Z"/><path class="cls-25" d="M221,97.75c6,3.49,6,9.16,0,12.65s-15.87,3.5-21.92,0-6-9.16,0-12.65S215,94.25,221,97.75Z"/><path class="cls-3" d="M210.06,113.38a22.75,22.75,0,0,1-11.15-2.66c-3-1.76-4.72-4.12-4.72-6.64s1.68-4.89,4.72-6.65c6.15-3.55,16.15-3.55,22.29,0,3.05,1.76,4.73,4.12,4.73,6.65s-1.68,4.88-4.73,6.64A22.72,22.72,0,0,1,210.06,113.38Zm0-17.89a22,22,0,0,0-10.78,2.58c-2.81,1.62-4.35,3.75-4.35,6s1.54,4.38,4.35,6c5.94,3.43,15.61,3.44,21.56,0,2.8-1.62,4.35-3.75,4.35-6s-1.55-4.39-4.35-6A22,22,0,0,0,210.06,95.49Z"/><path class="cls-13" d="M212,104.45a1.17,1.17,0,0,1,0,2.22,4.26,4.26,0,0,1-3.84,0,1.17,1.17,0,0,1,0-2.22A4.26,4.26,0,0,1,212,104.45Z"/><path class="cls-3" d="M210.06,106a4.21,4.21,0,0,1-2.11-.52,1.53,1.53,0,0,1,0-2.85,4.6,4.6,0,0,1,4.21,0,1.53,1.53,0,0,1,0,2.85A4.17,4.17,0,0,1,210.06,106Zm0-3.14a3.5,3.5,0,0,0-1.74.41,1,1,0,0,0-.61.79,1,1,0,0,0,.61.79,3.94,3.94,0,0,0,3.48,0,1.06,1.06,0,0,0,.61-.79,1,1,0,0,0-.61-.79A3.5,3.5,0,0,0,210.06,102.88Z"/><path class="cls-30" d="M199.1,99.65c6.05-3.49,15.87-3.49,21.92,0,2.57,1.48,4,3.36,4.43,5.29,0,0,0,0,0,0,.43-2.57-1-5.23-4.46-7.19-6.05-3.5-15.87-3.5-21.92,0-3.41,2-4.9,4.62-4.47,7.19a0,0,0,0,0,0,0C195.06,103,196.53,101.13,199.1,99.65Z"/><path class="cls-3" d="M194.64,105.32h-.31l-.06-.32c-.47-2.84,1.22-5.59,4.64-7.57,6.15-3.55,16.15-3.55,22.29,0,3.43,2,5.12,4.73,4.65,7.57l0,.31h-.63l-.08-.31c-.38-1.91-1.86-3.65-4.25-5-6-3.43-15.62-3.43-21.56,0h0c-2.4,1.39-3.87,3.13-4.25,5l-.06.3Zm15.42-8.65a22.8,22.8,0,0,1,11.14,2.66,10.26,10.26,0,0,1,3.84,3.56c-.44-1.8-1.9-3.49-4.2-4.82-6-3.43-15.62-3.43-21.56,0-2.3,1.33-3.75,3-4.2,4.81a10.36,10.36,0,0,1,3.83-3.55h0A22.86,22.86,0,0,1,210.06,96.67Z"/><path class="cls-24" d="M187.23,112.63l-22.59,13.05a2.54,2.54,0,0,1-2.53,0l-22.59-13.05a1.05,1.05,0,0,1,0-1.82l23.33-13.47a1,1,0,0,1,1.05,0l23.33,13.47A1.05,1.05,0,0,1,187.23,112.63Z"/><polygon class="cls-17" points="185.37 102.97 161.6 116.69 137.83 102.97 161.6 89.25 185.37 102.97"/><polygon class="cls-17" points="137.83 102.97 137.83 108.55 161.6 122.27 161.6 116.69 137.83 102.97"/><polygon class="cls-21" points="185.37 102.97 185.37 108.55 161.6 122.27 161.6 116.69 185.37 102.97"/><path class="cls-3" d="M185.71,102.77l-.34-.19L161.6,88.85l-23.77,13.73-.34.19v6l23.77,13.73.34.2.34-.2,23.6-13.63.17-.1v-6ZM161.6,89.64,184.69,103l-10.76,6.21L161.6,116.3,138.51,103Zm-23.43,18.71v-4.79l23.09,13.33v4.79Zm46.86,0-23.09,13.33v-4.79L185,103.56Z"/><path class="cls-17" d="M161.6,89.25l-15,8.64h0a6.93,6.93,0,0,1-7.45-.21c-.43,4.37,4.11,8.1,6,9.46a4.92,4.92,0,0,0,.69.47l15.73,9.08L185.37,103Z"/><path class="cls-13" d="M146,107.61l15.73,9.08,21.36-12.33L161.9,92.12l-15,8.65h0a6.92,6.92,0,0,1-7.15,0c1.16,3,4.1,5.36,5.53,6.39A5.7,5.7,0,0,0,146,107.61Z"/><path class="cls-3" d="M161.6,117.09l-15.9-9.18a5.45,5.45,0,0,1-.74-.51c-2-1.41-6.58-5.22-6.12-9.75l.06-.61.48.37a6.55,6.55,0,0,0,7.07.19l15.15-8.75,23.75,13.72a.47.47,0,0,1,0,.81ZM139.49,98.28c0,3.93,4.07,7.28,5.89,8.58a6.71,6.71,0,0,0,.66.46l15.56,9L184.69,103,161.6,89.64l-14.81,8.55A7.31,7.31,0,0,1,139.49,98.28Z"/><path class="cls-3" d="M164.08,94.52a3.28,3.28,0,0,1-1.63-.4,1.34,1.34,0,0,1-.77-1.14,1.33,1.33,0,0,1,.77-1.13l5.36-3.1a4.62,4.62,0,0,1,4.22,0,1.52,1.52,0,0,1,0,2.83l-3.42,2-.35-.6,3.43-2c.4-.24.63-.53.63-.82a1.07,1.07,0,0,0-.63-.83,4,4,0,0,0-3.53,0l-5.36,3.1c-.28.16-.44.36-.44.54s.16.39.44.55a2.9,2.9,0,0,0,2.57,0l4.8-2.77.35.59-4.81,2.77A3.23,3.23,0,0,1,164.08,94.52Z"/><polygon class="cls-3" points="161.43 118.62 137.66 105.21 138 104.83 161.77 118.24 161.43 118.62"/><polygon class="cls-3" points="161.43 120.79 137.66 107.13 138 106.75 161.77 120.41 161.43 120.79"/><polygon class="cls-3" points="161.77 118.81 161.77 118.21 185.2 104.8 185.18 105.39 161.77 118.81"/><polygon class="cls-3" points="161.77 120.63 161.77 120.03 185.2 106.62 185.18 107.22 161.77 120.63"/><path class="cls-31" d="M194.09,164.43a.6.6,0,0,0-.34-.53.55.55,0,0,0-.17-.13c-2-.85-17.85-7.51-27.1-14.75v-3.16l1.27-.74a1.88,1.88,0,0,0,1.1-1.59v-7.25l2-1.21a2.85,2.85,0,0,0,1.29-2.72,6.74,6.74,0,0,0-.22-1.65l.12-.07a2,2,0,0,0,.91-1.9,4.88,4.88,0,0,0-2.09-3.95l-4.08-2.36a1.6,1.6,0,0,0-1.6-.11l-1.64,1-.72-.41a2.23,2.23,0,0,0-2.24-.17l-2.48,1.49L156,123a5.23,5.23,0,0,0-4.78,0l-5.3,3.06a1.61,1.61,0,0,1-1.42,0,2.35,2.35,0,0,0-2.16,0l-.8.46a5.17,5.17,0,0,0-4.49-.08l-13.66,7.89a2,2,0,0,0-.76.76h-.13v.34a1.57,1.57,0,0,0,0,.3,1.85,1.85,0,0,0,0,.23v1.56l-1.63.94a1,1,0,0,0-.56.84,1,1,0,0,0,.56.84c.12.08.18.15.18.19s-.06.12-.18.2l-22,12.72a2.22,2.22,0,0,0-1.3,1.86,1.36,1.36,0,0,0,0,.2v4.6l-4.16,2.51,0,0h0l-.1.07h0A3.25,3.25,0,0,0,92,165.33a7.66,7.66,0,0,0,.47,2.49l-.33.33a1.81,1.81,0,0,0-.61,1.48,3.39,3.39,0,0,0,0,.55l-8.43,4.66a1.67,1.67,0,0,0,.35,3.07,1.82,1.82,0,0,0,.46.06,1.66,1.66,0,0,0,.81-.21l8.5-4.69q.21.17.42.3a2.22,2.22,0,0,0,1.07.32,1.42,1.42,0,0,0,.54-.12l2.23-.6,4.67,2.7a3,3,0,0,0,1.45.43,2,2,0,0,0,.68-.13l0,0,.28-.17h0l0,0,2.79-1.69,2.18,1.26a6.19,6.19,0,0,0,5.72,0l17.14-9.9a9,9,0,0,0,1.57.16,7.89,7.89,0,0,0,3.91-1l1.94-1.12a5.59,5.59,0,0,1,1.35.53,7.88,7.88,0,0,0,7.11,0l2.08-1.2c1.87,2.93,6.87,9.27,18.57,16.81a11.48,11.48,0,0,0,6.24,1.85,11.68,11.68,0,0,0,5.92-1.62l12.93-7.6Z"/><path class="cls-7" d="M167.68,127.62a7,7,0,0,0-2.9-5.54l-6.23-3.6a1.9,1.9,0,0,0-1.86-.17h0l-5,3s0,0,0,0L161.65,133h0l4.92-3A2.5,2.5,0,0,0,167.68,127.62Z"/><path class="cls-3" d="M161.59,133.48l-.23-.26-10-11.78.06-.36.15-.1,5-3a2.25,2.25,0,0,1,2.24.17l6.23,3.6a7.23,7.23,0,0,1,3.09,5.86,2.87,2.87,0,0,1-1.28,2.72Zm-9.31-12.07,9.46,11.1,4.67-2.82a2.19,2.19,0,0,0,.89-2.07,6.54,6.54,0,0,0-2.71-5.21l-6.23-3.6a1.52,1.52,0,0,0-1.5-.17Z"/><path class="cls-10" d="M118.74,130.72l0,4.87s0,0,0,0l6.59-3.2a0,0,0,0,0,0,0l-2.61-1.67h-3.94A0,0,0,0,0,118.74,130.72Z"/><path class="cls-3" d="M118.71,136l-.38-.22V131l.45-.66h4l.11.06,2.79,1.79v.45l-.21.13Zm.4-5,0,4,5.51-2.68-2-1.28Z"/><path class="cls-3" d="M116.55,139.86l-.38-.22v-5.12l.45-.38h4l.11.07,2.79,1.78v.46l-.21.12Zm.4-5,0,4,5.52-2.68-2-1.28Z"/><path class="cls-35" d="M164.39,126.65l-5.37-.17-2.75,5.39-4.6-2.65a4.85,4.85,0,0,0-4.39,0L142,132.28a2,2,0,0,1-1.79,0,2,2,0,0,0-1.79,0L116.9,144.69c-.49.29-.49.75,0,1a.55.55,0,0,1,0,1l-11.67,6.73-1.82-2.94H93.78l0,12h0a1.86,1.86,0,0,0,1.11,1.54l10.86,6.27a5.91,5.91,0,0,0,5.34,0L130.63,159a7.39,7.39,0,0,1,6.73,0,7.44,7.44,0,0,0,6.72,0l16.56-9.56c1.85-1.07,1.85-2.81,0-3.88s-1.86-2.81,0-3.89l2.84-1.64a1.56,1.56,0,0,0,.91-1.27V126.65Z"/><path class="cls-3" d="M108.4,171.35a5.85,5.85,0,0,1-2.86-.69l-10.86-6.27a2.24,2.24,0,0,1-1.29-1.87V150.18h10.22l1.74,2.81,11.35-6.56c.13-.07.19-.15.19-.19s-.06-.12-.19-.19a1,1,0,0,1-.56-.84,1,1,0,0,1,.56-.84L138.2,132a2.37,2.37,0,0,1,2.17,0,1.62,1.62,0,0,0,1.41,0l5.31-3.07a5.21,5.21,0,0,1,4.77,0l4.25,2.46,2.68-5.26,6,.2V138.8a1.9,1.9,0,0,1-1.1,1.6L160.82,142a1.69,1.69,0,0,0,0,3.23,2.41,2.41,0,0,1,0,4.53l-16.55,9.56a7.86,7.86,0,0,1-7.1,0,7,7,0,0,0-6.35,0l-19.56,11.3A5.87,5.87,0,0,1,108.4,171.35ZM94.15,150.93v11.59a1.53,1.53,0,0,0,.92,1.22L105.91,170a5.51,5.51,0,0,0,5,0l19.56-11.3a7.86,7.86,0,0,1,7.1,0,7.05,7.05,0,0,0,6.36,0l16.55-9.55a1.69,1.69,0,0,0,0-3.24,2.41,2.41,0,0,1,0-4.53l2.84-1.64a1.22,1.22,0,0,0,.72-.95V127l-4.76-.15-2.83,5.53-4.93-2.85a4.57,4.57,0,0,0-4,0l-5.3,3.07a2.37,2.37,0,0,1-2.17,0,1.59,1.59,0,0,0-1.41,0L117.09,145c-.13.07-.18.15-.18.19s0,.12.18.19a.91.91,0,0,1,0,1.68l-12,6.92-1.9-3.07Z"/><polygon class="cls-36" points="162.02 135.28 162.02 147.64 156.26 146.85 162.02 135.28"/><polygon class="cls-3" points="162.4 148.07 156.22 147.22 156.32 146.48 161.65 147.21 161.65 135.28 162.4 135.28 162.4 148.07"/><path class="cls-12" d="M147.28,118.57,142,121.63a2,2,0,0,1-1.79,0h0a2,2,0,0,0-1.79,0L116.9,134a.54.54,0,0,0,0,1h0c.49.29.49.75,0,1l-22,12.72c-1.48.86-1.48,2.24,0,3.09l10.86,6.27a5.91,5.91,0,0,0,5.34,0l19.56-11.3a7.46,7.46,0,0,1,6.73,0h0a7.44,7.44,0,0,0,6.72,0l16.56-9.55c1.85-1.08,1.85-2.82,0-3.89h0c-1.86-1.07-1.86-2.81,0-3.88l2.84-1.64a1.34,1.34,0,0,0,0-2.54l-11.81-6.81A4.85,4.85,0,0,0,147.28,118.57Z"/><path class="cls-3" d="M108.4,159.2a5.85,5.85,0,0,1-2.86-.7l-10.86-6.27a2,2,0,0,1,0-3.73l22-12.72c.13-.07.19-.15.19-.19s-.06-.12-.19-.19a1,1,0,0,1-.56-.84,1,1,0,0,1,.56-.85l21.49-12.4a2.37,2.37,0,0,1,2.17,0,1.66,1.66,0,0,0,1.41,0l5.31-3.07a5.21,5.21,0,0,1,4.77,0l11.8,6.82a1.7,1.7,0,0,1,0,3.18l-2.84,1.64a1.69,1.69,0,0,0,0,3.24,2.41,2.41,0,0,1,0,4.53l-16.55,9.56a7.86,7.86,0,0,1-7.1,0,7,7,0,0,0-6.35,0L111.26,158.5A5.88,5.88,0,0,1,108.4,159.2Zm30.88-37.41a1.45,1.45,0,0,0-.7.17l-21.49,12.4c-.13.08-.18.15-.18.2s0,.11.18.19a1,1,0,0,1,.56.84,1,1,0,0,1-.56.84l-22,12.72a1.26,1.26,0,0,0,0,2.43l10.85,6.27a5.51,5.51,0,0,0,5,0l19.56-11.29a7.86,7.86,0,0,1,7.1,0,7.05,7.05,0,0,0,6.36,0L160.45,137a1.69,1.69,0,0,0,0-3.23,2.42,2.42,0,0,1,0-4.54l2.84-1.64a1,1,0,0,0,0-1.88l-11.8-6.82a4.53,4.53,0,0,0-4,0l-5.3,3.07a2.37,2.37,0,0,1-2.17,0A1.46,1.46,0,0,0,139.28,121.79Z"/><path class="cls-14" d="M143.63,132.88l8.64-5a.88.88,0,0,0,0-1.66L146.66,123a3.14,3.14,0,0,0-2.86,0l-13.7,7.91a.87.87,0,0,0,0,1.65l8.47,4.89a3.16,3.16,0,0,0,2.87,0l2.19-1.26a.88.88,0,0,0,0-1.66h0A.87.87,0,0,1,143.63,132.88Z"/><path class="cls-3" d="M140,138.17a3.35,3.35,0,0,1-1.62-.39l-8.47-4.89a1.25,1.25,0,0,1,0-2.31l13.7-7.91a3.56,3.56,0,0,1,3.24,0l5.61,3.24a1.24,1.24,0,0,1,0,2.3l-8.64,5c-.26.15-.41.33-.41.5s.15.36.41.51a1.24,1.24,0,0,1,0,2.3l-2.2,1.27A3.29,3.29,0,0,1,140,138.17ZM145.23,123a2.58,2.58,0,0,0-1.24.29l-13.7,7.91c-.26.15-.41.33-.41.5s.15.36.41.51l8.47,4.89a2.8,2.8,0,0,0,2.49,0l2.19-1.27c.26-.15.41-.33.41-.5s-.15-.36-.41-.5a1.38,1.38,0,0,1-.78-1.16,1.37,1.37,0,0,1,.78-1.15l8.64-5c.26-.14.41-.33.41-.5s-.15-.35-.41-.5l-5.6-3.24A2.62,2.62,0,0,0,145.23,123Z"/><path class="cls-5" d="M130.1,132.56l.44.26,13.26-7.65a3.14,3.14,0,0,1,2.86,0l5.16,3,.45-.25a.88.88,0,0,0,0-1.66L146.66,123a3.14,3.14,0,0,0-2.86,0l-13.7,7.91A.87.87,0,0,0,130.1,132.56Z"/><path class="cls-3" d="M130.54,133.25l-.63-.36a1.25,1.25,0,0,1,0-2.31l13.7-7.91a3.56,3.56,0,0,1,3.24,0l5.61,3.24a1.24,1.24,0,0,1,0,2.3l-.64.37-5.34-3.09a2.8,2.8,0,0,0-2.49,0ZM145.23,123a2.58,2.58,0,0,0-1.24.29l-13.7,7.91c-.26.15-.41.33-.41.5s.15.36.41.51l.25.15,13.07-7.55a3.5,3.5,0,0,1,3.24,0l5,2.87.26-.15c.26-.14.41-.33.41-.5s-.15-.35-.41-.5l-5.6-3.24A2.62,2.62,0,0,0,145.23,123Z"/><path class="cls-5" d="M143.13,133.37c-.64.37-.48,3,.13,3l.37-.21c.64-.37.75-.92.37-1.36Z"/><path class="cls-3" d="M143.36,136.77h-.1c-.25,0-.59-.15-.78-.86s-.25-2.46.46-2.86l.32-.19,1.06,1.78a1.11,1.11,0,0,1,.26.9,1.45,1.45,0,0,1-.76,1Zm-.21-2.63a3.53,3.53,0,0,0-.05.41,3.44,3.44,0,0,0,.19,1.4l.15-.09a.75.75,0,0,0,.4-.44.41.41,0,0,0-.13-.34Z"/><path class="cls-31" d="M137.42,122.19l-17.67,10.2h0c-1.28-.73-1.41-1.85-.31-2.49L133.1,122a4.79,4.79,0,0,1,4.32.18Z"/><path class="cls-3" d="M119.75,132.83l-.19-.11a2.14,2.14,0,0,1-1.24-1.74,1.63,1.63,0,0,1,.93-1.4l13.67-7.89a5.13,5.13,0,0,1,4.69.18l.56.32ZM135,122a3.39,3.39,0,0,0-1.68.38l-13.66,7.89a.92.92,0,0,0-.56.75,1.29,1.29,0,0,0,.69,1l16.84-9.72A5,5,0,0,0,135,122Z"/><path class="cls-7" d="M138.41,150.28l-5.1,3.5-3.47.73L125.78,153l-.7-.28-1,.28a.08.08,0,0,0-.06.08v5.28l2.27,1.29a8.14,8.14,0,0,0,7.44,0l6.62-3.82v-5.24a.07.07,0,0,0-.1-.07Z"/><path class="cls-3" d="M130,160.91a8,8,0,0,1-3.91-.95l-2.46-1.4v-5.5a.47.47,0,0,1,.34-.45l1.16-.3.82.33,4,1.48,3.29-.69,5.15-3.54,1.84.22.1,0,.23.11a.46.46,0,0,1,.2.38V156L133.87,160A8,8,0,0,1,130,160.91Zm-5.62-2.79,2.08,1.18a7.74,7.74,0,0,0,7.07,0l6.43-3.72v-4.75l-1.43-.17-5.11,3.48-3.58.75-4.76-1.8-.7.18Z"/><path class="cls-16" d="M130,155.18a7.59,7.59,0,0,1-3.72-.9L124,153s0,0,0,0l1.49-.86h0L127,153a6.57,6.57,0,0,0,5.92,0l4.75-2.75h0l2.54.23a0,0,0,0,1,0,0l-6.56,3.79A7.61,7.61,0,0,1,130,155.18Z"/><path class="cls-3" d="M130,155.56a7.89,7.89,0,0,1-3.91-1l-2.43-1.37v-.45l.2-.13,1.68-1,.21.1,1.48.86a6.23,6.23,0,0,0,5.55,0l4.87-2.81.15,0,2.8.25.12.57-6.81,3.93A7.85,7.85,0,0,1,130,155.56ZM124.73,153l1.7,1a7.74,7.74,0,0,0,7.07,0l5.59-3.24-1.32-.12-4.66,2.69a6.94,6.94,0,0,1-6.29,0l-1.31-.75Z"/><path class="cls-22" d="M158.19,147.56l-6.28,3.63h0l-6.17-3h0v8.06h0s3.36,8.05,19.4,18.4a11.25,11.25,0,0,0,11.78.22l12.74-7.5v-7.67a.22.22,0,0,0-.19-.22c-2.22-.3-23.5-3.39-31.24-11.93Z"/><path class="cls-3" d="M171.17,176.83a11.51,11.51,0,0,1-6.25-1.85c-16.1-10.38-19.52-18.49-19.55-18.57l0-.15V148l.38-.23.19.11,6,2.9,6.38-3.67.2.19c7.64,8.44,28.65,11.51,31,11.83a.6.6,0,0,1,.52.59v7.89l-12.92,7.6A11.74,11.74,0,0,1,171.17,176.83Zm-25.08-20.65c.36.78,4.21,8.47,19.24,18.17a10.8,10.8,0,0,0,11.38.2l12.55-7.38v-7.33c-2.94-.4-23.3-3.49-31.12-11.81L152,151.57l-.27,0-5.65-2.74Z"/><path class="cls-8" d="M145.72,148.19c.05.13,3.46,8.13,19.45,18.43a11.22,11.22,0,0,0,11.7.26l12.5-7.21a.16.16,0,0,0,0-.28c-2.71-1.12-23.43-9.88-31.15-18.4h0l-12.47,7.2Z"/><path class="cls-3" d="M171.22,168.78a11.52,11.52,0,0,1-6.25-1.84c-16-10.32-19.46-18.27-19.6-18.6l-.06-.15.13-.29.15-.06,12.71-7.34.2.26c7.67,8.47,28.63,17.3,31,18.28a.53.53,0,0,1,.07,1l-12.5,7.22A11.66,11.66,0,0,1,171.22,168.78Zm-25-20.44c.78,1.54,5,8.87,19.17,18a10.81,10.81,0,0,0,11.3.25l12.12-7c-3.73-1.56-23.06-9.92-30.67-18.1Z"/><path class="cls-3" d="M174.07,160.18a5.32,5.32,0,0,1-2.64-.67l-4.5-2.6a2.59,2.59,0,0,1-1.47-2.18,2.2,2.2,0,0,1,1.21-1.9l.25-.15a5.21,5.21,0,0,1,4.82.15l4.5,2.6a2.61,2.61,0,0,1,1.47,2.18,2.2,2.2,0,0,1-1.21,1.9l-.25.15A4.42,4.42,0,0,1,174.07,160.18Zm-6.27-5.4a1.39,1.39,0,0,0,.26.18l4.49,2.6a3,3,0,0,0,2.57.15l.25-.14a1.08,1.08,0,0,0-.26-.19l-4.49-2.59a3,3,0,0,0-2.57-.16Z"/><path class="cls-37" d="M154.64,133.66a.81.81,0,0,0,0-.22V132a.18.18,0,0,0-.23-.17l-7.59,2.36a.17.17,0,0,0-.12.17v1.72a.88.88,0,0,0,.52.72,2.36,2.36,0,0,0,2.13.08l4.93-2.84a.74.74,0,0,0,.36-.42Z"/><path class="cls-3" d="M148.42,137.51a2.87,2.87,0,0,1-1.39-.35,1.21,1.21,0,0,1-.7-1V134.4a.54.54,0,0,1,.39-.53l7.58-2.35a.51.51,0,0,1,.49.08.54.54,0,0,1,.22.44v1.4a.62.62,0,0,1,0,.3h0a1,1,0,0,1-.53.66l-4.93,2.85A2.32,2.32,0,0,1,148.42,137.51Zm-1.34-3v1.57c0,.1.08.25.33.39a2,2,0,0,0,1.76.09l4.92-2.85a.31.31,0,0,0,.18-.18v-1.26Z"/><path class="cls-4" d="M154.28,132.23l-4.93,2.84a2.33,2.33,0,0,1-2.13-.09h0c-.63-.36-.7-.91-.15-1.23L152,130.9a2.42,2.42,0,0,1,2.14.09h0C154.76,131.36,154.83,131.91,154.28,132.23Z"/><path class="cls-3" d="M148.42,135.66a2.87,2.87,0,0,1-1.39-.35,1.25,1.25,0,0,1-.71-1,1,1,0,0,1,.56-.87l4.92-2.84a2.78,2.78,0,0,1,2.52.09,1.24,1.24,0,0,1,.71,1,1,1,0,0,1-.56.86l-4.93,2.85A2.32,2.32,0,0,1,148.42,135.66Zm4.5-4.59a1.5,1.5,0,0,0-.74.16l-4.93,2.84c-.05,0-.18.12-.18.22s.09.23.34.37a2.07,2.07,0,0,0,1.76.09l4.92-2.85c.06,0,.19-.11.19-.21s-.09-.23-.34-.37A2.06,2.06,0,0,0,152.92,131.07Z"/><path class="cls-37" d="M107.61,147.92a.38.38,0,0,0,0-.21v-1.4a.17.17,0,0,0-.22-.17L99.8,148.5a.17.17,0,0,0-.12.16v1.73a.84.84,0,0,0,.51.71,2.36,2.36,0,0,0,2.14.09l4.93-2.85a.64.64,0,0,0,.35-.42Z"/><path class="cls-3" d="M101.4,151.78a2.87,2.87,0,0,1-1.39-.35,1.24,1.24,0,0,1-.71-1.05v-1.72a.55.55,0,0,1,.39-.52l7.59-2.36a.57.57,0,0,1,.49.08.59.59,0,0,1,.22.45v1.36a1,1,0,0,1,0,.34,1.05,1.05,0,0,1-.53.66l-4.93,2.84A2.26,2.26,0,0,1,101.4,151.78Zm-1.35-3v1.58c0,.09.09.24.33.39a2,2,0,0,0,1.76.08l4.93-2.84a.38.38,0,0,0,.18-.18h0a.18.18,0,0,0,0-.05v-1.2Z"/><path class="cls-4" d="M107.26,146.49l-4.93,2.85a2.42,2.42,0,0,1-2.14-.09h0c-.63-.37-.7-.92-.15-1.23l4.93-2.85a2.33,2.33,0,0,1,2.13.09h0C107.74,145.62,107.81,146.18,107.26,146.49Z"/><path class="cls-3" d="M101.4,149.92a2.76,2.76,0,0,1-1.39-.35,1.22,1.22,0,0,1-.71-1,1,1,0,0,1,.55-.86l4.93-2.84a2.72,2.72,0,0,1,2.51.08,1.25,1.25,0,0,1,.71,1,1,1,0,0,1-.55.86l-4.93,2.84A2.26,2.26,0,0,1,101.4,149.92Zm4.49-4.59a1.46,1.46,0,0,0-.73.17l-4.93,2.84c-.06,0-.18.12-.18.21s.08.23.33.37a2,2,0,0,0,1.76.09l4.93-2.84c.05,0,.18-.12.18-.21s-.09-.23-.33-.38A2.21,2.21,0,0,0,105.89,145.33Z"/><path class="cls-37" d="M111.59,150.22a.54.54,0,0,0,0-.22v-1.4a.17.17,0,0,0-.22-.16l-7.59,2.35a.18.18,0,0,0-.12.17v1.72a.86.86,0,0,0,.51.72,2.42,2.42,0,0,0,2.14.09l4.93-2.85a.67.67,0,0,0,.35-.42Z"/><path class="cls-3" d="M105.38,154.07a2.8,2.8,0,0,1-1.4-.35,1.2,1.2,0,0,1-.7-1.05V151a.55.55,0,0,1,.39-.52l7.58-2.36a.54.54,0,0,1,.49.08.55.55,0,0,1,.23.44V150a1.28,1.28,0,0,1,0,.34,1.1,1.1,0,0,1-.54.66l-4.92,2.84A2.26,2.26,0,0,1,105.38,154.07Zm-1.35-3v1.57c0,.1.08.25.33.39a2,2,0,0,0,1.76.09l4.93-2.84a.39.39,0,0,0,.18-.19h0a.18.18,0,0,0,0,0v-1.2Z"/><path class="cls-4" d="M111.24,148.79l-4.93,2.84a2.38,2.38,0,0,1-2.14-.08h0c-.63-.37-.7-.92-.15-1.24l4.93-2.84a2.33,2.33,0,0,1,2.13.09h0C111.71,147.92,111.78,148.47,111.24,148.79Z"/><path class="cls-3" d="M105.38,152.22a2.91,2.91,0,0,1-1.4-.35,1.24,1.24,0,0,1-.71-1,1,1,0,0,1,.56-.86l4.93-2.85a2.76,2.76,0,0,1,2.51.09,1.24,1.24,0,0,1,.71,1,1,1,0,0,1-.56.86L106.5,152A2.37,2.37,0,0,1,105.38,152.22Zm4.49-4.59a1.53,1.53,0,0,0-.74.16l-4.92,2.85c-.06,0-.19.11-.19.21s.09.23.34.37a2,2,0,0,0,1.76.09l4.93-2.85s.18-.11.18-.21-.09-.23-.33-.37A2.21,2.21,0,0,0,109.87,147.63Z"/><path class="cls-37" d="M115.57,152.52a.54.54,0,0,0,0-.22v-1.4a.18.18,0,0,0-.23-.17l-7.58,2.36a.17.17,0,0,0-.13.17V155a.87.87,0,0,0,.52.71,2.35,2.35,0,0,0,2.14.09l4.92-2.84a.74.74,0,0,0,.36-.42Z"/><path class="cls-3" d="M109.36,156.37A2.88,2.88,0,0,1,108,156a1.22,1.22,0,0,1-.7-1.05v-1.71a.54.54,0,0,1,.39-.53l7.58-2.36a.54.54,0,0,1,.49.09.54.54,0,0,1,.22.44v1.4a.74.74,0,0,1,0,.3h0a1,1,0,0,1-.53.66l-4.93,2.85A2.3,2.3,0,0,1,109.36,156.37Zm-1.35-3V155c0,.1.08.25.33.39a2.07,2.07,0,0,0,1.76.09l4.93-2.85a.29.29,0,0,0,.17-.18s0,0,0-.06v-1.2Z"/><path class="cls-4" d="M115.21,151.09l-4.92,2.84a2.35,2.35,0,0,1-2.14-.09h0c-.63-.36-.7-.91-.15-1.23l4.92-2.85a2.42,2.42,0,0,1,2.14.09h0C115.69,150.22,115.76,150.77,115.21,151.09Z"/><path class="cls-3" d="M109.36,154.52a2.88,2.88,0,0,1-1.4-.35,1.25,1.25,0,0,1-.71-1,1,1,0,0,1,.56-.86l4.93-2.84a2.73,2.73,0,0,1,2.51.09,1.24,1.24,0,0,1,.71,1,1,1,0,0,1-.56.86l-4.93,2.85A2.3,2.3,0,0,1,109.36,154.52Zm4.49-4.59a1.53,1.53,0,0,0-.74.16l-4.93,2.84c-.05,0-.18.12-.18.21s.09.23.34.38a2.07,2.07,0,0,0,1.76.09l4.93-2.85s.18-.12.18-.21-.09-.23-.34-.37A2.06,2.06,0,0,0,113.85,149.93Z"/><path class="cls-10" d="M106.89,164.92a7.61,7.61,0,0,0-3.17-6.07l-6.83-3.94a2,2,0,0,0-2-.19h0L89.42,158a0,0,0,0,0,0,0l10.87,12.76a0,0,0,0,0,0,0l5.39-3.26A2.74,2.74,0,0,0,106.89,164.92Z"/><path class="cls-3" d="M100.24,171.28,100,171,89,158.14l0-.36.16-.11,5.43-3.27a2.44,2.44,0,0,1,2.42.18l6.82,3.94a8,8,0,0,1,3.37,6.4,3.1,3.1,0,0,1-1.39,3ZM90,158.1l10.41,12.22,5.14-3.11a2.4,2.4,0,0,0,1-2.29,7.22,7.22,0,0,0-3-5.75l-6.83-3.94a1.69,1.69,0,0,0-1.67-.18Z"/><path class="cls-35" d="M98.26,170.61l-6.82-3.94a7.62,7.62,0,0,1-3.18-6.07h0c0-2.34,1.43-3.41,3.18-2.4l6.82,3.94a7.59,7.59,0,0,1,3.18,6.07h0C101.44,170.55,100,171.63,98.26,170.61Z"/><path class="cls-3" d="M99.53,171.37a2.87,2.87,0,0,1-1.45-.43L91.25,167a8,8,0,0,1-3.36-6.4,3.18,3.18,0,0,1,1.28-2.89,2.4,2.4,0,0,1,2.46.16l6.82,3.94a8.05,8.05,0,0,1,3.37,6.4,3.2,3.2,0,0,1-1.29,2.9A2,2,0,0,1,99.53,171.37Zm-1.08-1.08a1.72,1.72,0,0,0,1.71.17,2.51,2.51,0,0,0,.91-2.25,7.22,7.22,0,0,0-3-5.75l-6.83-3.94a1.67,1.67,0,0,0-1.7-.16,2.47,2.47,0,0,0-.91,2.24,7.2,7.2,0,0,0,3,5.75Z"/><path class="cls-8" d="M95.87,165.66a6.1,6.1,0,0,0-2.74-4.76c-1-.59-1.93-.44-2.39.27l-2.41,2.48,2.77,4.83,3.25-.88h0C95.25,167.6,95.87,166.89,95.87,165.66Z"/><path class="cls-3" d="M90.92,168.92l-3.06-5.32,2.61-2.69c.55-.85,1.69-1,2.85-.33a6.4,6.4,0,0,1,2.93,5.08c0,1.38-.72,2.28-1.85,2.31Zm-2.12-5.21L91.28,168l3.07-.82c.72,0,1.15-.58,1.15-1.56a5.66,5.66,0,0,0-2.56-4.43c-.81-.47-1.52-.42-1.89.14Z"/><path class="cls-7" d="M91.73,167.18c0,1.26-.89,1.76-2,1.14a4.36,4.36,0,0,1-2-3.41c0-1.26.88-1.77,2-1.14A4.37,4.37,0,0,1,91.73,167.18Z"/><path class="cls-3" d="M90.64,169a2.19,2.19,0,0,1-1.07-.32,4.71,4.71,0,0,1-2.16-3.74,1.57,1.57,0,0,1,2.53-1.46,4.71,4.71,0,0,1,2.16,3.74,1.74,1.74,0,0,1-.76,1.6A1.4,1.4,0,0,1,90.64,169Zm-1.76-5.08a.58.58,0,0,0-.33.08,1,1,0,0,0-.39.94A4,4,0,0,0,89.94,168a1.07,1.07,0,0,0,1,.14,1,1,0,0,0,.39-.95,4,4,0,0,0-1.78-3.09A1.46,1.46,0,0,0,88.88,163.88Z"/><path class="cls-16" d="M78.7,172.2h0a1.29,1.29,0,0,1,.51-1.76l8.62-4.76a1.29,1.29,0,0,1,1.76.51h0a1.3,1.3,0,0,1-.5,1.76l-8.63,4.76A1.3,1.3,0,0,1,78.7,172.2Z"/><path class="cls-3" d="M79.84,173.24a1.89,1.89,0,0,1-.47-.06,1.66,1.66,0,0,1-1-.8,1.61,1.61,0,0,1-.14-1.27,1.65,1.65,0,0,1,.79-1l8.63-4.76a1.68,1.68,0,0,1,2.42,1.93,1.73,1.73,0,0,1-.8,1L80.64,173A1.62,1.62,0,0,1,79.84,173.24Zm8.62-7.35A.92.92,0,0,0,88,166l-8.62,4.76a.87.87,0,0,0-.44.55.91.91,0,0,0,.08.7.93.93,0,0,0,.55.44.9.9,0,0,0,.7-.08l8.63-4.76a1,1,0,0,0,.44-.55.93.93,0,0,0-.89-1.18Z"/><rect class="cls-3" x="80.12" y="170.11" width="3.38" height="0.75" transform="matrix(0.19, -0.98, 0.98, 0.19, -101.08, 218.53)"/><rect class="cls-3" x="81.92" y="169.15" width="3.38" height="0.75" transform="translate(-98.68 219.52) rotate(-79.08)"/><rect class="cls-3" x="83.72" y="167.97" width="3.38" height="0.75" transform="translate(-96.06 220.35) rotate(-79.09)"/><rect class="cls-3" x="85.51" y="167.01" width="3.38" height="0.75" transform="matrix(0.19, -0.98, 0.98, 0.19, -93.67, 221.31)"/><rect class="cls-3" x="108.02" y="158.82" width="0.75" height="12.37"/><rect class="cls-3" x="110.17" y="158.32" width="0.75" height="12.37"/><rect class="cls-3" x="141.95" y="147.52" width="0.75" height="12.37"/><rect class="cls-3" x="170.25" y="168.38" width="0.75" height="8.05"/><rect class="cls-3" x="186.49" y="160.98" width="0.75" height="8.05"/><rect class="cls-3" x="174.01" y="168.12" width="0.75" height="8.05"/><rect class="cls-3" x="130.07" y="155.18" width="0.75" height="5.5"/><rect class="cls-3" x="132.51" y="154.69" width="0.75" height="5.5"/><rect class="cls-3" x="100.99" y="166.19" width="6.37" height="0.75" transform="translate(-71.18 77.98) rotate(-31.18)"/><polygon class="cls-3" points="99.87 163.5 99.48 162.85 104.93 159.56 105.32 160.21 99.87 163.5"/><rect class="cls-3" x="147.53" y="151.66" width="0.75" height="8.07"/><rect class="cls-3" x="163.27" y="124.2" width="3.39" height="0.75" transform="translate(-39.43 93.69) rotate(-28.47)"/></g></g></g></svg>