<?xml version="1.0" standalone="no"?>
<!DOCTYPE svg PUBLIC "-//W3C//DTD SVG 1.1//EN" "http://www.w3.org/Graphics/SVG/1.1/DTD/svg11.dtd">
<svg xmlns="http://www.w3.org/2000/svg">
<metadata>Generated by Fontastic.me</metadata>
<defs>
<font id="fontabulous" horiz-adv-x="512">
<font-face font-family="fontabulous" units-per-em="512" ascent="480" descent="-32"/>
<missing-glyph horiz-adv-x="512" />

<glyph unicode="&#97;" d="M492 244l-474 0c-5 0-11 5-11 11 0 6 5 11 11 11l475 0c5 0 10-5 10-11 0-6-5-11-11-11z m-237-237c-5 0-11 5-11 11l0 474c0 5 5 10 11 10 6 0 11-4 11-10l0-475c0-5-6-10-11-10z"/>
<glyph unicode="&#98;" d="M253 25c-111 0-202 90-202 201 1 110 91 201 202 201 111 0 201-91 201-202 0-111-90-200-201-200z m0 379c-99 0-179-80-179-179 0-99 80-179 179-179 99 0 179 80 179 179 0 99-80 179-179 179z m118-190l-117 0c-7 0-11 6-11 11l0 143c0 6 6 11 11 11 6 0 11-6 11-11l0-131 106 0c7 0 11-6 11-11 0-6-5-12-11-12z m35-203c-3 0-5 1-7 3l-45 45c-4 4-4 11 0 16 4 4 12 4 16 0l45-45c4-4 4-12 0-16-3-2-6-3-9-3z m-308 0c-3 0-5 1-7 3-5 4-5 12 0 16l44 45c5 4 12 4 16 0 5-5 5-12 0-16l-44-45c-4-2-7-3-9-3z m350 357c-2 0-4 1-6 2l-139 91c-2 2-4 4-5 7 0 3 0 7 2 9 22 25 49 29 59 29 4 0 6 0 6 0 2 0 67-3 92-60 23-52-4-75-5-76 1-1-1-2-4-2z m-121 103l118-76c2 7 3 20-7 42-20 45-71 47-73 47-1 0-2 0-4 0-6 0-20-2-34-13z m-264-103c-2 0-5 1-6 2-2 1-28 23-5 76 25 56 88 60 93 60 1 0 37 4 65-29 2-2 3-6 3-9 0-3-2-6-5-7l-139-91c-2-1-4-2-6-2z m87 116c-2 0-3 0-3 0-3 0-54-2-74-47-10-22-9-35-7-42l119 76c-14 11-28 13-35 13z"/>
<glyph unicode="&#99;" d="M257 505c6 0 11-6 11-11l0-456c0-6-6-10-11-10-5 0-11 5-11 10l0 455c0 6 6 12 11 12z m-183-292c3 0 5-1 7-3l174-179 178 174c4 4 12 4 16 0 4-4 4-12 0-16l-186-182c-2-2-4-3-7-3-3 0-5 1-7 3l-184 187c-4 4-4 12 0 16 2 2 5 3 9 3z"/>
<glyph unicode="&#100;" d="M508 254c0-7-6-11-11-11l-456 0c-7 0-11 6-11 11 0 5 5 11 11 11l455 0c6 1 12-5 12-11z m-291 184c0-3-2-5-4-7l-179-175 174-178c4-4 4-12 0-16-4-4-12-4-16 0l-181 187c-2 2-4 4-4 7 0 3 2 5 4 7l186 184c5 4 12 4 16 0 2-3 4-5 4-9z"/>
<glyph unicode="&#101;" d="M7 254c0 6 6 11 11 11l456 0c6 0 10-6 10-11 0-5-5-11-10-11l-456 0c-5 0-11 6-11 11z m292-184c0 4 1 6 3 8l178 174-174 179c-4 4-4 12 0 16 4 4 12 4 16 0l183-187c2-2 3-4 3-7 0-3-1-6-3-8l-188-183c-4-4-12-4-16 0-1 2-2 5-2 8z"/>
<glyph unicode="&#102;" d="M257 4c-6 0-11 6-11 11l0 456c0 7 6 11 11 11 5 0 11-5 11-11l0-455c1-6-5-12-11-12z m185 291c-4 0-6 2-8 4l-175 178-178-174c-4-4-12-4-16 0-4 4-4 12 0 16l187 182c2 2 4 4 7 4 3 0 6-2 8-4l182-186c4-5 4-12 0-16-2-2-4-4-7-4z"/>
<glyph unicode="&#103;" d="M492 35l-474 0c-6 0-11 6-11 11 0 6 6 11 11 11l474 0c6 0 10-6 10-11 0-7-4-11-10-11z m-329 41l-79 0c-6 0-10 5-10 10l0 170c0 6 5 11 10 11l79 0c7 0 11-6 11-11l0-170c0-5-5-10-11-10z m-68 21l58 0 0 148-58 0z m198-21l-79 0c-6 0-10 5-10 10l0 252c0 7 5 11 10 11l79 0c7 0 11-6 11-11l0-252c0-5-4-10-11-10z m-68 21l58 0 0 230-58 0z m207-21l-79 0c-6 0-11 5-11 10l0 387c0 6 6 10 11 10l79 0c6 0 11-5 11-10l0-387c0-5-6-10-11-10z m-68 21l57 0 0 365-57 0z"/>
<glyph unicode="&#104;" d="M256 70c-6 0-11 5-11 11l0 122c-95 64-95 74-95 80 0 70 128 123 134 127 3 1 5 1 8 0 3-1 5-4 6-7l29-81 71-30c5-2 7-8 5-14-2-5-8-7-14-5l-74 32c-4 1-5 3-6 6l-27 75c-38-17-108-59-111-100 7-10 52-42 90-67 4-2 5-6 5-9l0-127c1-8-4-13-10-13z m-148-64c-53 0-96 43-96 96 0 54 42 96 96 96 53 0 96-42 96-96 0-53-44-96-96-96z m0 170c-41 0-75-33-75-75 0-40 33-74 75-74 40 0 74 33 74 74-1 42-34 75-74 75z m296-170c-52 0-96 43-96 96 0 54 43 96 96 96 53 0 96-42 96-96 0-53-42-96-96-96z m0 170c-40 0-74-33-74-75 0-40 33-74 74-74 41 0 75 33 75 74 0 42-33 75-75 75z m-20 287c0-24-19-43-43-43-23 0-42 19-42 43 0 23 19 43 42 43 24 0 43-20 43-43z"/>
<glyph unicode="&#105;" d="M236 4c-2 0-3 0-6 1-3 2-5 6-5 9l0 223-100-81c-4-3-11-3-14 1-3 4-3 10 1 14l108 87-106 94c-4 3-4 10-1 14 3 4 10 4 14 1l98-86 0 216c0 4 2 8 5 9 4 2 8 1 11 0l161-108c2-2 4-4 4-8 0-3-1-6-4-8l-151-124 151-134c2-2 3-6 3-9 0-3-2-6-4-7l-161-103c-1 0-2-1-4-1z m9 232l0-203 134 85z m0 242l0-199 134 108z"/>
<glyph unicode="&#106;" d="M247 173l-199 0 0 142 199 0z m-181 18l163 0 0 106-163 0z m393-58l-441 0c-6 0-12 6-12 12l0 198c0 7 6 12 12 12l441 0c6 0 11-5 11-12l0-198c0-6-5-12-11-12z m-434 18l427 0 0 186-427 0z m474 52l-33 0 0 18 15 0 0 49-15 0 0 18 33 0z"/>
<glyph unicode="&#107;" d="M249 11c-2 0-3 0-4 1l-225 87c-4 1-6 6-6 10l0 384c0 3 2 6 4 8 3 2 7 2 10 1l221-100 236 97c4 1 7 1 10-1 3-2 4-5 4-8l0-379c0-4-2-8-6-10l-241-90c-1 0-2 0-3 0z m-216 104l216-83 230 86 0 357-227-93c-2-1-6-1-8 0l-211 96z m216-98c-6 0-10 4-10 10l0 362c0 6 4 10 10 10 5 0 9-4 9-10l0-362c0-5-4-10-9-10z"/>
<glyph unicode="&#108;" d="M495 37l-474 0c-5 0-10 5-10 11l0 371c0 6 4 11 10 11l474 0c5 0 11-4 11-11l0-372c0-5-5-10-11-10z m-463 21l453 0 0 352-453 0z m283 352c-6 0-11 4-11 10l0 43-100 0 0-43c0-5-5-10-11-10-6 0-11 4-11 10l0 54c0 5 5 10 11 10l121 0c5 0 10-4 10-10l0-54c0-6-4-10-9-10z m6-228l-127 0c-5 0-11 5-11 11l0 84c0 6 5 11 11 11l127 0c5 0 11-4 11-11l0-85c0-5-5-10-11-10z m-117 21l106 0 0 64-106 0z m-10 20l-173 0c-5 0-10 4-10 11 0 6 4 10 10 10l172 0c5 0 11-4 11-10 0-7-5-11-10-11z m301 1l-174 0c-5 0-11 4-11 11 0 6 5 10 11 10l174 0c5 0 11-4 11-10 0-7-5-11-11-11z"/>
<glyph unicode="&#109;" d="M462 12l-412 0c-5 0-9 4-9 9l0 412c0 5 4 10 9 10l69 0c5-1 9-6 9-10 0-4-4-10-10-10l-59 0 0-393 393 0 0 393-62 0c-5 0-9 5-9 10 0 5 4 10 9 10l71 0c5 0 9-5 9-10l0-412c1-5-3-9-8-9z m-111 411l-189 0c-5 0-9 5-9 10 0 5 4 10 9 10l190 0c5 0 10-5 10-10 0-5-6-10-11-10z m111-93l-412 0c-5 0-9 4-9 9 0 6 4 10 9 10l412 0c5 0 9-4 9-10 0-5-4-9-9-9z m-322 48c-16 0-29 12-29 28l0 71c0 16 13 29 29 29 16 0 29-13 29-29l0-71c0-16-14-28-29-28z m0 108c-6 0-11-4-11-10l0-71c0-5 4-10 11-10 6 0 10 4 10 10l0 72c-1 5-5 9-10 9z m231-108c-16 0-29 12-29 28l0 71c0 16 13 29 29 29 16 0 29-13 29-29l0-71c0-16-13-28-29-28z m0 108c-5 0-10-4-10-10l0-71c0-5 4-10 10-10 7 0 11 4 11 10l0 72c0 5-5 9-11 9z m-170-386l-20 0 0 114-41 0 0 15c22 0 41 7 46 30l15 0z m151 141l-65 0-9-46c8 8 20 12 30 12 29 0 53-18 53-54 0-27-20-54-57-54-28 0-50 17-51 46l19 0c1-16 15-29 34-29 18 0 34 13 34 39 0 21-15 36-36 36-12 0-22-6-30-15l-16 1 15 83 79 0z"/>
<glyph unicode="&#110;" d="M381 89l-61 0c-5 0-10 4-10 9 0 5 5 10 10 10l60 0c59 0 105 45 105 102 0 58-47 103-105 103-6 0-12-2-18-3-5-1-10 3-11 7-14 49-61 82-113 82-65 0-119-51-119-115 0-6 0-12 2-17 0-4 0-6-3-8-3-3-8-3-13-3-2 0-3 0-4 0-42 0-78-34-78-76 0-41 36-74 78-74l70 0c5 0 9-5 9-10 0-5-4-10-9-10l-68 0c-53 0-97 43-97 94 0 53 43 95 96 95 0 3 0 6 0 8 0 73 62 134 138 134 58 0 109-36 129-88 4 0 9 1 13 1 70 0 125-54 125-122-1-65-57-119-126-119z m-129 1c-6 0-10 4-10 9l0 157c0 5 4 10 10 10 5 0 9-5 9-10l0-158c0-4-4-8-9-8z m64 103c-2 0-6 1-7 3l-56 58-58-57c-4-3-9-3-14 0-3 5-3 10 0 14l64 63c2 2 5 3 7 3 2 0 5-1 6-3l63-65c3-4 3-10 0-14-1-1-3-2-5-2z"/>
<glyph unicode="&#111;" d="M379 89l-21 0c-5 0-9 4-9 9 0 5 4 10 9 10l21 0c59 0 105 45 105 102 0 58-47 103-105 103-6 0-12-2-18-3-5-1-10 3-11 7-15 49-61 82-113 82-65 0-119-52-119-115 0-6 0-12 1-17 0-4 0-6-2-8-3-3-8-3-14-3-1 0-2 0-3 0-42 0-78-34-78-76 0-41 36-74 78-74l39 0c5 0 9-5 9-10 0-5-4-10-9-10l-39 0c-53 0-97 43-97 94 0 53 43 95 96 95 0 3 0 6 0 8 0 74 62 134 138 134 57 0 110-36 129-88 4 0 8 1 13 1 70 0 124-54 124-122 0-65-55-119-124-119z m-70 9c-2 0-5 1-6 3l-130 129c-4 5-4 10 0 14 4 5 9 5 14 0l129-129c4-4 4-9 0-14-2-2-5-3-7-3z m-130 0c-2 0-5 1-6 3-4 5-4 10 0 14l129 129c4 5 9 5 14 0 4-4 4-9 0-14l-129-129c-2-2-5-3-8-3z"/>
<glyph unicode="&#112;" d="M381 90l-60 0c-5 0-10 4-10 9 0 6 5 10 10 10l60 0c58 0 105 45 105 102 0 58-45 103-105 103-6 0-12-1-18-3-5-1-10 3-11 7-14 48-61 82-112 82-65 0-117-51-117-115 0-6 0-12 1-17 0-3 0-6-2-8-4-3-9-3-14-3-1 0-2 0-3 0-43 0-78-34-78-76 0-41 35-74 78-74l69 0c5 0 9-5 9-10 0-5-4-10-9-10l-69 0c-54 0-96 42-96 94 0 53 42 94 96 95 0 3 0 6 0 8 0 73 60 133 136 133 58 0 109-36 128-87 4 0 9 1 13 1 69 0 125-54 125-122-1-66-57-119-126-119z m-132 13c-6 0-10 5-10 10l0 156c0 5 4 9 10 9 5 0 9-4 9-9l0-157c0-4-4-9-9-9z m-2-11c-2 0-5 1-6 3l-63 64c-3 4-3 10 0 14 4 3 10 3 14 0l55-58 58 56c4 3 10 3 14 0 3-5 3-10 0-14l-64-63c-2-1-4-2-8-2z"/>
<glyph unicode="&#113;" d="M380 90l-60 0c-5 0-10 4-10 9 0 6 5 10 10 10l60 0c58 0 105 45 105 102 0 58-46 103-105 103-6 0-12-1-18-3-5-1-10 3-11 7-14 48-61 82-112 82-65 0-117-51-117-115 0-6 0-12 1-17 0-3 0-6-2-8-4-3-9-3-14-3-1 0-2 0-4 0-42 0-77-34-77-76 0-41 35-74 77-74l70 0c5 0 9-5 9-10 0-5-4-10-9-10l-70 0c-53 0-96 42-96 94 0 53 43 94 96 95 0 3 0 6 0 8 0 73 61 134 137 134 58 0 109-36 128-87 4 0 9 1 13 1 69 0 125-54 125-122-1-67-57-120-126-120z m-131 12c-3 0-6 1-7 4l-64 64c-3 3-3 9 0 13 3 4 10 4 14 0l57-56 120 118c3 5 10 5 14 0 3-3 3-9 0-14l-127-126c-2-3-4-3-7-3z"/>
<glyph unicode="&#114;" d="M380 92l-275 0c-54 0-96 41-96 94 0 52 42 93 96 95 0 3 0 5 0 7 0 74 60 133 136 133 58 0 109-36 128-87 4 1 9 1 13 1 69 0 124-53 124-122-1-69-56-121-126-121z m-275 168c-43 0-78-34-78-75 0-42 35-75 78-75l276 0c58 0 105 45 105 102 0 58-45 103-105 103-6 0-12-1-18-2-5-2-10 2-11 6-14 48-61 82-112 82-65 0-117-51-117-115 0-5 0-12 1-17 0-3 0-6-2-8-4-3-9-3-14-3-1 2-2 2-3 2z"/>
<glyph unicode="&#115;" d="M487 15c-3 0-5 1-7 3l-164 164c-5 5-5 12 0 16 4 5 11 5 16 0l164-164c4-4 4-12 0-16-2-2-5-3-9-3z m-183 51c-6 0-12 5-12 12l2 133c0 3 1 6 4 8 2 2 5 3 7 3l133-2c7 0 11-6 11-12 0-6-5-11-12-11l-121 1-1-121c1-6-5-11-11-11z m-285-51c-3 0-5 1-7 3-5 4-5 12 0 16l164 164c4 5 12 5 16 0 4-4 4-11 0-16l-165-164c-2-2-5-3-8-3z m184 51c-7 0-11 5-12 11l-1 121-123 0c-6 0-10 6-12 11 0 6 6 12 11 12l133 2c4 0 6-1 8-3 2-2 3-6 3-8l3-134c0-7-4-12-10-12z m119 244c-3 0-5 1-7 4-5 4-5 11 0 16l164 164c4 4 12 4 16 0 4-4 4-12 0-16l-164-164c-2-3-6-4-9-4z m-17-20c-3 0-5 1-7 3-3 2-4 6-4 8l-2 133c0 7 6 12 11 12 6 0 11-5 12-11l1-121 121 1c7 0 12-6 12-11 0-6-5-12-11-12z m-123 20c-3 0-5 1-7 4l-164 164c-6 4-6 12 0 16 5 4 11 4 16 0l164-164c4-5 4-12 0-16-3-3-5-4-9-4z m17-20l-133 1c-6 0-11 6-11 12 0 6 6 11 12 11l122-1 1 121c0 7 5 11 12 11 6 0 10-6 10-12l-2-133c0-3-1-6-3-8-1-1-4-2-8-2z"/>
<glyph unicode="&#116;" d="M256 6c-137 0-249 111-249 249 0 138 112 248 249 248 137 0 249-110 249-248 0-138-112-249-249-249z m0 475c-125 0-226-101-226-226 0-125 101-226 226-226 125 0 226 101 226 226 0 125-101 226-226 226z m97-335c-3 0-5 1-8 3l-98 97c-2 3-3 6-3 9l0 177c0 6 6 12 12 12 6 0 12-6 12-12l0-173 94-94c4-4 4-11 0-16-3-2-6-3-9-3z"/>
<glyph unicode="&#117;" d="M53 308c-1 0-2 0-3 0-5 2-8 8-6 13 29 95 113 158 210 158 97 0 182-64 211-158 2-5-1-11-6-13-6-1-11 1-13 7-27 86-104 144-191 144-89 0-165-58-191-144-3-5-6-7-11-7z m201-279c-100 0-189 69-213 168-2 6 2 11 7 13 5 1 11-2 13-7 23-91 102-154 194-154 92 0 172 64 194 155 1 5 6 8 12 7 5-1 8-6 7-12-24-100-113-170-214-170z m-208 263c-1 0-2 0-3 1-2 1-5 4-6 6l-30 68c-2 5 0 11 6 13 5 2 10 0 13-6l25-59 60 25c5 2 11 0 13-5 2-5 0-11-6-13l-68-30c-2 1-3 0-4 0z m450-155c-3 0-7 2-9 5l-29 57-58-29c-5-3-11-1-14 4-2 5-1 11 4 14l67 34c2 1 5 1 7 1 2-1 4-2 6-5l35-67c2-5 1-10-5-13-1-1-2-1-4-1z"/>
<glyph unicode="&#118;" d="M229 35c-121 0-220 99-220 221 0 122 99 221 220 221 122 0 221-99 221-221 0-9 0-16-1-25-1-5-5-9-11-8-5 1-9 5-8 11 1 7 1 15 1 22 0 111-90 201-201 201-111 0-201-90-201-201 0-111 89-201 200-201 31 0 61 7 88 21 5 2 10 0 14-5 2-5 0-10-5-13-31-15-63-23-97-23z m210 179c-2 0-5 1-7 4l-53 53c-5 4-5 11 0 14 4 4 10 4 14 0l46-47 47 47c5 4 11 4 14 0 5-4 5-11 0-14l-53-53c-2-3-4-4-8-4z"/>
<glyph unicode="&#119;" d="M283 35c121 0 220 99 220 221 0 122-99 221-220 221-122 0-221-99-221-221 0-9 0-16 1-25 1-5 5-9 11-8 5 1 9 5 8 11-1 7-1 15-1 22 0 111 90 201 201 201 111 0 201-90 201-201 0-111-89-201-200-201-31 0-61 7-88 21-5 2-10 0-14-5-2-5 0-10 5-13 31-15 63-23 97-23z m-210 179c2 0 5 1 7 4l53 53c5 4 5 11 0 14-4 4-10 4-14 0l-46-47-47 47c-5 4-11 4-14 0-5-4-5-11 0-14l53-53c2-3 4-4 8-4z"/>
<glyph unicode="&#120;" d="M176 91c-3 0-5 1-7 3l-160 160c-5 4-5 11 0 15 4 4 10 4 14 0l153-153 313 313c4 4 10 4 14 0 5-4 5-11 0-15l-320-320c-2-2-4-3-7-3z"/>
<glyph unicode="&#121;" d="M481 425l-455 0c-7 0-12 5-12 11 0 7 5 12 12 12l455 0c6 0 12-5 12-12 0-7-6-11-12-11z m0 0l-455 0c-7 0-12 5-12 11 0 7 5 12 12 12l455 0c6 0 12-5 12-12 0-7-6-11-12-11z m-90-130l-288 0c-6 0-11 6-11 12 0 7 5 11 11 11l288 0c7 0 12-5 12-11-1-6-6-12-12-12z m60-123l-386 0c-6 0-12 5-12 11 0 7 6 12 12 12l386 0c7 0 12-5 12-12 0-6-5-11-12-11z m30-119l-455 0c-7 0-12 6-12 12 0 6 5 12 12 12l455 0c6 0 12-6 12-12 0-6-6-12-12-12z"/>
<glyph unicode="&#122;" d="M442 49l-372 0c-31 0-56 26-56 57l0 209c0 31 25 56 56 56l56 0c3 0 7 3 9 8l14 42c5 12 16 21 28 21l158 0c12 0 23-9 28-20l14-42c1-3 6-8 9-8l56 0c32 0 56-24 56-56l0-209c0-32-25-58-56-58z m-372 302c-20 0-36-16-36-36l0-209c0-20 17-37 36-37l372 0c20 0 36 16 36 37l0 209c0 20-16 36-36 36l-56 0c-12 0-23 8-28 20l-13 43c-2 3-7 6-10 6l-158 0c-3 0-7-3-10-6l-13-43c-5-12-17-20-28-20z m186-255c-69 0-126 57-126 126 0 69 57 126 126 126 69 0 126-57 126-126 0-69-57-126-126-126z m0 231c-59 0-107-48-107-106 0-59 48-106 107-106 59 0 107 48 107 106 0 60-48 106-107 106z m0-185c-44 0-79 35-79 79 0 44 35 79 79 79 45 0 79-35 79-79 0-43-35-79-79-79z m0 140c-33 0-60-27-60-60 0-32 28-60 60-60 33 0 60 27 60 60 0 33-27 60-60 60z m186 17c0 9-8 16-16 16-10 0-17-7-17-16 0-10 7-17 17-17 8 0 16 7 16 17z"/>
<glyph unicode="&#65;" d="M131 119c-3 0-6 2-8 4l-114 126c-5 4-5 10 0 14l114 126c4 5 10 5 15 1 4-4 4-10 1-15l-107-119 108-118c4-5 3-12-1-15-2-2-6-4-8-4z m251 0c-2 0-5 2-8 4-4 4-4 10-1 15l108 118-107 118c-4 5-3 12 1 15 5 5 12 4 15-1l115-126c4-4 4-10 0-15l-115-124c-2-2-5-4-8-4z m-183-45c-1 0-2 0-3 1-5 2-8 8-6 14l114 342c2 5 9 8 14 6 5-2 8-8 6-14l-114-342c-2-4-6-7-11-7z"/>
<glyph unicode="&#66;" d="M198 29c-1 0-3 0-4 1-3 2-5 5-5 8l0 79-109 0c-38 0-69 31-69 70l0 207c0 38 30 69 69 69l355 0c39 0 70-31 70-69l0-207c0-38-32-70-70-70l-115 0-115-86c-2-1-4-2-7-2z m-118 414c-28 0-49-22-49-49l0-207c0-27 22-49 49-49l118 0c6 0 10-5 10-10l0-69 102 76c3 2 5 3 7 3l118 0c27 0 49 22 49 49l0 207c0 26-22 49-49 49z"/>
<glyph unicode="&#67;" d="M198 30c-1 0-3 0-4 1-3 2-5 5-5 8l0 79-108 0c-38 0-68 31-68 69l0 207c0 38 30 68 68 68l353 0c39 0 68-31 68-68l0-206c0-38-32-69-68-69l-114 0-115-87c-2-1-4-2-7-2z m-117 413c-28 0-49-23-49-49l0-206c0-28 21-50 49-50l117 0c6 0 10-5 10-10l0-68 102 77c3 1 5 2 7 2l117 0c27 0 49 22 49 49l0 206c0 26-22 49-49 49z m305-153c0-16-13-30-30-30-16 0-30 14-30 30 0 17 14 30 30 30 17 0 30-13 30-30z m-98 0c0-16-13-30-30-30-16 0-30 14-30 30 0 17 14 30 30 30 17 0 30-13 30-30z m-98 0c0-16-14-30-30-30-16 0-30 14-30 30 0 17 14 30 30 30 16 0 30-13 30-30z"/>
<glyph unicode="&#68;" d="M455 307c-2 0-5 1-6 3-3 4-3 10 0 14l34 34-34 35c-3 3-3 9 0 13 3 4 10 4 14 0l40-40c3-2 4-4 4-7 0-2-1-5-4-6l-40-40c-2-5-4-6-8-6z m0-176c-2 0-5 1-6 3-3 4-3 10 0 14l34 34-34 35c-3 3-3 9 0 13 3 4 10 4 14 0l40-40c3-2 4-4 4-7 0-2-1-5-4-6l-40-40c-2-5-4-6-8-6z m36 41l-151 0c-2 0-5 1-6 3l-35 34c-4 3-4 10 0 14 3 4 9 3 14 0l32-32 146 0c5 0 9-4 9-10 0-5-4-9-9-9z m-292 141c-2 0-5 1-6 3l-33 32-145 0c-5 0-10 4-10 9 0 6 5 10 10 10l149 0c2 0 6-1 7-3l35-35c3-4 3-10 0-14-1-1-4-2-7-2z m-34-141l-150 0c-5 0-10 4-10 9 0 6 5 10 10 10l147 0 173 173c2 2 4 3 6 3l150 0c5 0 9-4 9-10 0-5-4-9-9-9l-145 0-173-173c-2-2-4-3-8-3z"/>
<glyph unicode="&#69;" d="M495 190l-478 0c-5 0-10 4-10 9 0 6 5 10 10 10l478 0c5 0 10-4 10-10 0-5-5-9-10-9z m0-62l-478 0c-5 0-10 4-10 10l0 331c0 6 5 10 10 10l478 0c5 0 10-4 10-10l0-330c0-6-5-11-10-11z m-468 20l458 0 0 312-458 0z m229-115c-5 0-10 4-10 10l0 90c0 6 5 10 10 10 5 0 10-4 10-10l0-90c0-6-5-10-10-10z m81 0l-165 0c-6 0-10 4-10 10 0 5 4 9 10 9l166 0c5 0 10-4 10-9-1-6-6-10-11-10z"/>
<glyph unicode="&#70;" d="M505 364c0 3-2 5-4 7-4 6-11 6-17 1l-228-208-229 208c-6 5-13 5-17-1-5-5-5-13 1-17l236-215c5-5 12-5 16 0l238 216c2 2 4 6 4 9z"/>
<glyph unicode="&#71;" d="M258 178c-5 0-11 4-11 11l0 250c0 6 5 11 11 11 5 0 11-4 11-11l0-250c0-6-6-11-11-11z m236-117l-472 0c-5 0-10 4-10 10l0 175c0 6 4 11 10 11 6 0 11-4 11-11l0-165 451 0 0 165c0 6 5 11 11 11 5 0 11-4 11-11l0-176c-3-4-7-9-12-9z m-237 109c-3 0-5 1-7 3l-101 102c-4 4-4 11 0 14 5 4 11 4 14 0l93-96 95 93c4 4 11 4 14 0 4-4 4-11 0-14l-103-100c0-1-3-2-5-2z"/>
<glyph unicode="&#72;" d="M496 114l-480 0c-6 0-10 4-10 10l0 307c0 5 4 10 10 10l480 0c6 0 10-5 10-10l0-307c0-6-4-10-10-10z m-470 20l460 0 0 287-460 0z m230 52c-2 0-3 0-4 1-26 1-43 22-43 23l-200 214c-4 4-4 10 0 14 4 4 11 4 14 0l201-215c1 0 13-15 30-16 10-1 21 4 32 15 27 25 201 212 203 214 3 4 10 4 14 0 4-4 4-10 0-14-7-8-176-189-203-215-14-14-29-21-44-21z m-240-72c-3 0-5 1-7 3-4 4-4 10 0 14l148 149c4 4 10 4 14 0 4-4 4-10 0-14l-148-149c-2-2-4-3-7-3z m480 0c-3 0-5 1-7 3l-145 141c-4 4-4 11 0 15 4 4 10 4 14 0l145-142c4-4 4-10 0-14-2-2-4-3-7-3z"/>
<glyph unicode="&#73;" d="M486 14c-3 0-6 1-9 4l-462 462c-5 5-5 14 0 18 5 5 14 5 18 0l463-463c5-5 5-14 0-18-2-2-6-3-10-3z m-463 0c-3 0-6 1-9 4-5 5-5 14 0 18l464 463c5 6 13 6 18 0 5-5 5-14 0-19l-463-463c-2-2-6-3-10-3z"/>
<glyph unicode="&#74;" d="M75 6c-5 0-10 3-13 6-7 5-11 15-11 24l0 439c0 9 4 19 11 24 8 7 19 7 27 0l247-218c6-6 10-14 10-24 0-10-4-18-10-23l-247-222c-4-3-9-6-14-6z m1 474c-1-1-1-3-1-5l0-439c0-3 0-4 1-6l246 217c1 2 2 4 2 8 0 3-1 6-2 7z m379-474c-6 0-11 6-11 12l0 475c0 6 5 12 11 12 7 0 12-6 12-12l0-475c0-6-5-12-12-12z"/>
<glyph unicode="&#75;" d="M261 46c-6 4-10 12-10 21l0 380c0 8 4 17 10 21 6 6 16 6 23-1l215-190c6-4 8-12 8-20 0-8-2-16-8-21l-214-189c-4-3-8-5-12-5-5-1-10 1-12 4z m10 401l0-381c0-2 1-4 1-5l213 189c1 1 2 3 2 6 0 3-1 6-2 6l-213 189c0 0-1-2-1-4z m-247-401c-5 4-9 12-9 21l0 380c0 8 4 17 9 21 7 6 17 6 23 0l216-190c5-4 8-12 8-20 0-9-3-16-8-21l-215-190c-3-2-7-4-12-4-4-2-8 0-12 3z m11 401l0-381c0-2 1-4 1-5l213 189c1 1 2 3 2 6 0 3-1 6-2 6l-213 189c-1 0-1-2-1-4z"/>
<glyph unicode="&#76;" d="M212 82c-5 4-8 10-8 18l0 317c0 7 3 14 8 17 5 5 14 5 19 0l179-159c4-3 7-10 7-17 0-7-3-13-7-17l-179-158c-3-2-6-4-10-4-3-1-6 1-9 3z m9 335l0-318c0-1 1-3 1-4l178 158c0 1 1 2 1 5 0 2-1 4-1 4l-178 158c-1 0-1-2-1-3z m-205-335c-5 4-8 10-8 18l0 317c0 7 3 14 8 17 5 5 13 5 19 0l179-158c5-4 7-10 7-17 0-7-2-13-7-17l-178-158c-3-3-7-4-10-4-4-2-7 0-10 2z m9 335l0-318c0-1 1-3 1-4l177 158c1 1 2 2 2 5 0 2-1 4-2 4l-177 158c-1 0-1-2-1-3z m470-339c5 0 8 4 8 9l0 343c0 4-3 8-8 8-5 0-9-4-9-8l0-343c0-5 4-9 9-9z"/>
<glyph unicode="&#77;" d="M481 421l-453 0c-7 0-11 6-11 11 0 5 5 11 11 11l453 0c6 0 11-6 11-11 0-5-5-11-11-11z m0 0l-453 0c-7 0-11 6-11 11 0 5 5 11 11 11l453 0c6 0 11-6 11-11 0-5-5-11-11-11z m0-127l-453 0c-7 0-11 6-11 11 0 5 5 11 11 11l453 0c6 0 11-6 11-11 0-5-5-11-11-11z m0-123l-453 0c-7 0-11 5-11 10 0 7 5 11 11 11l453 0c6 0 11-5 11-11 1-5-5-10-11-10z m-257-118l-196 0c-7 0-11 6-11 11 0 6 5 11 11 11l196 0c6 0 11-6 11-11 1-6-5-11-11-11z"/>
<glyph unicode="&#78;" d="M420 55l-102 0c-3 0-5 2-8 4-2 2-3 4-3 7 0 1 0 87 0 111 0 10-2 16-6 20-7 6-13 6-13 6l-62 1c-20-2-20-23-20-25l0-113c0-5-4-11-11-11l-101 0c-5 0-11 5-11 11l0 224c0 5 4 11 11 11 6 0 11-4 11-11l0-213 78 0 0 102c0 14 9 42 41 46l62-1c1 0 15 1 28-10 8-8 13-20 13-35 0-20 0-77 0-101l83 0 0 210c0 5 4 11 10 11 6 0 11-5 11-11l0-222c0-5-5-11-11-11z m73 150c-3 0-6 1-8 3l-230 230-228-228c-5-4-11-4-15 0-5 4-5 11 0 15l235 236c5 4 11 4 15 0l238-238c5-4 5-11 0-15-2-2-4-3-7-3z"/>
<glyph unicode="&#79;" d="M257 32c-2 0-5 1-7 3l-197 190c-26 26-41 61-41 97 0 37 15 72 41 98 25 24 56 37 90 37 34 0 66-13 90-37l23-23 23 23c25 24 57 37 90 37 34 0 66-13 90-37 26-25 41-61 41-98 0-37-15-71-41-97l-194-190c-3-2-6-3-8-3z m-114 403c-29 0-56-10-76-30-22-22-35-51-35-82 0-31 13-61 35-82l189-183 189 183c22 22 35 51 35 82 0 31-13 61-35 82-20 20-47 30-76 30-29 0-55-10-76-30l-31-30c-4-4-10-4-15 0l-28 30c-21 20-47 30-76 30z"/>
<glyph unicode="&#80;" d="M479 135c-5 0-11 5-11 11l0 111c-1 122-94 222-207 222-112 0-204-99-206-222 0-3 0-111 0-112 0-5-4-11-10-11-6 0-11 5-11 11 0 33 0 111 0 113 2 133 105 241 227 241 124 0 226-109 228-242l0-111c1-6-5-11-10-11z m-277-122l-55 0c-35 0-65 36-65 81l0 104c0 45 29 81 65 81l55 0c5 0 10-4 10-10l0-244c0-8-5-12-10-12z m-55 244c-24 0-44-27-44-60l0-104c0-33 20-60 44-60l44 0 0 224z m227-244l-54 0c-5 0-11 4-11 10l0 245c0 5 5 10 11 10l54 0c36 0 65-36 65-81l0-104c-1-44-29-80-65-80z m-44 20l43 0c25 0 44 27 44 60l0 104c0 33-20 60-44 60l-43 0z"/>
<glyph unicode="&#81;" d="M256 119c-74 0-133 60-133 134 0 73 59 133 133 133 74 0 133-60 133-133 0-74-59-134-133-134z m0 246c-62 0-112-50-112-112 0-62 50-112 112-112 62 0 112 50 112 112 0 62-50 112-112 112z m0 64c-5 0-11 4-11 10l0 50c0 5 5 10 11 10 6 0 11-4 11-10l0-50c0-6-6-10-11-10z m0-417c-5 0-11 4-11 10l0 49c0 6 5 11 11 11 6 0 11-4 11-11l0-49c0-5-6-10-11-10z m234 230l-49 0c-6 0-11 4-11 11 0 5 4 10 11 10l49 0c5 0 10-4 10-10 0-6-5-11-10-11z m-417 0l-50 0c-5 0-10 4-10 11 0 5 4 10 10 10l50 0c5 0 10-4 10-10 0-6-4-11-10-11z m348-164c-3 0-5 1-7 3l-34 34c-5 4-5 11 0 15 4 4 10 4 15 0l34-34c4-4 4-11 0-15-2-2-6-3-8-3z m-294 294c-3 0-5 1-8 3l-35 35c-4 4-4 10 0 15 5 4 11 4 15 0l34-35c5-4 5-10 0-15-1-2-4-3-6-3z m259 1c-3 0-5 1-7 4-5 4-5 10 0 14l34 35c4 4 10 4 15 0 4-5 4-11 0-15l-34-34c-3-3-6-4-8-4z m-294-295c-3 0-6 1-8 3-4 4-4 11 0 15l34 34c5 4 11 4 15 0 5-4 5-11 0-15l-34-34c-2-2-5-3-7-3z m286 175c10-116-122-122-122-122l0 243c0 0 112-12 122-121z"/>
<glyph unicode="&#82;" d="M229 269l-201 0c-8 0-13 5-13 13l0 201c0 8 5 13 13 13l201 0c8 0 13-5 13-13l0-201c0-8-6-13-13-13z m-193 21l185 0 0 185-185 0z m448-21l-201 0c-8 0-13 5-13 13l0 201c0 8 5 13 13 13l201 0c8 0 13-5 13-13l0-201c0-8-5-13-13-13z m-193 21l185 0 0 185-185 0z m-62-274l-201 0c-8 0-13 5-13 13l0 201c0 8 5 13 13 13l201 0c8 0 13-5 13-13l0-201c0-7-6-13-13-13z m-193 21l185 0 0 185-185 0z m448-21l-201 0c-8 0-13 5-13 13l0 201c0 8 5 13 13 13l201 0c8 0 13-5 13-13l0-201c0-7-5-13-13-13z m-193 21l185 0 0 185-185 0z"/>
<glyph unicode="&#83;" d="M303 10l-95 0c-6 0-11 5-11 10l0 48c-11 3-23 9-34 14l-34-34c-2-2-4-3-7-3-4 0-6 1-8 3l-67 67c-4 4-4 11 0 15l33 33c-6 11-11 23-15 35l-45 0c-6 0-10 6-10 11l0 95c0 6 5 11 10 11l44 0c3 12 9 25 15 37l-31 31c-4 4-4 11 0 15l67 67c4 4 12 4 15 0l30-31c12 7 25 12 38 16l0 42c0 6 6 10 11 10l95 0c6 0 11-5 11-10l0-42c12-4 25-9 38-16l30 30c4 4 12 4 15 0l67-67c4-4 4-11 0-15l-31-31c7-12 11-25 15-37l45 0c6 0 11-6 11-11l0-95c0-6-6-11-11-11l-46 0c-4-11-9-23-15-35l33-33c2-2 3-4 3-7 0-4-1-6-3-8l-67-67c-4-4-11-4-15 0l-34 34c-11-5-23-11-34-14l0-48c-2-5-7-9-13-9z m-83 21l72 0 0 46c0 5 3 9 9 10 16 5 30 10 44 19 4 2 9 2 12-3l32-32 52 52-31 31c-4 3-5 8-1 12 8 14 14 29 19 45 1 4 5 8 10 8l44 0 0 72-41 0c-6 0-10 3-11 9-4 17-11 32-18 47-2 4-2 9 2 12l29 29-52 51-27-27c-3-3-9-5-13-1-15 8-31 16-48 20-4 1-9 5-9 11l0 39-72 0 0-39c0-6-3-10-9-11-17-4-33-11-48-20-4-2-9-2-12 1l-28 27-51-51 28-29c4-3 5-8 3-12-9-15-15-30-19-47-1-6-5-9-10-9l-45 0 0-72 44 0c5 0 9-4 10-8 5-16 11-31 20-45 2-4 2-9-2-12l-30-31 51-52 32 32c3 4 8 5 13 3 13-8 28-14 43-19 5-1 9-5 9-10l0-46z m36 129c-53 0-96 43-96 96 0 53 43 96 96 96 53 0 96-43 96-96 0-53-43-96-96-96z m0 171c-41 0-75-33-75-75 0-41 33-75 75-75 41 0 75 33 75 75 0 41-34 75-75 75z"/>
<glyph unicode="&#84;" d="M362 13l-218 0c-5 0-10 4-10 9l-27 371c0 5 3 10 9 10 6 0 11-3 11-9l27-361 199 0 29 361c0 5 5 9 11 9 5 0 9-5 9-10l-29-371c-2-5-6-9-11-9z m71 415l-354 0c-5 0-10 4-10 9-1 7 5 11 10 11l355 0c5 0 10-4 10-10 0-5-5-10-11-10z m-228-332c-6 0-10 4-10 10l0 250c0 6 4 10 10 10 5 0 9-4 9-10l0-250c0-6-4-10-9-10z m53 0c-5 0-9 4-9 10l0 250c0 6 4 10 9 10 5 0 10-4 10-10l0-250c1-6-3-10-10-10z m52 0c-5 0-9 4-9 10l0 250c0 6 4 10 9 10 6 0 10-4 10-10l0-250c0-6-4-10-10-10z m1 332c-5 0-9 4-9 9l0 40-88 0 0-39c0-5-4-9-9-9-6 0-10 4-10 9l0 48c0 6 4 10 10 10l108 0c5 0 9-4 9-10l0-48c-1-5-5-10-11-10z"/>
<glyph unicode="&#85;" d="M368 269l-20 0c-6 0-10 4-10 9 0 6 4 10 10 10l20 0c5 0 10-4 10-10 0-5-5-9-10-9z m60 20l-21 0c-5 0-9 4-9 10 0 5 4 9 9 9l21 0c5 0 9-4 9-9 0-6-4-10-9-10z m-80 40l-21 0c-5 0-9 4-9 9 0 5 4 10 9 10l21 0c5 0 9-5 9-10 0-4-4-9-9-9z m-60-40l-60 0c-5 0-9 4-9 10 0 5 4 9 9 9l60 0c5 0 10-4 10-9 0-6-5-10-10-10z m119 60l-20 0c-5 0-9 4-9 9 0 6 4 10 9 10l20 0c6 0 10-4 10-10 0-5-4-9-10-9z m30-280c-19 0-36 9-48 24 0 1-1 1-1 2l-58 134-144 0-59-134c0-1-1-1-1-2-12-15-29-24-48-24-33 0-60 27-60 60l20 201c0 54 45 99 101 99 31 0 50 0 79-26l82-1c25 20 46 27 78 27 55 0 100-45 100-100l20-200c-1-33-28-60-61-60z m-31 36c8-10 20-15 31-15 23 0 41 18 41 40l-20 200c0 44-37 81-80 81-29 0-45-7-69-25-2-1-3-2-6-2l-90-1c-2 0-5 1-6 3-25 24-37 24-68 24-44 0-80-37-80-80l-22-202c0-21 18-39 41-39 13 0 23 5 31 14l61 139c2 3 5 7 9 7l158 0c4 0 8-3 10-7z m-239 204l-80 0c-5 0-9 5-9 10 0 5 4 10 9 10l80 0c6 0 10-5 10-10 0-5-4-10-10-10z m-39-40c-5 0-10 4-10 9l0 80c0 6 5 10 10 10 5 0 10-4 10-10l0-80c0-5-5-9-10-9z"/>
<glyph unicode="&#86;" d="M255 119c-74 0-133 60-133 134 0 73 59 133 133 133 74 0 133-60 133-133 1-74-58-134-133-134z m0 247c-62 0-113-50-113-113 0-62 50-113 113-113 62 0 113 50 113 113 0 63-50 113-113 113z m0 64c-5 0-11 4-11 11l0 49c0 5 5 10 11 10 5 0 11-4 11-10l0-49c0-6-5-11-11-11z m0-418c-5 0-11 4-11 10l0 49c0 6 5 11 11 11 5 0 11-4 11-11l0-49c0-6-5-10-11-10z m235 231l-49 0c-6 0-11 4-11 11 0 5 4 11 11 11l49 0c5 0 10-5 10-11 0-7-4-11-10-11z m-419 0l-49 0c-5 0-10 4-10 11 0 5 4 11 10 11l49 0c6 0 11-5 11-11 0-7-5-11-11-11z m350-166c-3 0-5 1-7 3l-35 35c-5 4-5 11 0 15 4 4 10 4 15 0l35-35c4-4 4-11 0-15-2-2-4-3-8-3z m-295 296c-3 0-5 1-8 4l-35 35c-4 4-4 10 0 15 4 4 11 4 15 0l35-36c5-4 5-10 0-14-2-3-5-4-7-4z m260 1c-3 0-5 1-7 4-5 4-5 10 0 15l34 34c4 4 10 4 15 0 4-5 4-11 0-15l-35-35c-2-2-5-3-7-3z m-296-296c-4 0-6 1-8 3-4 4-4 11 0 15l35 35c5 4 11 4 15 0 5-4 5-10 0-15l-35-35c-2-2-4-3-7-3z"/>
<glyph unicode="&#87;" d="M432 173l-381 0 0 143 382 0 0-143z m-363 18l346 0 0 107-346 0z m393-58l-441 0c-6 0-11 6-11 12l0 198c0 7 5 12 11 12l442 0c6 0 12-5 12-12l0-198c-1-6-7-12-13-12z m-434 18l429 0 0 186-429 0z m474 52l-32 0 0 18 14 0 0 49-14 0 0 18 32 0z"/>
<glyph unicode="&#88;" d="M483 41l-458 0c-11 0-19 8-19 18l0 380c0 11 9 19 19 19l195 0c10 0 18-9 18-19l0-51 244 0c11 0 18-8 18-18l0-311c1-11-7-18-17-18z m-456 20l453 0 0 307-252 0c-5 0-10 4-10 11l0 58-191 0z"/>
<glyph unicode="&#89;" d="M198 53c-12 0-23 4-29 10-8 7-11 17-10 32 1 43 1 88 0 139 0 12 3 23 11 31 6 7 17 10 29 10l136 0c39 0 79 0 118 0 13 0 23-3 30-10 8-8 11-18 11-31-1-42-1-86 0-142 0-13-3-23-10-29-6-6-16-10-27-10-20 0-37 0-55 0l-75 0c-11 0-24 0-37 0-30 0-59 0-88 0z m137 202l-136 0c-7 0-12-1-16-4-3-4-4-9-4-17 0-51 0-96 0-139 0-9 1-15 4-18 4-3 9-4 16-4l3 0c29 1 58 1 88 0 12 0 25 0 36 0l75 0c18 0 36 0 53 0 8 0 13 1 15 4 2 2 5 7 4 15-2 56 0 101 0 142 0 8-2 13-5 17-3 3-8 4-16 4-38 0-78 0-117 0z m62 37c-49 0-91 42-91 90 0 23 10 47 28 64 17 18 40 28 64 28 24 0 47-10 64-28 17-18 27-42 27-66-3-49-42-88-92-88z m1 162c-18 0-36-8-50-22-14-14-22-32-22-50 0-37 33-69 71-71l1-9 0 9c39 0 70 30 70 69 0 19-7 38-21 52-13 14-31 22-49 22z m-154-156c-35 0-62 27-62 61 0 35 29 62 62 62l2 0c32-1 61-31 61-63 0-32-29-60-63-60z m1 104c-23 0-43-20-43-43 0-23 18-42 41-42l1-10 0 10c24 0 44 20 44 42 0 22-20 43-43 43z m-235-323l0 168 11-4c12-3 24-6 36-9 23-7 45-12 66-22 14-6 22-23 23-47 0-18-4-41-19-49-21-11-46-18-72-24-10-3-21-6-33-10z m19 142l0-115c7 2 14 4 21 5 26 6 48 13 67 23 5 3 10 15 9 32 0 15-5 27-12 30-19 9-39 14-63 21-6 1-15 2-22 4z"/>
<glyph unicode="&#90;" d="M86 188c-43 0-80 37-80 83 0 46 37 83 80 83 44 0 80-37 80-83 0-46-36-83-80-83z m0 147c-33 0-59-29-59-64 0-35 26-64 59-64 33 0 60 29 60 64 0 35-27 64-60 64z m409-139c-5 0-10 5-10 10l0 53-329 0c-6 0-10 4-10 10 0 5 4 9 10 9l339 0c5 0 10-4 10-9l0-64c0-3-5-9-10-9z m-78 18c-5 0-10 5-10 10l0 46c0 5 5 9 10 9 5 0 10-4 10-9l0-46c1-5-5-10-10-10z"/>
<glyph unicode="&#48;" d="M484 425l-456 0c-7 0-12 4-12 10 0 7 5 12 12 12l456 0c7 0 12-5 12-12 0-6-5-10-12-10z m0 0l-456 0c-7 0-12 4-12 10 0 7 5 12 12 12l456 0c7 0 12-5 12-12 0-6-5-10-12-10z m-168-130l-288 0c-7 0-12 6-12 12 0 7 5 12 12 12l289 0c6 0 12-5 12-12-2-6-7-12-13-12z m99-123l-387 0c-7 0-12 5-12 11 0 7 5 12 12 12l387 0c6 0 12-5 12-12 0-6-6-11-12-11z m69-120l-456 0c-7 0-12 6-12 12 0 6 5 11 12 11l456 0c7 0 12-6 12-12 0-5-5-11-12-11z"/>
<glyph unicode="&#49;" d="M54 13c-24 0-44 20-44 45 0 24 20 44 44 44 25 0 45-20 45-44 0-25-20-45-45-45z m0 69c-13 0-24-11-24-24 0-14 11-25 24-25 14 0 25 11 25 25 0 13-11 24-25 24z m129 159c-24 0-44 20-44 45 0 24 20 45 44 45 25 0 45-21 45-45 0-25-20-45-45-45z m0 70c-13 0-24-10-24-24 0-14 11-25 24-25 14 0 25 11 25 25 0 14-11 24-25 24z m150-193c-25 0-45 21-45 45 0 25 20 45 45 45 24 0 45-20 45-45 0-24-21-45-45-45z m0 70c-14 0-25-11-25-25 0-14 11-24 25-24 14 0 24 10 24 24 0 14-11 25-24 25z m112 227c-25 0-45 20-45 45 0 24 20 45 45 45 24 0 45-21 45-45 0-25-20-45-45-45z m0 69c-14 0-25-10-25-24 0-14 11-25 25-25 14 0 24 11 24 25 0 14-10 24-24 24z m-379-404c-2 0-3 0-5 1-6 3-7 10-3 14l99 165c3 6 9 7 14 3 5-3 6-9 3-13l-98-165c-2-3-6-5-10-5z m240 96c-2 0-4 1-6 2l-97 77c-5 3-6 10-2 14 3 4 9 5 13 2l97-77c5-3 6-9 3-14-1-2-5-4-8-4z m45 6c-1 0-2 0-3 1-6 3-9 8-7 13l82 235c3 5 9 7 14 6 6-2 9-7 7-12l-82-235c-3-4-7-8-11-8z"/>
<glyph unicode="&#50;" d="M165 3c-10 0-22 3-32 9l-51 27c-16 9-27 23-32 40-5 17-3 35 5 51l83 151c8 16 22 26 39 32 17 5 35 3 51-6l33-18c5-2 7-8 5-14-3-4-9-6-14-4l-33 18c-11 6-24 8-37 4-11-3-22-11-27-22l-81-150c-7-11-8-24-5-37 4-11 12-22 23-27l51-28c11-7 23-8 36-4 12 3 23 11 28 22l67 124c2 4 9 6 14 4 4-2 6-9 4-14l-67-123c-8-16-22-26-39-32-8-2-14-3-21-3z m123 192c-11 0-22 3-32 9l-33 18c-4 2-6 8-4 14 2 4 8 6 14 4l33-18c10-7 23-8 36-4 12 3 22 11 28 22l82 150c6 11 7 24 4 37-3 11-12 22-22 27l-53 28c-10 7-23 8-36 4-12-3-22-11-28-22l-67-123c-2-5-8-6-14-4-4 2-6 9-4 14l67 123c9 16 23 26 40 32 17 5 35 3 51-6l51-27c16-9 27-23 32-40 5-17 3-35-5-51l-82-151c-9-16-23-26-40-32-5-3-12-4-18-4z"/>
<glyph unicode="&#51;" d="M489 365l-370 0c-5 0-9 4-9 9 0 6 4 10 9 10l370 0c5 0 9-4 9-10 0-5-4-9-9-9z m0 0l-370 0c-5 0-9 4-9 9 0 6 4 10 9 10l370 0c5 0 9-4 9-10 0-5-4-9-9-9z m0-128l-370 0c-5 0-9 4-9 9 0 6 4 10 9 10l370 0c5 0 9-4 9-10 0-5-4-9-9-9z m0-122l-370 0c-5 0-9 4-9 10 0 5 4 9 9 9l370 0c5 0 9-4 9-9 0-6-4-10-9-10z m-428 10c0-13-11-24-24-24-13 0-23 11-23 24 0 13 10 23 23 23 13 0 24-10 24-23z m0 122c0-12-11-23-24-23-13 0-23 11-23 23 0 13 10 24 23 24 13 0 24-11 24-24z m0 127c0-13-11-23-24-23-13 0-23 10-23 23 0 13 10 24 23 24 13 0 24-11 24-24z"/>
<glyph unicode="&#52;" d="M256 12c-4 0-7 2-9 5l-6 12c-3 6-7 13-11 19-40 73-79 144-108 221-10 23-16 45-20 64-7 36 3 71 26 104 30 41 77 64 127 64 12 0 23-1 35-4 62-13 109-61 121-122 4-20 2-41-6-66-11-39-28-80-53-129-18-36-38-73-58-109-8-14-16-29-24-44-1-2-2-4-3-6l-2-3c-3-4-6-6-9-6z m0 469c-44 0-85-20-111-55-21-29-29-59-23-89 3-18 9-38 18-61 30-75 67-146 107-218 4-6 6-10 9-15 6 12 13 24 20 37 19 35 39 73 58 109 24 48 40 88 52 126 7 21 9 39 5 56-9 52-50 95-103 107-12 2-21 3-32 3z m0-188c-33 0-60 26-60 57 0 16 7 30 17 41 11 11 26 16 42 16 32 0 59-25 59-57 0-15-7-29-17-40-10-10-25-17-41-17z m0 94c-11 0-20-4-28-10-7-7-10-16-10-27 0-20 17-36 39-36 11 0 20 4 28 11 6 7 10 16 10 25-1 20-18 37-39 37z"/>
<glyph unicode="&#53;" d="M278 15c-1 0-3 0-3 0-7 1-14 7-15 16l-25 208-199 26c-8 1-15 7-16 16-1 8 3 16 11 20l434 194c6 3 15 2 20-3 6-6 8-14 5-21l-195-444c-3-8-10-12-17-12z m-231 270l198-26c5-1 9-4 9-8l25-208 190 432z"/>
<glyph unicode="&#54;" d="M409 42l-306 0c-5 0-10 4-10 10l0 240c0 6 4 11 10 11l306 0c5 0 10-4 10-11l0-240c0-5-5-10-10-10z m-295 21l285 0 0 219-285 0z m229 224c-5 0-10 4-10 11l0 67c0 42-34 77-77 77-43 0-77-35-77-77l0-66c0-6-4-11-10-11-6 0-11 4-11 11l0 65c0 53 44 97 97 97 53 0 97-44 97-97l0-67c1-6-3-10-9-10z"/>
<glyph unicode="&#55;" d="M409 6l-306 0c-5 0-10 5-10 11l0 239c0 5 4 11 10 11l304 0c6 0 11-5 11-11l0-239c0-5-4-11-9-11z m-295 22l284 0 0 217-284 0z m229 217c-5 0-10 5-10 11l0 153c0 42-34 76-77 76-43 0-77-34-77-76l0-66c0-5-4-10-10-10-6 0-11 4-11 10l0 66c0 53 44 97 97 97 53 0 97-44 97-97l0-153c1-5-3-11-9-11z"/>
<glyph unicode="&#56;" d="M361 7l-308 0c-5 0-10 5-10 11l0 240c0 5 4 11 10 11l306 0c6 0 11-4 11-11l0-241c0-5-4-10-9-10z m-297 21l286 0 0 219-286 0z m230 219c-5 0-10 5-10 11l0 154c0 54 43 98 98 98 54 0 98-44 98-98l0-66c0-6-4-11-11-11-6 0-10 4-10 11l0 66c0 42-34 77-77 77-43 0-77-35-77-77l0-154c0-5-4-11-11-11z"/>
<glyph unicode="&#57;" d="M19 19c-2 0-4 0-5 1-3 2-4 6-4 9l0 386c0 4 2 7 5 10l119 57c4 1 7 1 9 0l112-53 112 53c3 1 6 1 8 0l120-57c4-3 6-7 6-10l0-386c0-3-2-7-4-9-3-2-6-2-10 0l-115 57-113-57c-3-1-6-1-8 0l-112 55-116-55c-1-1-3-1-4-1z m120 77c1 0 3 0 4-1l112-56 113 57c3 1 6 1 9 0l104-51 0 362-109 54-112-54c-3-1-6-1-8 0l-113 54-110-52 0-364 104 50c2 1 4 1 6 1z m-11 375l20 0 0-386-20 0z m116-54l21 0 0-388-21 0z m118 54l20 0 0-384-20 0z"/>
<glyph unicode="&#33;" d="M473 78l-432 0c-16 0-29 13-29 29l0 38 48 0 0 28-48 0 0 68 48 0 0 28-48 0 0 68 48 0 0 28-48 0 0 38c0 17 13 29 29 29l432 0c17 0 28-13 28-29l0-38-48 0 0-28 48 0 0-68-48 0 0-28 48 0 0-68-48 0 0-28 48 0 0-38c0-15-12-29-28-29z m-441 48l0-19c0-6 4-10 10-10l432 0c5 0 9 4 9 10l0 19-48 0 0 68 48 0 0 28-48 0 0 68 48 0 0 28-48 0 0 68 48 0 0 19c0 7-4 10-9 10l-433 0c-5-1-9-4-9-11l0-19 48 0 0-68-48 0 0-28 48 0 0-68-48 0 0-28 48 0 0-68-48 0z m172 50c-1 0-2 0-3 1-3 1-4 3-4 5l0 143c0 2 1 5 4 6 1 0 2 1 3 1 1 0 2 0 3-1l119-72c3-1 4-3 4-5 0-2-1-4-4-5l-119-72c-1-1-2-1-3-1z"/>
<glyph unicode="&#34;" d="M169 9c-7 0-11 5-11 10l0 468c0 7 5 11 11 11 5 0 10-5 10-11l0-468c1-6-4-10-10-10z m197 0c-7 0-11 5-11 10l0 468c0 7 6 11 11 11 5 0 11-5 11-11l0-468c1-6-5-10-11-10z"/>
<glyph unicode="&#35;" d="M432 10l-350 0c-5 0-9 4-9 9l0 474c0 5 4 9 9 9l247 0c5 0 9-4 9-9 0-6-4-10-9-10l-237 0 0-453 339 0c5 0 10-4 10-10 0-5-4-10-9-10z m0 370l-103 0c-6 0-10 4-10 9l0 104c0 4 2 7 6 9 4 1 9 1 11-2l101-101c2-2 5-5 5-9 1-6-5-10-10-10z m-93 20l68 0-68 68z m93-390c-5 0-10 4-10 9l0 371c0 6 5 10 10 10 5 0 10-4 10-10l0-370c0-6-5-10-10-10z m-71 268l-216 0c-5 0-10 5-10 10 0 5 5 10 10 10l216 0c5 0 9-5 9-10 0-5-4-10-9-10z m0 0l-216 0c-5 0-10 5-10 10 0 5 5 10 10 10l216 0c5 0 9-5 9-10 0-5-4-10-9-10z m0-81l-216 0c-5 0-10 5-10 10 0 5 5 10 10 10l216 0c5 0 9-5 9-10 0-4-4-10-9-10z m0-78l-216 0c-5 0-10 5-10 10 0 5 5 10 10 10l216 0c5 0 9-5 9-10 0-5-4-10-9-10z"/>
<glyph unicode="&#36;" d="M432 9l-352 0c-5 0-11 4-11 10l0 475c0 5 5 11 11 11l247 0c6 0 11-5 11-11 0-5-4-11-11-11l-236 0 0-454 341 0c5 0 11-4 11-11 0-6-6-9-11-9z m0 371l-103 0c-6 0-11 4-11 10l0 104c0 4 2 7 6 9 5 2 9 2 11-2l102-102c4-2 5-5 5-9 0-5-5-10-10-10z m-94 21l68 0-68 68z m94-392c-5 0-11 4-11 10l0 371c0 6 5 11 11 11 5 0 11-4 11-11l0-372c-1-5-6-9-11-9z"/>
<glyph unicode="&#37;" d="M470 36c-3 0-6 1-8 3l-169 170c-4 4-4 12 0 16 5 4 12 4 16 0l170-170c4-4 4-11 0-16-2-2-5-3-9-3z m19-21l-138 2c-6 0-12 5-12 12 0 6 6 12 12 12l126-3 1 126c0 7 5 12 12 12 6 0 11-5 11-12l-2-137c0-4-1-7-3-9-1-2-4-3-7-3z m-446 21c-4 0-7 1-9 3-4 5-4 12 0 16l170 170c4 4 11 4 16 0 4-4 4-12 0-16l-170-170c-2-2-5-3-7-3z m-18-21c-4 0-7 1-9 3-2 2-3 5-3 9l-2 136c0 7 5 12 11 12 7 0 12-5 12-12l1-126 126 2c6 0 12-5 12-11 0-7-6-12-12-12z m276 269c-3 0-7 1-9 3-4 4-4 12 0 16l170 170c4 4 12 4 16 0 4-5 4-12 0-16l-170-170c-2-2-5-3-7-3z m189 53c-7 0-12 5-12 12l-1 125-127-1c-8 0-12 5-12 11 0 7 5 12 12 12l137 2c4 0 7-1 9-3 2-2 3-5 3-9l2-137c0-7-5-12-11-12z m-279-53c-3 0-6 1-8 3l-170 170c-4 4-4 11 0 16 4 4 12 4 16 0l170-170c4-4 4-12 0-16-2-2-6-3-8-3z m-190 53c-6 0-11 5-11 12l2 136c0 4 1 7 3 9 2 2 5 3 8 3l138-2c6 0 12-5 12-12 0-6-6-12-12-12l-126 3-2-126c0-7-5-11-12-11z"/>
<glyph unicode="&#38;" d="M250 10c-110 0-200 92-200 207 0 87 53 165 132 195 6 2 12-1 13-7 2-5-1-11-6-12-72-27-120-98-120-175 0-103 80-186 180-186 98 0 179 83 179 186 0 74-43 141-108 170-5 2-7 9-5 14 2 5 8 8 14 5 73-34 120-108 120-190 0-115-88-207-199-207z m5 303c-5 0-11 4-11 10l0 171c0 5 5 11 11 11 5 0 11-5 11-11l0-172c0-5-6-9-11-9z"/>
<glyph unicode="&#39;" d="M169 7c-4 0-6 2-8 4-5 4-5 11-1 17l208 228-209 229c-4 6-3 13 1 17 5 5 13 5 17-1l216-236c4-5 4-12 0-16l-216-238c-2-2-5-4-8-4z"/>
<glyph unicode="&#40;" d="M160 73c-5 0-11 4-11 10l0 335c0 5 4 9 9 10l287 62c3 1 6 0 8-3 2-2 5-5 5-7l0-335c0-5-5-11-11-11-5 0-11 5-11 11l0 321-265-56 0-327c0-6-5-10-11-10z m0 243c-4 0-9 3-10 8-1 6 3 11 8 12l287 62c5 1 10-2 12-8 1-5-3-10-8-11l-287-62c0-1-1-1-2-1z m-55-307c-37 0-67 29-67 67 0 37 30 67 67 67 36 0 66-30 66-67 0-38-30-67-66-67z m0 113c-26 0-46-21-46-46 0-26 20-46 46-46 25 0 45 21 45 46 0 25-20 46-45 46z m286-37c-36 0-66 30-66 68 0 37 30 67 66 67 37 0 67-30 67-67 0-38-29-68-67-68z m0 113c-25 0-45-20-45-45 0-26 20-46 45-46 26 0 46 21 46 46 0 24-20 45-46 45z"/>
<glyph unicode="&#41;" d="M385 103l-363 0c-8 0-15 7-15 15l0 302c0 9 7 15 15 15l155 0c9 0 15-6 15-15l0-39 192 0c9 0 15-7 15-15l0-104c0-5-4-8-9-8-5 0-8 4-8 8l0 101-199 0c-5 0-8 4-8 8l0 46-149 0 0-296 358 0c3 3 9 2 12-2 3-3 3-9 0-12-3-2-8-4-11-4z m0 0l-363 0c-6 0-11 4-13 10-3 5-2 12 3 17l128 136c3 3 7 5 10 5l340 0c6 0 11-3 13-9 3-5 3-11-2-16l-104-135c-2-5-7-8-12-8z m-357 19l356 0 101 130-334 0z"/>
<glyph unicode="&#42;" d="M269 9c-65 0-118 52-118 117l0 291c0 47 39 85 86 85 47 0 85-38 85-85l0-247c0-29-23-54-53-54-29 0-54 24-54 54l0 171c0 6 5 10 10 10 5 0 10-4 10-10l0-171c0-19 15-33 33-33 18 0 33 14 33 33l0 247c0 36-29 65-65 65-37 0-65-29-65-65l0-290c0-53 43-97 97-97 53 0 97 44 97 97l0 214c0 6 4 10 9 10 6 0 10-4 10-10l0-215c2-64-51-117-115-117z"/>
<glyph unicode="&#43;" d="M322 122l-119 0c-6 0-10 4-10 9 0 44-22 73-47 104-25 33-52 67-48 120 5 75 59 151 164 151 112 0 159-81 165-151 4-53-23-87-48-120-24-31-47-60-47-105 0-4-5-8-10-8z m-110 19l101 0c3 45 26 76 50 106 24 32 48 62 43 107-1 21-17 132-144 132-100 0-140-71-145-132-4-45 20-75 44-107 24-29 48-60 51-106z m55-136c-1 0-4 0-5 0-1 0-2 0-3 0-26 0-49 10-66 29-2 2-2 4-2 7l0 45c0 6 4 10 10 10l124 0c6 0 10-4 10-10l0-45c0-3-1-5-2-6-14-19-36-30-66-30z m-5 21c3 0 4 0 5 0 21 0 38 6 48 19l0 33-106 0 0-32c13-13 29-19 49-19z"/>
<glyph unicode="&#44;" d="M274 6l-37 0c-80 0-146 64-146 143l0 214c0 79 65 143 146 143l37 0c80 0 146-64 146-143l0-214c0-79-65-143-146-143z m-36 478c-69 0-125-54-125-122l0-214c0-67 57-122 125-122l37 0c70 0 125 54 125 122l0 214c0 67-57 122-125 122z m18-222c-5 0-11 5-11 11l0 222c0 5 5 11 11 11 6 0 11-5 11-11l0-223c0-5-6-10-11-10z"/>
<glyph unicode="&#45;" d="M385 10l-272 0c-6 0-12 5-12 11l0 473c0 6 6 12 12 12l271 0c6 0 12-6 12-12l0-474c1-6-5-10-11-10z m-263 19l256 0 0 457-256 0z m223 86l-189 0c-6 0-11 4-11 11l0 306c0 5 4 11 11 11l189 0c5 0 10-5 10-11l0-306c0-5-5-11-10-11z m-183 18l175 0 0 293-175 0z m88-92c-14 0-26 11-26 25 0 14 12 26 26 26 13 0 25-12 25-26 0-14-12-25-25-25z"/>
<glyph unicode="&#46;" d="M342 11l-171 0c-6 0-10 4-10 9 0 6 4 10 10 10l170 0c6 0 10-4 10-10 1-5-3-9-9-9z m-86 0c-5 0-10 4-10 9l0 86c0 5 5 9 10 9 5 0 10-4 10-9l0-86c1-5-4-9-10-9z m0 170c-47 0-85 39-85 86l0 149c0 47 38 85 85 85 47 0 85-38 85-85l0-149c0-47-38-86-85-86z m0 300c-35 0-64-29-64-65l0-149c0-36 29-65 65-65 35 0 65 28 65 65l0 149c-1 36-30 65-66 65z m150-235c-5 0-9 5-9 10l0 85c0 6 4 10 9 10 6 0 10-4 10-10l0-85c0-5-4-10-10-10z m-299 0c-6 0-10 5-10 10l0 85c0 6 4 10 10 10 5 0 10-4 10-10l0-85c0-5-5-10-10-10z m149-150c-89 0-160 71-160 160 0 5 4 10 10 10 5 0 11-5 11-10 0-77 63-140 140-140 77 0 140 63 140 140 0 5 4 10 9 10 6 0 10-5 10-10 0-89-71-160-160-160z"/>
<glyph unicode="&#47;" d="M478 367l-450 0c-6 0-10 4-10 10 0 5 4 9 10 9l449 0c5 0 9-4 9-9 0-6-3-10-8-10z m0 0l-450 0c-6 0-10 4-10 10 0 5 4 9 10 9l449 0c5 0 9-4 9-9 0-6-3-10-8-10z m0-127l-450 0c-6 0-10 4-10 10 0 5 4 9 10 9l449 0c5 0 9-4 9-9 1-6-3-10-8-10z m0-122l-450 0c-6 0-10 5-10 10 0 5 4 10 10 10l449 0c5 0 9-5 9-10 1-5-3-10-8-10z"/>
<glyph unicode="&#58;" d="M25 12c-3 0-6 1-8 3-2 2-3 5-3 8l15 111c0 3 1 5 3 6l334 334c34 34 72 35 107 1 34-34 33-72-2-107l-333-333c-1-1-4-2-6-3l-105-20c-1 1-1 0-2 0z m25 117l-13-94 89 17 331 331c26 27 26 51 1 78-26 25-52 25-78-1z"/>
<glyph unicode="&#59;" d="M233 11c-122 0-221 98-221 220 0 122 99 221 221 221 6 0 10-5 10-10l0-199 199 0c6 0 10-5 10-10 1-124-98-222-219-222z m-11 419c-105-7-188-93-188-199 0-109 89-199 199-199 105 0 193 83 198 188l-198 0c-7 0-11 5-11 10z m265-164l-210 0c-6 0-10 5-10 10l0 210c0 7 5 11 10 11 121 0 220-97 221-218 0-1 0-2 0-2 1-7-4-11-11-11z m-198 21l188 0c-6 101-88 182-188 188z"/>
<glyph unicode="&#60;" d="M333 251l-63-48-88 150-111-241 370 0z m16 92c0-6 1-12 3-18 2-5 5-10 10-15 4-4 8-7 15-9 5-2 11-3 18-3 6 0 12 1 18 3 5 2 10 5 15 9 4 5 7 9 9 15 2 6 4 12 4 18 0 7-2 13-4 19-2 5-5 10-9 15-5 4-10 7-15 9-6 2-12 3-18 3-7 0-13-1-18-3-6-2-11-5-15-9-5-5-8-9-10-15-2-7-3-12-3-19z m138-284l-462 0c-6 0-10 4-10 9l0 376c0 5 4 9 10 9l464 0c5 0 9-4 9-9l0-375c0-6-5-10-11-10z m-453 20l444 0 0 354-444 0z"/>
<glyph unicode="&#61;" d="M159 11c-4 0-10 2-13 5-6 5-11 14-11 25l0 432c0 9 5 19 10 24 9 6 19 6 27 0l244-216c6-6 10-14 10-24 0-10-4-18-10-23l-244-218c-3-3-9-5-13-5z m0 467c-1-1-1-3-1-5l0-434c0-2 1-4 1-5l243 216c1 1 2 3 2 6 0 3-1 6-2 6z"/>
<glyph unicode="&#62;" d="M384 7c3 0 5 2 7 4 6 4 6 11 2 17l-208 228 208 229c4 6 4 13-2 17-5 5-12 5-17-1l-215-236c-4-5-4-12 0-16l216-238c3-2 6-4 9-4z"/>
<glyph unicode="&#63;" d="M491 92l-130 0c-6 0-10 4-10 9 0 6 4 10 10 10l119 0 0 184-449 0 0-183 113 0c5 0 10-4 10-10 0-5-5-9-10-9l-123 0c-5-1-10 3-10 9l0 203c0 5 4 10 9 10l470 0c5 0 9-5 9-10l0-204c2-5-3-9-8-9z m-127 202l-216 0c-5 0-9 5-9 10l0 178c0 5 4 10 9 10l217 0c5 0 9-5 9-10l0-177c0-6-4-11-10-11z m-206 21l196 0 0 156-196 0z m203-295l-216 0c-5 0-10 5-10 10l0 131c0 5 5 10 10 10l217 0c5 0 9-5 9-10l0-130c0-6-4-11-10-11z m-206 21l196 0 0 109-196 0z"/>
<glyph unicode="&#64;" d="M256 187c-80 0-144 65-144 144 0 80 65 144 144 144 80 0 144-65 144-144 0-79-64-144-144-144z m0 267c-68 0-123-55-123-122 0-69 56-124 123-124 68 0 123 55 123 124 0 67-55 122-123 122z m237-411c-3 0-6 1-8 3-126 126-331 126-457 0-5-4-11-4-15 0-4 4-4 11 0 15 134 134 353 134 487 0 5-4 5-11 0-15-2-2-5-3-7-3z"/>
<glyph unicode="&#91;" d="M394 101c-42 0-81 23-104 59-15 25-23 57-25 96 4 92 43 156 119 190 11 5 22 7 34 8l7 1c16 4 26-7 26-22 0-6 0-14 0-20l0-2c0-6-2-20-20-23-41-7-56-24-62-69 0-1 0-3 0-4 0-2 1-4 1-4 0 2 1 2 2 2 32 6 63 0 89-20 25-19 41-49 41-82 1-33-12-64-38-84-19-17-44-26-70-26z m34 334l-7-2c-10-2-20-3-27-7-68-31-103-89-106-171 1-34 9-63 22-84 20-30 52-48 86-48 21 0 40 7 56 20 21 16 31 40 30 66-1 27-13 50-33 65-21 16-45 21-71 16-4-1-6-1-8-1-7 0-19 3-22 21 0 4-1 7 0 11 5 46 21 78 79 89 2 0 2 1 2 1l0 2c0 6 0 13 0 19 0 2-1 3-1 3z m-290-334c-42 0-81 23-104 59-15 25-23 57-25 96 4 92 43 156 119 190 11 5 22 7 34 8l7 1c16 4 26-7 26-22 0-7 0-15 0-22 0-6-2-20-20-23-41-7-56-24-61-69 0-1 0-3 0-4 0-2 1-4 1-4 0 2 1 2 2 2 32 6 63 0 89-20 25-19 41-49 41-82 2-33-12-64-38-84-20-17-45-26-71-26z m34 334l-7-2c-10-2-20-3-27-7-68-31-103-89-106-171 0-33 7-62 21-83 20-30 52-48 86-48 21 0 40 7 56 20 19 16 31 41 30 66-1 27-13 50-33 65-21 16-45 22-71 16-4-1-6-1-8-1-7 0-19 3-22 21 0 4-1 7 0 11 5 46 21 78 79 89 2 0 2 1 2 1 0 7 0 14-1 21 1 1 1 2 1 2z"/>
<glyph unicode="&#93;" d="M256 15c-135 0-245 110-245 245 0 136 110 246 245 246 135 0 245-110 245-246 0-134-110-245-245-245z m0 469c-124 0-224-100-224-224 0-123 100-224 224-224 124 0 224 101 224 224 0 124-100 224-224 224z"/>
<glyph unicode="&#94;" d="M430 12l-248 219c-6 6-9 14-9 24 0 10 3 18 9 23l248 220c7 7 19 8 27 0 6-5 10-15 10-24l0-439c0-9-4-19-10-24-5-4-9-6-13-6-6 1-10 4-14 7z m-233 250c-1-1-2-3-2-7 0-3 1-6 2-8l247-217c1 1 1 3 1 5l0 440c0 2-1 4-1 5z m-134-256c6 0 12 6 12 12l0 475c0 6-6 12-12 12-6 0-12-7-12-12l0-475c0-6 6-12 12-12z"/>
<glyph unicode="&#95;" d="M250 41c-4 0-8 2-12 5l-214 190c-5 4-8 12-8 20 0 8 3 16 8 20l214 191c7 6 17 7 24 1 5-4 9-13 9-21l0-381c0-8-4-17-9-21-3-2-7-4-12-4z m0 410l-213-188c-1-1-2-3-2-6 0-3 1-6 2-6l213-189c1 1 1 3 1 5l0 380c0 2 0 4-1 4z m236-410c-5 0-8 2-12 5l-214 190c-6 4-9 12-9 20 0 8 3 16 9 20l215 191c6 6 17 7 23 0 6-4 9-13 9-21l0-381c0-8-3-17-9-21-4-1-7-3-12-3z m0 410l-213-188c-1-1-2-3-2-6 0-3 1-6 2-6l213-189c1 1 1 3 1 5l0 380c0 2 0 4-1 4z"/>
<glyph unicode="&#96;" d="M289 78c-4 0-7 2-10 4l-178 158c-5 4-7 11-7 18 0 7 2 13 7 17l178 159c6 4 14 5 20 0 4-3 7-10 7-17l0-318c0-7-3-14-7-18-3-1-7-3-10-3z m0 342l-177-157c-1-1-2-2-2-5 0-2 1-4 2-4l177-158c1 1 1 3 1 4l0 317c0 1-1 3-1 3z m197-342c-4 0-7 2-10 4l-179 158c-5 4-7 11-7 18 0 7 2 13 7 17l179 159c5 4 14 5 19 0 5-4 8-10 8-18l0-317c0-7-3-14-8-18-2-1-5-3-9-3z m0 342l-178-157c-1-1-2-2-2-5 0-2 1-4 2-4l178-158c0 1 0 3 0 4l0 317c0 1 0 3 0 3z m-470-342c-4 0-8 4-8 9l0 343c0 4 4 8 8 8 5 0 9-4 9-8l0-343c0-5-4-9-9-9z"/>
<glyph unicode="&#123;" d="M363 5c-2 0-6 1-8 4l-88 88-89-88c-3-4-7-4-11-3-3 1-6 6-6 10l0 452c0 23 13 37 31 37l144 0c20 0 36-16 36-37l0-453c0-4-2-8-6-10-1 0-2 0-3 0z m-96 117c2 0 5-1 7-4l79-79 0 429c0 10-7 17-17 17l-144 0c-3 0-12 0-12-17l0-429 79 79c2 3 6 4 8 4z"/>
<glyph unicode="&#124;" d="M343 236c-2 0-5 1-7 3l-89 88c-4 5-4 11 0 14 5 5 11 5 14 0l89-88c4-4 4-11 0-14-1-2-3-3-7-3z m-88 0c-2 0-5 1-8 3-4 4-4 11 0 14l89 88c4 5 11 5 14 0 4-4 4-10 0-14l-89-88c-1-2-3-3-6-3z m-50-178c-33 0-61 26-61 60 0 33 27 61 61 61 34 0 61-26 61-61 0-34-28-60-61-60z m0 100c-23 0-41-18-41-41 0-22 18-40 41-40 22 0 40 19 40 41 0 22-18 40-40 40z m166-100c-33 0-61 26-61 60 0 33 27 61 61 61 33 0 61-26 61-61-1-34-28-60-61-60z m0 100c-22 0-40-18-40-41 0-22 18-40 40-40 23 0 41 18 41 40-1 23-19 41-41 41z m55 34l-276 0c-4 0-8 2-9 6l-66 181c-1 4-12 35-57 25-5-1-11 2-12 8-1 5 3 10 8 11 51 12 76-20 81-39l64-173 260 0 65 160-281 0c-6 0-11 4-11 11 0 6 4 11 11 11l295 0c3 0 7-3 9-5 2-3 2-6 1-9l-73-181c-2-4-6-6-9-6z"/>
<glyph unicode="&#125;" d="M205 58c-33 0-61 27-61 60 0 33 28 61 61 61 33 0 61-28 61-61-1-33-28-60-61-60z m0 101c-23 0-41-18-41-41 0-22 18-40 41-40 22 0 40 18 40 40-1 23-19 41-40 41z m166-101c-33 0-61 27-61 60 0 33 28 61 61 61 33 0 61-28 61-61 0-33-28-60-61-60z m0 101c-22 0-40-18-40-41 0-22 18-40 40-40 23 0 41 18 41 40-1 23-19 41-41 41z m55 34l-277 0c-4 0-8 2-9 6l-67 182c-2 4-12 35-57 25-5-1-11 3-12 8-1 5 2 11 8 12 52 11 75-21 81-39l64-174 262 0 64 160-281 0c-6 0-11 5-11 11 0 5 4 11 11 11l296 0c3 0 7-2 9-5 2-3 2-6 1-9l-74-182c-1-4-4-6-8-6z m-79 88l-93 0c-5 0-11 4-11 10 0 6 4 11 11 11l93 0c5 0 10-4 10-11 0-5-4-10-10-10z"/>
<glyph unicode="&#126;" d="M282 245c-3 0-6 1-8 4l-44 43c-4 5-4 11 0 14 5 4 11 4 14 0l37-36 80 81c4 4 10 4 13 0 5-4 5-11 0-14l-87-87c0-4-3-5-5-5z m-78-187c-33 0-61 26-61 60 0 35 27 61 61 61 34 0 61-26 61-61 0-34-28-60-61-60z m0 100c-23 0-41-18-41-41 0-22 18-40 41-40 22 0 40 18 40 40-1 23-18 41-40 41z m165-100c-33 0-61 26-61 60 0 35 27 61 61 61 33 0 61-26 61-61 0-34-27-60-61-60z m0 100c-22 0-40-18-40-41 0-22 18-40 40-40 22 0 41 18 41 40 0 23-19 41-41 41z m54 34l-274 0c-4 0-8 2-9 6l-67 181c-2 4-12 35-57 25-5-1-11 2-12 8-1 5 2 10 8 11 52 12 75-20 81-39l64-173 261 0 65 160-282 0c-6 0-11 4-11 11 0 6 4 11 11 11l295 0c3 0 6-3 9-5 2-3 2-6 1-9l-73-181c-1-4-5-6-10-6z"/>
<glyph unicode="&#92;" d="M205 61c-33 0-61 26-61 61 0 33 27 60 61 60 34 0 61-26 61-60-1-35-28-61-61-61z m0 100c-23 0-41-18-41-40 0-23 18-41 41-41 22 0 40 18 40 41 0 22-19 40-40 40z m165-100c-33 0-61 26-61 61 0 33 27 60 61 60 33 0 61-26 61-60 0-35-28-61-61-61z m0 100c-22 0-40-18-40-40 0-23 18-41 40-41 23 0 41 18 41 41 0 22-18 40-41 40z m55 34l-276 0c-4 0-8 2-9 7l-66 180c-1 4-12 35-57 25-6-1-12 3-13 8-1 6 2 12 8 13 52 11 75-21 81-40l64-173 261 0 65 160-281 0c-6 0-11 5-11 11 0 5 4 11 11 11l295 0c3 0 6-2 9-4 2-4 2-7 1-10l-73-180c-1-6-5-8-9-8z m-78 88l-92 0c-5 0-11 4-11 10 0 7 5 11 11 11l92 0c5 0 10-4 10-11 0-6-5-10-10-10z m-46-46c-6 0-11 4-11 10l0 92c0 6 4 11 11 11 5 0 10-4 10-11l0-92c-1-6-5-10-10-10z"/>
<glyph unicode="&#57344;" d="M204 61c-33 0-61 26-61 61 0 34 28 59 61 59 33 0 61-26 61-60 0-35-28-60-61-60z m0 100c-23 0-41-18-41-40 0-23 18-41 41-41 22 0 40 18 40 41 0 22-18 40-40 40z m165-100c-33 0-61 26-61 61 0 34 27 60 61 60 33 0 61-26 61-60 0-35-28-61-61-61z m0 100c-22 0-40-18-40-40 0-23 18-41 40-41 22 0 41 18 41 41 0 22-19 40-41 40z m54 34l-274 0c-4 0-8 2-9 7l-67 180c-2 4-12 35-57 25-5-1-11 3-12 8-1 6 2 12 8 13 51 11 75-21 81-40l64-173 260 0 65 160-281 0c-6 0-11 5-11 11 0 5 4 11 11 11l295 0c3 0 6-2 9-4 2-4 2-7 1-10l-73-180c-1-6-5-8-10-8z"/>
<glyph unicode="&#57345;" d="M31 71c-1 0-2 0-3 0-6 2-10 7-10 13 0 118 42 257 236 265l0 79c0 4 2 9 6 11 5 3 10 3 13-1l218-154c3-2 5-7 5-11 0-4-2-8-5-11l-218-152c-4-3-8-3-13-1-4 2-6 6-6 12l0 77c-74 0-148-6-212-119-3-5-7-8-11-8z m247 332l0-67c0-7-5-13-12-13-135-1-207-64-221-192 69 92 149 92 221 92 3 0 6-1 8-4 2-2 4-6 4-9l0-66 183 129z"/>
<glyph unicode="&#57346;" d="M473 78c-63 113-139 119-213 119l0-78c0-4-2-9-6-11-4-2-10-2-13 1l-218 154c-3 3-5 7-5 11 0 4 2 9 5 11l217 153c4 4 9 4 13 1 4-2 6-6 6-11l0-79c195-8 237-147 237-265 0-5-4-10-10-13-1 0-2 0-3 0-4 0-8 3-10 7z m-421 196l183-130 0 66c0 3 1 7 4 9 2 2 5 4 8 4 72 0 152 0 221-92-14 128-86 191-221 192-7 0-12 6-12 13l0 67z"/>
<glyph unicode="&#57347;" d="M94 179c-42 0-76 34-76 76 0 42 34 76 76 76 41 0 76-34 76-76 0-42-35-76-76-76z m0 131c-30 0-55-24-55-54 0-30 25-54 55-54 30 0 54 24 54 54 0 30-24 54-54 54z m305 43c-42 0-76 34-76 76 0 41 34 76 76 76 42 0 76-35 76-76 0-42-34-76-76-76z m0 131c-30 0-54-24-54-54 0-30 24-55 54-55 30 0 54 25 54 55 1 30-24 54-54 54z m-249-207c-3 0-7 2-9 6-3 5-1 11 4 15l192 108c5 4 12 1 15-4 3-5 1-12-4-15l-192-109c-2-1-3-1-6-1z m254-271c-40 0-74 32-75 73-3 42 30 78 72 79l3 0c41 0 75-32 76-74 1-20-6-39-20-54-14-15-33-24-54-25z m0 132l-2 0c-30-1-54-27-52-58 1-30 25-52 54-52l2 0c15 1 28 6 39 18 9 11 15 24 15 39-1 29-26 53-56 53z m-57-36c-2 0-4 0-6 1l-196 102c-5 3-7 9-4 14 3 5 8 7 14 4l196-101c5-4 7-10 4-14-1-3-5-6-8-6z"/>
<glyph unicode="&#57348;" d="M134 139c-1 0-2 0-2 0-4 1-7 5-7 9 0 92 32 202 185 208l0 62c0 4 3 8 6 9 3 2 7 1 10-1l171-121c2-2 4-5 4-8 0-4-1-7-4-9l-171-121c-3-2-7-2-10-1-3 3-6 6-6 9l0 61c-57 0-117-6-166-94-3-2-6-3-10-3z m196 260l0-52c0-6-5-10-10-10-106-1-163-50-174-151 55 72 117 72 174 72 2 0 5-1 7-3 3-2 4-4 4-8l0-52 143 102z m113-315l-422 0c-5 0-9 5-9 10l0 259c0 5 4 10 9 10l112 0c6 0 10-5 10-10 0-5-4-10-10-10l-101 0 0-240 401 0 0 54c0 5 4 9 10 9 5 0 9-4 9-9l0-63c0-5-4-10-9-10z"/>
<glyph unicode="&#57349;" d="M279 284l-138 0c-7 0-13 5-13 13 0 6 5 12 13 12l138 0c7 0 13-5 13-12-1-8-6-13-13-13z m-75-170c-51 0-101 20-137 57-74 74-74 197 0 273 36 36 84 56 137 56 51 0 100-20 136-56 75-76 75-198 0-273-37-37-85-57-136-57z m0 362c-45 0-87-17-119-49-65-66-65-173 0-238 32-32 74-49 119-49 45 0 86 17 118 49 65 65 65 172 0 238-32 31-73 49-118 49z m283-464c-3 0-6 1-8 3l-149 143c-6 4-6 13 0 17 4 5 12 5 17 0l149-143c5-4 5-13 0-17-2-2-5-3-9-3z"/>
<glyph unicode="&#57350;" d="M278 293l-138 0c-7 0-13 6-13 13 0 7 5 13 13 13l138 0c7 0 13-5 13-13 0-7-5-13-13-13z m-69-69c-6 0-13 5-13 13l0 138c0 7 6 13 13 13 6 0 13-5 13-13l0-138c0-8-7-13-13-13z m-6-110c-52 0-101 20-137 57-75 75-75 197 0 273 37 37 85 56 137 56 51 0 100-20 136-56 75-76 75-198 0-273-36-37-85-57-136-57z m0 362c-45 0-87-17-119-49-65-66-65-173 0-238 32-32 74-49 119-49 44 0 87 17 118 49 65 66 65 173 0 238-31 32-74 49-118 49z m284-464c-3 0-6 1-8 3l-149 144c-6 4-6 13 0 17 4 5 12 5 17 0l149-144c5-4 5-13 0-17-2-2-5-3-9-3z"/>
<glyph unicode="&#57351;" d="M203 115c-52 0-101 20-137 57-76 75-76 198 0 274 36 36 85 56 137 56 51 0 100-20 136-56 76-76 76-199 0-274-36-37-84-57-136-57z m0 363c-45 0-88-17-120-49-66-66-66-174 0-240 32-32 75-50 120-50 44 0 87 18 119 50 66 66 66 174 0 240-31 32-73 49-119 49z m286-466c-4 0-7 1-9 3l-149 144c-6 4-6 13 0 17 4 5 12 5 17 0l149-144c5-4 5-13 0-17-2-2-5-3-8-3z"/>
<glyph unicode="&#57352;" d="M480 421l-452 0c-7 0-11 6-11 11 0 6 5 11 11 11l452 0c6 0 11-6 11-11 0-5-5-11-11-11z m0 0l-452 0c-7 0-11 6-11 11 0 6 5 11 11 11l452 0c6 0 11-6 11-11 0-5-5-11-11-11z m0-127l-286 0c-6 0-11 6-11 11 0 6 6 11 11 11l286 0c6 0 11-6 11-11 0-5-5-11-11-11z m0-122l-383 0c-6 0-11 5-11 10 0 7 6 11 11 11l383 0c6 0 11-5 11-11 0-5-5-10-11-10z m0-118l-452 0c-7 0-11 6-11 11 0 6 5 11 11 11l452 0c6 0 11-6 11-11 0-6-5-11-11-11z"/>
<glyph unicode="&#57353;" d="M100 6c-36 0-65 29-65 65 0 37 29 66 65 66 37 0 65-29 65-66 0-36-30-65-65-65z m0 110c-24 0-43-20-43-43 0-24 20-44 43-44 25 0 44 20 44 44 0 23-19 43-44 43z m156 76c-36 0-65 29-65 65 0 36 29 65 65 65 36 0 65-29 65-65 0-36-29-65-65-65z m0 109c-25 0-44-20-44-44 0-24 21-44 44-44 25 0 44 21 44 44 0 25-19 44-44 44z m-156-185c-5 0-10 5-10 11l0 351c0 5 4 11 10 11 6 0 11-5 11-11l0-351c0-6-5-11-11-11z m312 251c-37 0-65 29-65 65 0 36 28 65 65 65 36 0 65-29 65-65 0-35-29-65-65-65z m0 110c-25 0-44-20-44-44 0-24 20-44 44-44 23 0 43 21 43 44 2 24-19 44-43 44z m0-461c-6 0-11 4-11 11l0 351c0 5 4 10 11 10 6 0 10-4 10-10l0-351c0-7-4-11-10-11z m-156 287c-5 0-11 4-11 11l0 164c0 5 5 11 11 11 5 0 11-5 11-11l0-164c0-6-6-11-11-11z m0-278c-5 0-11 4-11 10l0 167c0 5 5 10 11 10 5 0 11-4 11-10l0-168c0-5-6-9-11-9z"/>
<glyph unicode="&#57354;" d="M420 14c-2 0-4 1-6 2l-180 131-116 0c-9 0-19 3-25 11-8 6-11 16-11 25l0 147c0 9 4 19 11 25 7 7 16 11 25 11l117 0 178 130c3 2 8 3 12 1 4-2 6-5 6-11l0-461c0-5-2-9-6-11-2 0-4 0-5 0z m-302 328c-4 0-7-1-10-4-2-2-5-5-5-8l0-147c0-3 2-6 5-8 3-2 6-4 10-4l120 0c2 0 4-1 6-2l165-121 0 417-165-120c-2-2-4-3-6-3z"/>
<glyph unicode="&#57355;" d="M288 59c-2 0-3 1-5 2l-145 106-94 0c-8 0-14 2-21 7-6 6-8 13-8 20l0 120c0 8 3 15 8 20 7 5 13 9 21 9l94 0 145 106c3 1 6 2 9 1 3-2 6-5 6-8l0-374c0-4-2-6-6-8-1-1-2-1-4-1z m-244 266c-3 0-6-1-8-4-3-2-4-5-4-8l0-118c0-2 1-5 4-8 2-1 5-3 8-3l97 0c1 0 3-1 5-2l133-98 0 340-133-98c-2-1-4-1-5-1z m440-161c-2 0-4 1-6 3l-129 129c-4 3-4 9 0 12 3 4 9 4 12 0l129-129c4-4 4-9 0-12-1-2-3-3-6-3z m-129 0c-3 0-4 1-6 3-4 3-4 8 0 12l129 129c4 4 9 4 12 0 4-3 4-9 0-12l-129-129c-2-2-4-3-6-3z"/>
<glyph unicode="&#57356;" d="M384 147c-2 0-5 1-7 2-3 4-3 10 0 13 59 58 59 153 0 211-3 4-3 10 0 13 4 4 10 4 14 0 65-65 65-172 0-237-1-1-4-2-7-2z m42-34c-3 0-5 1-7 2-3 4-3 10 0 13 38 39 59 89 59 143 0 54-21 104-59 142-3 4-3 10 0 13 4 4 10 4 13 0 42-42 64-97 64-155 0-59-22-114-64-156-2-1-4-2-6-2z m-135-60c-2 0-4 1-5 2l-148 107-95 0c-8 0-16 3-22 9-6 5-10 13-10 21l0 121c0 8 4 16 9 21 6 5 13 9 22 9l95 0 148 107c2 2 7 3 9 1 4-1 5-5 5-8l0-381c0-3-1-6-5-8 0 0-2-1-3-1z m-248 271c-4 0-7-1-9-4-2-2-4-4-4-8l0-120c0-3 1-5 4-8 2-2 5-4 9-4l98 0c1 0 4 0 5-1l135-99 0 344-134-99c-2 0-4-1-6-1z m305-137c-3 0-5 0-7 2-3 4-3 10 0 13 16 16 24 37 24 58 0 22-8 43-24 58-3 4-3 10 0 13 4 4 10 4 13 0 19-19 30-44 30-72 0-26-11-52-30-72-2 0-3 0-6 0z"/>
<glyph unicode="&#57357;" d="M369 10c-2 0-4 1-6 2l-181 131-115 0c-9 0-19 3-25 11-8 6-11 16-11 25l0 146c0 10 4 20 11 26 7 6 16 11 25 11l116 0 180 131c3 2 8 3 11 1 5-2 7-5 7-11l0-462c0-4-2-8-7-10-2-1-3-1-5-1z m-302 328c-4 0-7-1-10-4-3-2-5-5-5-9l0-146c0-3 1-6 5-9 3-3 6-5 10-5l120 0c2 0 4-1 6-2l164-120 0 418-164-121c-2-1-4-2-6-2z m371-166c-3 0-5 1-8 3-4 4-4 12 0 16 39 39 39 103 0 142-4 4-4 12 0 16 4 4 12 4 16 0 48-48 48-126 0-174-2-2-5-3-8-3z"/>
<glyph unicode="&#57358;" d="M426 135c-3 0-5 1-8 3-4 4-4 11 0 15 64 63 64 168 0 231-4 4-4 11 0 15 4 4 11 4 15 0 71-72 71-189 0-261-1-2-4-3-7-3z m-102-102c-2 0-4 1-6 2l-162 119-106 0c-8 0-17 2-23 9-7 6-10 15-10 23l0 133c0 8 4 17 10 23 7 6 15 10 23 10l106 0 162 118c3 2 8 3 10 1 4-2 6-4 6-9l0-419c0-3-2-7-6-8-1-2-2-2-4-2z m-274 297c-4 0-7-1-9-3-2-2-4-5-4-8l0-133c0-2 1-5 4-7 2-2 5-4 9-4l108 0c2 0 4-1 6-2l149-109 0 377-149-109c-2-1-4-2-6-2z m336-150c-2 0-4 1-7 3-4 3-4 10 0 14 35 36 35 93 0 129-4 3-4 10 0 14 4 4 10 4 14 0 44-43 44-114 0-157-2-2-5-3-7-3z"/>
<glyph unicode="&#57359;" d="M292 57c-1 0-3 1-5 2l-146 107-94 0c-8 0-16 2-21 8-6 6-9 13-9 21l0 119c0 8 4 15 9 21 5 5 13 9 21 9l94 0 146 106c3 1 6 2 10 0 2-1 5-4 5-7l0-378c0-3-2-6-5-8-2 0-3 0-5 0z m-245 268c-4 0-6 0-9-3-2-2-3-5-3-8l0-120c0-2 1-5 3-7 3-3 5-4 9-4l97 0c2 0 4-1 5-2l135-99 0 343-135-98c-1-2-3-2-5-2z m435-75l-135 0c-5 0-9 4-9 9 0 5 5 8 9 8l135 0c6 0 9-4 9-8 0-5-4-9-9-9z"/>
<glyph unicode="&#57360;" d="M367 50c-2 0-3 1-5 2l-148 109-95 0c-8 0-16 2-21 8-6 5-9 13-9 21l0 121c0 7 4 14 9 20 6 6 13 9 21 9l95 0 148 109c2 1 6 2 9 1 3-2 6-5 6-8l0-382c0-4-2-6-6-8 0-1-2-2-4-2z m-249 272c-3 0-7-1-9-4-2-1-3-5-3-7l0-121c0-3 1-6 3-8 3-2 6-3 9-3l99 0c2 0 3-1 5-2l136-100 0 346-136-99c-2-1-3-2-5-2z m-55-278c-2 0-4 1-6 3-3 3-3 9 0 13l400 404c4 4 9 4 13 0 4-3 4-8 0-13l-401-404c-1-2-3-3-6-3z"/>
<glyph unicode="&#57361;" d="M296 56c-2 0-4 1-5 2l-147 108-95 0c-7 0-15 2-20 8-6 6-9 13-9 21l0 119c0 8 3 15 9 21 6 5 13 9 20 9l95 0 147 106c2 2 6 3 9 1 3-1 5-4 5-8l0-378c0-3-1-6-5-8-1-1-2-1-4-1z m-247 269c-3 0-6 0-8-3-3-2-4-5-4-8l0-120c0-2 1-5 4-7 2-3 5-4 8-4l99 0c1 0 3-1 5-2l134-99 0 344-135-99c-2-1-4-2-5-2z m431-79l-136 0c-6 0-9 4-9 8 0 5 4 9 9 9l135 0c5 0 9-4 9-9 1-5-4-8-8-8z m-69-68c-5 0-8 4-8 9l0 135c0 5 4 9 8 9 6 0 9-5 9-9l0-135c1-6-3-9-9-9z"/>
<glyph unicode="&#57362;" d="M45 37c-3 0-6 1-8 4-3 3-3 7-2 10 9 19 28 72 31 94-34 35-53 80-53 126 0 112 110 203 245 203 136 0 245-91 245-203 0-112-109-203-245-203-29 0-57 5-85 13-30-16-115-42-126-44-1 0-1 0-2 0z m213 416c-124 0-224-81-224-181 0-42 18-82 50-114 2-2 3-5 3-8-1-19-14-59-25-85 35 11 88 29 103 38 2 3 7 3 9 2 27-9 54-13 83-13 124 0 224 81 224 181 0 100-99 180-223 180z"/>
<glyph unicode="&#57363;" d="M45 37c-3 0-6 1-8 4-3 3-3 7-2 10 9 19 28 72 31 94-34 35-53 80-53 126 0 112 110 203 245 203 136 0 245-91 245-203 0-112-109-203-245-203-29 0-57 5-85 13-30-16-115-42-126-45-1 1-2 1-2 1z m213 417c-124 0-224-81-224-181 0-42 18-82 50-115 2-2 3-5 3-8-1-19-14-59-25-85 35 11 88 29 103 38 2 3 7 3 9 2 27-9 54-13 83-13 124 0 224 81 224 181 0 100-99 181-223 181z m-75-182c0-18-14-32-32-32-17 0-32 14-32 32 0 18 15 32 32 32 18 0 32-14 32-32z m107 0c0-18-14-32-32-32-18 0-32 14-32 32 0 18 14 32 32 32 18 0 32-14 32-32z m107 0c0-18-15-32-32-32-18 0-32 14-32 32 0 18 14 32 32 32 17 0 32-14 32-32z"/>
<glyph unicode="&#57364;" d="M390 14c-7 0-13 2-19 6l-113 82-113-82c-12-8-28-8-39 0-12 9-17 24-12 38l43 132-112 82c-12 9-18 23-12 37 4 14 17 24 32 24l140 0 42 132c4 14 17 24 32 24 15 0 28-10 32-24l43-132 140 0c15 0 27-10 32-24 4-14 0-28-12-37l-113-82 42-132c5-14 0-29-11-38-8-4-14-6-22-6z m-132 112c2 0 4-1 7-2l119-87c4-3 11-3 15 0 4 4 6 9 4 14l-46 140c-1 4 0 10 5 12l118 86c4 3 6 9 4 14-2 5-6 8-11 8l-148 0c-4 0-8 4-9 8l-46 140c-2 5-7 8-12 8-5 0-9-3-12-8l-45-140c-2-4-6-8-10-8l-147 0c-6 0-10-3-12-8-2-5 0-11 4-14l120-86c3-4 5-8 4-12l-46-140c-2-5 0-10 4-14 5-3 11-3 15 0l120 87c1 1 3 2 5 2z"/>
<glyph unicode="&#57365;" d="M491 7l-470 0c-6 0-10 6-10 11l0 469c0 7 5 11 10 11l470 0c6 0 10-5 10-11l0-469c0-5-4-11-10-11z m-458 23l447 0 0 447-447 0z"/>
<glyph unicode="&#57366;" d="M420 12l-339 0c-5 0-10 4-10 9l0 438c0 5 5 9 10 9l207 0c6 0 11-4 11-9 0-6-5-10-10-10l-197 0 0-418 320 0 0 257c0 5 4 10 9 10 6 0 10-5 10-10l0-267c0-5-5-9-11-9z m-254 179c-2 0-5 1-6 3-2 2-3 5-3 9l9 69c0 2 1 4 4 5l205 207c23 23 50 24 72 1 12-11 17-23 17-36 0-12-6-24-17-35l-208-207c-1-1-3-2-5-3l-67-13c0 0-1 0-1 0z m19 75l-7-53 49 10 206 205c8 7 12 15 12 21 0 6-3 14-11 21-15 15-28 15-44-1z"/>
<glyph unicode="&#57367;" d="M434 267c-3 0-5 1-7 3-46 46-107 71-172 71-65 0-126-25-172-71-4-4-10-4-15 0-4 4-4 11 0 15 50 50 117 78 187 78 70 0 136-28 187-78 4-4 4-11 0-15-3-2-5-3-8-3z m60 66c-3 0-5 1-8 3-128 128-335 128-463 0-4-4-10-4-14 0-5 4-5 11 0 15 136 135 357 135 492-1 5-4 5-11 0-15-2-1-4-2-7-2z m-135-125c-3 0-5 1-7 3-53 54-141 54-194 0-4-4-11-4-15 0-4 4-4 11 0 15 62 62 162 62 223 0 4-4 4-11 0-15-1-2-3-3-7-3z m-96-148c-4 0-8 2-10 5l-62 84c-4 6-3 13 1 17 20 24 44 35 69 35 42 0 73-34 74-35 4-5 4-11 1-17l-62-84c-2-3-6-5-11-5z m-52 97l52-71 52 71c-9 7-29 23-55 23-16 0-33-7-49-23z"/>
<glyph unicode="&#57368;" d="M492 45l-472 0c-5 0-10 4-10 10l0 411c0 5 4 11 10 11l473 0c5 0 10-4 10-11l0-411c-1-6-5-10-11-10z m-462 20l451 0 0 390-451 0z m462 312l-472 0c-5 0-10 4-10 10 0 7 4 11 10 11l473 0c5 0 10-4 10-11 0-6-5-10-11-10z m-418 50c0-8-7-14-14-14-8 0-14 6-14 14 0 7 6 14 14 14 7 0 14-7 14-14z m43 0c0-8-6-14-14-14-7 0-13 6-13 14 0 7 6 14 13 14 8 0 14-7 14-14z m336-15l-284 0c-6 0-11 4-11 10 0 6 4 11 11 11l285 0c6 0 11-4 11-11-1-5-5-10-12-10z"/>
<glyph unicode="&#57369;" d="M256 11c-135 0-245 110-245 245 0 135 110 245 245 245 135 0 245-110 245-245 0-135-110-245-245-245z m0 468c-123 0-223-100-223-223 0-123 100-223 223-223 123 0 223 100 223 223 0 123-100 223-223 223z m167-61l16-15-328-332-16 16z"/>
<glyph unicode="&#57370;" d="M497 38l-479 0c-4 0-7 3-9 6-3 3-3 7 0 10l240 414c4 7 14 7 18 0l238-413c2-2 3-4 3-7 0-5-5-10-11-10z m-460 22l442 0-221 382z m221 117c-6 0-11 4-11 10l0 140c0 6 6 10 11 10 7 0 11-4 11-10l0-140c0-6-6-10-11-10z m19-54c0-11-8-20-19-20-10 0-19 9-19 20 0 10 9 19 19 19 11 0 19-9 19-19z"/>
<glyph unicode="&#57371;" d="M112 169c-59 0-106 46-106 105 0 59 47 106 106 106 59 0 106-47 106-106 0-59-47-105-106-105z m0 192c-48 0-86-39-86-87 0-48 38-86 86-86 48 0 86 38 86 86 0 47-38 87-86 87z m286-192c-59 0-106 46-106 105 0 59 47 106 106 106 59 0 105-47 105-106 0-59-48-105-105-105z m0 192c-48 0-87-39-87-87 0-48 39-86 87-86 48 0 86 38 86 86 0 47-39 87-86 87z m-286-173l285 0 0-19-285 0z"/>
<glyph unicode="&#57372;" d="M258 166c-5 0-11 5-11 11l0 251c0 5 5 10 11 10 5 0 11-4 11-10l0-251c-1-6-6-11-11-11z m236-103l-472 0c-5 0-10 4-10 11l0 175c0 5 4 10 10 10 6 0 11-4 11-10l0-166 451 0 0 166c0 5 5 10 11 10 5 0 11-4 11-10l0-176c-3-6-7-10-12-10z m-135 269c-2 0-5 1-7 3l-93 96-96-93c-4-4-10-4-15 0-4 4-4 11 0 15l103 100c2 2 4 4 7 4 3 0 5-2 8-4l100-102c4-4 4-11 0-15-1-3-4-4-7-4z"/>
<glyph unicode="&#57373;" d="M7 202c0-4 2-6 4-8 4-5 11-5 17-1l228 208 229-208c6-4 13-4 17 1 5 5 5 13-1 17l-238 215c-4 4-11 4-16 0l-236-216c-2-2-4-5-4-8z"/>
<glyph unicode="&#57374;" d="M258 9c-69 0-125 56-125 124 0 44 23 85 60 107l0 233c0 17 10 34 27 34l72 0c17 0 31-15 31-32l0-235c38-22 60-63 60-107 0-68-56-124-125-124z m-38 477c-6 0-8-9-8-13l0-239c0-4-2-8-5-9-33-18-54-53-54-92 0-57 46-104 104-104 58 0 105 47 105 104 0 39-22 74-55 92-3 2-5 5-5 9l0 241c0 5-5 11-12 11z m38-435c-63 0-85 46-85 90 0 28 14 64 53 79l1 127 0 1c0 5 0 11 4 17 3 2 6 4 11 4l28 1c8 0 18-6 18-22l2-129c46-20 51-56 51-82 1-41-21-86-83-86z m-12 299c0-1 0-1 0-2l0-2-1-141-6-2c-34-11-47-41-47-63 0-22 6-71 66-71 58 0 64 46 64 66 0 25-5 52-45 67l-6 2-2 142c0 1 0 2 0 3z"/>
<glyph unicode="&#57375;" d="M110 9c-20 0-36 5-47 16-3 3-5 5-9 8-18 18-41 40-40 68 1 20 13 39 36 58 28 22 50 33 68 33 24 0 39-15 55-32l5-5c1-1 3-2 7-2 10 0 37 9 100 72 26 27 46 49 57 67 12 19 16 32 11 38l-4 4c-28 28-55 54 2 124 20 24 39 37 60 37 26 0 47-21 64-40 3-3 6-6 8-9 11-11 16-27 16-48 0-52-36-149-137-251-103-102-200-138-252-138z m8 162c-13 0-32-10-55-29-18-15-28-29-29-42-1-19 18-36 34-52 3-3 7-6 10-9 6-6 17-9 32-9 52 0 145 40 237 132 90 90 131 184 131 236 0 15-3 27-10 33-3 3-6 6-9 10-15 16-32 33-49 33-13 0-28-10-44-30-45-56-30-71-3-97l5-5c14-13 11-35-9-64-12-19-33-43-60-70-54-53-90-78-114-78-9 0-16 3-22 9l-5 5c-13 15-25 27-40 27z"/>
<glyph unicode="&#57376;" d="M257 9c-135 0-245 109-245 245 0 135 110 245 245 245 136 0 245-110 245-245 0-135-109-245-245-245z m0 470c-124 0-224-100-224-224 0-124 100-224 224-224 124 0 224 100 224 224 0 124-100 224-224 224z m0-140c-6 0-11 6-11 11l0 140c0 6 6 10 11 10 6 0 11-5 11-10l0-140c0-7-6-11-11-11z m0-316c-6 0-11 6-11 11l0 141c0 6 6 11 11 11 6 0 11-6 11-11l0-140c0-6-6-12-11-12z m227 221l-139 0c-7 0-11 6-11 11 0 6 5 11 11 11l139 0c7 0 11-6 11-11 0-6-4-11-11-11z m-314 0l-141 0c-7 0-11 6-11 11 0 6 5 11 11 11l140 0c6 0 10-6 10-11 1-6-4-11-9-11z"/>
<glyph unicode="&#57377;" d="M281 17c-8 0-15 3-22 11l-37 36c-62 62-125 124-187 185-9 9-14 19-14 32 0 20 0 40 0 61l0 14-1 11 0 91c0 19 12 31 31 31l49 0c44 0 88 0 131 1 13 0 22-7 27-12 53-53 108-107 161-159l63-63c15-15 15-30 0-45l-181-183c-6-8-13-11-20-11z m-239 361l1-11 0-25c0-20 0-41 0-61 0-8 2-12 7-18 62-61 125-122 187-184l37-36c5-6 9-6 14 0l181 183c7 7 7 9 0 15l-64 62c-53 53-107 107-161 159-4 4-7 6-11 6-44 0-88 0-133-1l-49 0c-8 0-9-2-9-10z m88-51c-30 0-53 25-52 54 0 30 23 52 53 52l1 0c29 0 53-24 53-53-3-29-26-53-55-53z m0 95l0-10c-18 0-32-14-32-32 0-18 14-32 32-32 18 0 32 14 32 32 0 18-14 32-32 33z"/>
<glyph unicode="&#57378;" d="M492 244l-474 0c-5 0-11 5-11 11 0 6 5 11 11 11l475 0c5 0 10-5 10-11 0-6-5-11-11-11z"/>
<glyph unicode="&#57379;" d="M475 3l-432 0c-6 0-11 4-11 10l0 277c0 6 5 10 11 10l432 0c5 0 10-4 10-10l0-277c0-6-5-10-10-10z m-422 20l411 0 0 257-411 0z m422-20c-3 0-6 1-8 3l-181 193c-1 1-12 14-26 15-10 0-19-4-29-13-23-22-179-191-181-193-4-4-10-4-14-1-4 4-5 11-1 15 7 7 158 171 182 193 14 14 29 20 44 19 24-1 40-21 40-22l181-192c4-4 4-11 0-15-2-2-5-2-7-2z m0 276c-3 0-6 1-8 3l-181 193c-1 1-12 14-26 15-10 1-19-4-29-13-23-23-179-191-181-193-4-4-10-4-14 0-4 4-5 10-1 14 7 7 158 170 182 194 14 13 29 20 44 18 24-1 40-21 40-22l181-192c4-4 4-11 0-14-2-2-5-3-7-3z m-134-134c-2 0-5 1-7 3-4 4-4 11 0 15l133 134c4 4 11 4 15 0 4-4 4-10 0-14l-133-135c-2-2-5-3-8-3z m-168 7c-3 0-5 1-7 3l-131 128c-4 4-4 10 0 14 4 4 11 4 15 0l130-128c4-4 4-10 0-14-2-2-5-3-7-3z"/>
</font>
</defs>
</svg>
